<?xml version="1.0" encoding="utf-8"?>
<!-- Generator: Adobe Illustrator 25.0.0, SVG Export Plug-In . SVG Version: 6.00 Build 0)  -->
<svg version="1.1" id="Layer_1" xmlns="http://www.w3.org/2000/svg" xmlns:xlink="http://www.w3.org/1999/xlink" x="0px" y="0px"
	 viewBox="0 0 306 110" style="enable-background:new 0 0 306 110;" xml:space="preserve">
<style type="text/css">
	.st0{display:none;}
	.st1{display:inline;}
	.st2{fill:#F05A58;}
	.st3{fill:#FFFFFF;}
	.st4{font-family:'Montserrat-SemiBold';}
	.st5{font-size:5.7154px;}
	.st6{fill-rule:evenodd;clip-rule:evenodd;fill:#F05A58;}
	.st7{fill:#565672;}
	.st8{fill-rule:evenodd;clip-rule:evenodd;fill:#565672;}
</style>
<g id="Layer_1_1_" class="st0">
	<g class="st1">
		<g>
			<g>
				<path class="st2" d="M83.2,38.4v13.9c0,5.9,4,9.5,11.7,9.5c6.5,0,10.3-3.7,10.3-9.6v-14c0.1-1,0.9-1.7,1.9-1.7h0.6l0,0
					c0,0,0.4,0,0.5,0c1.3,0,2.3,1,2.3,2.3l0,0v19.9c0,1.2-1,2.2-2.3,2.2c0,0-0.4,0-0.5,0v0.4h10.9v-0.4h-0.4c-1.3,0-2.3-1-2.3-2.3
					l0,0V37.8c0.5,0,1.8,0,2.7,0c2.4,0.1,4.1,1.6,4.2,5c0,0.7,0,1.3-0.1,1.7c-0.6,3.1-2.6,4.1-4.5,4.1c-0.5,0-1,0-1.1,0v0.3
					c0.9,0.2,1.8,0.9,2.4,2.4c0.4,1.1,2,4.6,3,6.1c1.8,2.8,4.5,3.7,8.4,3.7h3.5h7.7V61h-0.3c-0.9,0-2-0.8-1.4-2.3l0,0l1.8-4.4h8.4
					l1.8,4.4l0,0C153,60.1,152,61,151,61h-0.3v0.4h11.4l0,0h18.6l1.7-7.3H182c-1.1,3.6-3.4,5.8-7,5.8h-4.7v-21l0,0
					c0-1.2,1-2.3,2.3-2.3h0.5v-0.4h-2.9H165h-2.9v0.4h0.5c1.3,0,2.3,1,2.3,2.3v19.9c0,1.2-1,2.3-2.3,2.3h-0.4h-0.3
					c-1.1,0-2.3-0.6-3.1-2.1L148,35.5h-0.3c-0.1,1-1.5,4.2-1.8,4.7L137.7,59c-0.8,1.4-2,2-3,2h-0.3l0,0c-1.9,0-2.9-0.8-4.4-2.7l0,0
					c-1.4-1.7-3.5-5.1-3.6-5.3c-0.8-1.3-2.1-2.7-3.7-3.2c4.1-0.4,5.9-3.8,5.9-6.8c0-5-4.2-6.8-8.5-6.8h-9.4l0,0h-2.9l0,0h-2.6l0,0
					h-2.4l0,0h-2.6v0.4h0.6c1,0,1.8,0.7,1.9,1.7v14.1c0,4.8-2.7,7.8-7.1,7.8c-4.3,0-7-3.2-7-8.3V38.2c0-1,0.9-1.7,1.9-1.7H91v-0.4
					H80.7v0.4h0.6C82.3,36.6,83.2,37.3,83.2,38.4z M146.5,44l3.5,8.8h-7.2L146.5,44z"/>
				<path class="st2" d="M205.5,35.8c-2.5,0.3-6.3,1.2-10.6,1.5v0.4c0.1,0,0.3,0,0.6,0c1.5,0,2.1,0.8,2.2,2v19.1l0,0
					c0,1.3-1,1.7-2.3,2.3c-83.6,41.3-121-9-121-9c-1.1-1.2-0.9-3.1,0.4-4c1.7-1.2,2.9-3.2,2.9-5.8c0-5.1-4.9-6.7-9.2-6.7h-8.3H59
					h-2.8V36h0.4c1.3,0,2.3,1,2.3,2.3l0,0V58c0,1.3-1.1,2.2-2.3,2.2h-0.5v0.4H67v-0.4h-0.4c-1.3,0-2.3-1-2.3-2.3l0,0V39.8
					c0-1.5,1.2-2.7,2.7-2.7c2.6,0,4.8,1.8,4.9,5c0,0.8-0.1,1.4-0.1,1.7c-0.6,3.3-3.5,4.1-5.2,4.1c-0.4,0-1,0-1.1,0v0.3
					c0.7,0.2,1.3,1,2,2.1s2,3,3.3,4.9s2.7,3.7,4.4,5.3c10.7,10.2,50.7,40.7,116.7,3c3-1.7,6.2-3,9.2-2.5c0,0,1.8,0.4,3.6,1.7
					c-1.2-0.7-1.6-4.1-1.6-4.1V40c0-1.3,1-2.5,2.3-2.7h0.1c3.5-0.5,6,1.5,6.1,5.6c0.1,3.5-1.6,5.6-3.3,6.1c-1.3,0.4-3,0-3.5-1.3
					l-0.3,0.2c0.4,1.9,1.9,2.9,3.8,3.2c4.2,0.9,9.4-2.1,9.2-8C217.1,37,211.7,35,205.5,35.8z"/>
				<path class="st2" d="M292.6,54c-1.1,3.6-3.4,5.8-7,5.8h-4.7V49.7h4.8c1.7,0.1,3,1.3,3,3.1v0.3h0.4v-8.3h-0.4v0.3
					c0,1.7-1.3,3-3,3.1l0,0h-4.8V37.8h6c2.2,0.1,3.5,1.5,3.5,3.7v0.4h0.4v-4.2l0,0v-1v-1c-0.7,0.3-2.7,0.6-4.3,0.7h-10.9l0,0h-2.9
					v0.4h0.5c1.2,0,2.2,0.9,2.3,2.1v20c0,1.2-1,2.3-2.3,2.3h-0.4l0,0c-1.9,0-2.9-0.8-4.4-2.7l0,0c-1.4-1.7-3.5-5.1-3.6-5.3
					c-0.8-1.3-2.1-2.7-3.7-3.2c4.1-0.4,5.9-3.8,5.9-6.8c0-5-4.2-6.8-8.5-6.8h-9.4l0,0H246l0,0h-2.6l0,0H241l0,0h-2.6v0.4h0.6
					c1,0,1.8,0.7,1.9,1.7v14.1c0,4.8-2.7,7.8-7.1,7.8c-4.3,0-7-3.2-7-8.3V38.4c0-1,0.9-1.7,1.9-1.7h0.6v-0.4H219v0.4h0.6
					c1,0,1.9,0.7,1.9,1.8v13.9c0,5.9,4,9.5,11.7,9.5c6.5,0,10.3-3.7,10.3-9.6v-14c0.1-1,0.9-1.7,1.9-1.7h0.6l0,0c0,0,0.4,0,0.5,0
					c1.3,0,2.3,1,2.3,2.3l0,0v19.9c0,1.2-1,2.2-2.3,2.2c0,0-0.4,0-0.5,0v0.4h10.9V61h-0.4c-1.3,0-2.3-1-2.3-2.3V37.8
					c0.4,0,1.8,0,2.7,0c2.4,0.1,4.1,1.6,4.2,5c0,0.7,0,1.3-0.1,1.7c-0.6,3.1-2.6,4.1-4.5,4.1c-0.5,0-1,0-1.1,0v0.3
					c0.9,0.2,1.8,0.9,2.4,2.4c0.4,1.1,2,4.6,3,6.1c1.8,2.8,4.5,3.7,8.4,3.7h3.5l0,0h18.6l1.7-7.3h-0.4V54z"/>
			</g>
			<circle class="st2" cx="300.3" cy="33.6" r="5.5"/>
			<g>
				<path class="st3" d="M297.8,35.5C297.8,35.5,297.7,35.5,297.8,35.5V32h-1.1h-0.1v-0.1v-0.2v-0.1h0.1h2.7h0.1v0.1v0.2V32h-0.1
					h-1.1v3.4v0.1h-0.1H297.8C297.8,35.6,297.8,35.6,297.8,35.5z"/>
				<path class="st3" d="M300.2,35.5L300.2,35.5v-3.8v-0.1h0.1h0.3c0.1,0,0.1,0,0.1,0.1l1.2,2.3l1.2-2.3c0-0.1,0.1-0.1,0.1-0.1h0.3
					h0.1v0.1v3.7v0.1h-0.1h-0.3h-0.1v-0.1v-2.8l-1,1.9c0,0.1-0.1,0.1-0.2,0.1h-0.2c-0.1,0-0.1,0-0.2-0.1l-1-1.9v2.8v0.1h-0.1H300.2
					C300.3,35.6,300.2,35.6,300.2,35.5z"/>
			</g>
		</g>
		<text transform="matrix(1 0 0 1 197.0756 69.2867)" class="st2 st4 st5">Eat Fresh with Self Dependence.</text>
		<path class="st6" d="M27.9,75.4c0.6,0,1.2-0.1,1.5,1c0.3,1-0.6,1.3-0.6,1.8c0,0.3,0.4,0.3,0.4,0.7c0,0.5-0.3,0.4-0.4,0.7
			c-0.1,0.3,0,1.1-0.4,1.5c0,0-0.1,0.1-0.2,0.1c-0.2,0.1-0.2,0.1-0.4,0.1c-0.2,0.1-0.2,0.1-0.5,0.1v-0.1l0,0
			c-0.1-0.2-0.3-0.1-0.6-0.3c-0.4-0.3-0.3-0.5-0.3-1.1c-0.1,0-0.8-0.1-0.8-0.8c0-0.6,0.5-0.6,0.2-1.3c-0.2-0.4-0.8-0.4-0.6-1
			c0.2-0.8,0.7-0.9,1.3-1c0,0.2-1,1.2-0.1,1.9c0.2,0.2,0.3,0.1,0.3,0.4c0,0.2-0.3,0.4-0.3,0.6c0,0.3-0.1,0,0.2,0.2
			c0.5,0.4,0.2,0.3,0.4,0.9v0.5c0.5,0,0.4,0,0.5-0.3c0.4-0.6,0.2-0.4-0.1-0.9c0.2-0.8,0.4,0,0.1-1.2c0.4-0.2,0.9-0.3,0.9-1.3
			C28.7,75.8,28.2,75.7,27.9,75.4L27.9,75.4z M9.1,54.2c0.2,0,0.4,0,0.5,0s0.3-0.1,0.5-0.1l-0.2-0.3C9.5,53.8,9.2,53.8,9.1,54.2
			L9.1,54.2z M14.2,45.3C14.2,45.3,14.3,45.2,14.2,45.3L14.2,45.3L14.2,45.3z M14.3,45.3h0.2l-0.2-0.2c-0.3-0.3-0.1-0.2-0.3-0.3
			c0,0.5-0.1,0.2-0.2,0.6H14c0,0.2,0,0.2,0.1,0.3c0.2-0.1,0.1-0.1,0.4-0.1c-0.1-0.2,0-0.1-0.1-0.1L14.3,45.3L14.3,45.3z M13.4,50.6
			c0.3,0.1,0.2,0.2,0.5,0.1c0.2,0,0,0,0.1,0c0.2-0.1-0.1-0.1,0.3-0.1v-0.3c-0.4-0.1-0.1-0.1-0.6,0.1C13.4,50.5,13.5,50.4,13.4,50.6
			L13.4,50.6z M14.9,39l0.2-0.2c-0.3-0.6-0.1-0.3-0.7-0.6C14.2,38.7,14.4,38.6,14.9,39L14.9,39z M12.1,71.1c0,0.4,0.1,0.1,0.1,0.5
			c0.4,0,0.6,0,0.7-0.3C12.8,71,12.4,70.9,12.1,71.1L12.1,71.1z M11.9,64.9c0-0.5-0.2-0.6-0.8-0.6c0,0.4,0,0.4,0.1,0.5
			C11.5,65,11.8,64.9,11.9,64.9L11.9,64.9z M10.5,42.5c0.3,0.1-0.1,0.2,0.2,0.4s-0.1-0.1,0.4,0c0-0.2,0.2-0.3-0.1-0.6
			c-0.1-0.2-0.2-0.2-0.4-0.2C10.7,42.4,10.6,42.3,10.5,42.5L10.5,42.5z M12.1,51.3c0,0.1,0.2,0.4,0.3,0.4s1.5-0.6,0.4-0.6
			C12.4,51,12.3,51.1,12.1,51.3L12.1,51.3z M17.3,41.7c0.1,1.3,1.1,0.1,0.4-0.4C17.4,41.6,17.5,41.6,17.3,41.7L17.3,41.7z
			 M10.9,52.2c0.3,0.3,0.2,0.3,0.4,0.3c1,0,0.7-0.8-0.2-0.5L11,52.1L10.9,52.2L10.9,52.2z M11.4,56.1c0.2,0.1,0.3,0.2,0.5,0.2
			s0.4-0.2,0.5-0.3l-0.3-0.4C11.7,55.7,11.4,55.8,11.4,56.1L11.4,56.1z M16.9,40.4l0.3,0.5c0.2,0.2,0.1,0.1,0.3,0.2
			c0.2-0.4,0.3-0.9-0.3-1C17.1,40.3,17.2,40.3,16.9,40.4L16.9,40.4z M9.8,66.3l0.1,0.2l0,0l0,0c0,0.1-0.2,0.1,0.2,0.2l0,0l0.7-0.1
			C10.8,66.3,10.3,66,9.8,66.3L9.8,66.3z M10.2,54.8V55c0.2,0.1,0.1-0.2,0.1,0.2c0.7,0,0.5,0,0.9-0.1C11.3,54.5,10.7,54.7,10.2,54.8
			L10.2,54.8z M10.4,40.4c0.1,0.1,0.1,0.2,0.3,0.3c0,0,0.1,0,0.1,0.1l0.1,0.2l0,0c0,0,0.5,0,0.3-0.5L11,40.2
			c-0.2-0.2-0.1-0.1-0.3-0.2C10.6,40.1,10.5,40.3,10.4,40.4L10.4,40.4z M13.5,57.6c0.3,0.4,0.9,0.3,1.1,0c0.1-0.2,0-0.1,0-0.2
			C14.5,57.3,14,56.9,13.5,57.6L13.5,57.6z M12.4,63.6c0.1,0,0.2,0.1,0.3,0.1c0.4,0.2,0.4,0.3,0.8,0.1c-0.1-0.4-0.9-1.1-1-0.5
			L12.4,63.6L12.4,63.6z M10.2,38.4c0.2,0.2,0.2,0.2,0.3,0.4c0.5,0,0.6,0.1,0.5-0.3c-0.1-0.3,0-0.2-0.2-0.4l-0.3-0.3
			C10.4,38,10.3,38.2,10.2,38.4L10.2,38.4z M9.9,53c0.1,0.2,0.6,0.5,1,0.2c0.2-0.2,0.1-0.1,0.2-0.4C10.8,52.8,10.2,52.6,9.9,53
			L9.9,53z M12.7,44.6c0.1,0.3,0,0.4,0,0.7c0.3,0.1,0,0,0.2,0.1s-0.2,0.1,0.5,0.1c0-0.4,0.1-0.5-0.1-0.7
			C13.2,44.7,13,44.6,12.7,44.6L12.7,44.6z M10,70.4c0,0.3-0.3,0.2,0.3,0.3c0.4,0.1,0.1,0.1,0.6,0v-0.5c-0.3-0.1-0.1-0.1-0.4-0.2
			c-0.2-0.1-0.2-0.1-0.4-0.1L10,70.4L10,70.4z M12.4,56.9c0.6,0.9,2-0.3,0.5-0.3C12.6,56.6,12.5,56.7,12.4,56.9L12.4,56.9z M16.2,39
			c0,0.3,1,0.9,1,0.5c0-0.3,0,0-0.1-0.3s-0.2-0.6-0.6-0.6C16.4,39.2,16.2,38.8,16.2,39L16.2,39z M12,44.5c0.1-0.4-0.3-0.6-0.6-0.6
			l-0.2,0.5c0.1,0.1,0.1,0.1,0.1,0.2l0.1,0.1c0.1,0.1,0,0.1,0.2,0.1c0.3,0.1,0.1,0,0.2,0C12,44.7,11.9,44.9,12,44.5L12,44.5z
			 M10.5,68.8c0.2,0,0.1,0,0.3-0.1c0-0.3-0.1-0.4-0.3-0.5C10.3,68,10,68,9.9,68c-0.2,0.1-0.1,0.3-0.1,0.5
			C9.9,68.6,10.3,68.8,10.5,68.8L10.5,68.8z M17,66.9c0,0.1,0,0,0.1,0.1c0.3,0.5,0.3,0.5,1,0.2v-0.4C17.2,66.7,17.7,66.4,17,66.9
			L17,66.9z M11.4,72.3c0-0.6-0.2-0.7-0.7-0.8c0,0.2-0.1-0.1,0,0.3l-0.3-0.1c0,0.3,0.1,0.4,0,0.6c0.4,0,0.2,0,0.5,0.1
			C11.2,72.4,11.1,72.3,11.4,72.3L11.4,72.3z M13.5,70.8c0.2,0.1,0.1,0,0.2,0.2c0.1,0.1,0,0.4,0.7,0c0.2-0.1,0.3-0.1,0.4-0.5
			c-0.4,0-0.7-0.2-1.1,0C13.5,70.5,13.5,70.5,13.5,70.8L13.5,70.8z M16.2,68.5c0.1,0.1,0.1,0.1,0.1,0.2c0.1,0.2,0.1,0,0.2,0.3
			c0.4,0,0.8-0.2,0.9-0.6l-0.2-0.2c-0.2-0.1-0.4-0.1-0.6,0.1S16.5,68.5,16.2,68.5L16.2,68.5z M14.9,69.8c0,0.6,0.2,0,0.3,0.5
			c1,0,0.9-0.5,1-0.7c-0.3-0.1-0.3-0.2-0.6-0.1C15.3,69.6,15.3,69.8,14.9,69.8L14.9,69.8z M16.9,45.6c0.4,0.6,0.7,0.5,1.3,0.2
			c0.5-0.3,0.3-1-0.2-1C17.7,44.7,17.1,45.3,16.9,45.6L16.9,45.6z M16.8,63.9c0,0.4,0.3,0.6,0.7,0.6c0.3,0,0.7-0.6,0.8-1
			C18.1,63.3,18,63,17.6,63C17.4,63,16.8,63.7,16.8,63.9L16.8,63.9z M12.5,61.5c-0.2-0.3,0-0.1-0.2-0.3c-0.5-0.3-1.6-0.8-2.3-0.8
			c-0.1,0.3-0.1,0.3-0.3,0.4c0.5,0.6,1.3,0.7,1.7,0.8C12.5,61.9,11.9,61.5,12.5,61.5L12.5,61.5z M13.3,67.9c2.7-0.1,1.3-2.5,0.1-1.6
			c-0.2,0.2-0.1,0-0.2,0.3C12.9,67.4,12.9,67.4,13.3,67.9L13.3,67.9z M13.7,41.7l-0.3-0.1c0,0.3,0,0.6,0.1,0.8s0.3,0.4,0.6,0.4
			c0.4,0,1.1-0.6,1.1-1c0-0.8-0.7-1-1.1-0.8C13.7,41.2,13.7,41.3,13.7,41.7L13.7,41.7z M23.8,45.9c0.8,0,1.1-0.8,1.4-0.8
			s1,0.7,1.5,0.7c0.9,0,1.6-0.6,1.9-0.7c0.7,0.5-0.1,0.1,1.1,0.8c1.5,0.8,1.7-0.5,2.3-0.6c0.4,0.3,0.6,1.1,1.3,0.7
			c-0.2-0.4-0.6-1.2-1.1-1.4c-0.1,0-0.4,0-0.6,0c-0.2,0.1-0.3,0.1-0.4,0.3C30,46.2,30,44.4,29,44.4c-0.9,0-1.3,0.5-2,0.6
			c-0.8,0.1-1.3-0.6-1.8-0.6c-0.7,0-1.1,0.7-1.5,0.7c-1.2,0-0.9-0.7-2.1-0.5c-0.3,0-0.3,0.1-0.5,0.2c-0.1,0.1-0.3,0.2-0.4,0.3
			c-0.3,0.3-0.3,0.5-0.5,0.8c1.7,0,1.4-0.9,2.4-0.4C22.8,45.6,23.3,45.9,23.8,45.9L23.8,45.9z M16.7,48.7c0,0.9,1.1,1.4,1.3,1.9
			c0.3,0.5-1,1.3-1,1.9c0,1.6,2,1.6,0.6,3.3c-0.5,0.7-1,0.7-0.2,2.4c0.7,1.5,0.5,0.9,0.1,2.1c-0.3,0.8,0,0.6,0,1.2
			c0.2-0.2,0.1,0,0.1-0.3c0.7-0.1,1.2-1.2,0.9-2.3c-0.1-0.5-0.9-1.5-0.9-1.8c0-0.8,1.9-1.3,0.7-3.2c-0.2-0.3-0.5-0.6-0.6-0.9
			c-0.1-0.2,0-0.4,0.2-0.5l0.3-0.4c0.2-0.3,0.4-0.8,0.4-1.2c0-1.3-0.7-1.3-1.2-1.6c0.1-0.4,0.1-0.5,0.4-0.8c0.2-0.3,0.2-0.5-0.1-0.7
			C17.1,47.2,16.7,48.1,16.7,48.7L16.7,48.7z M26.5,53c0,1.4,1.8,1.2,0.8,3.2c-0.7,1.2,0.1,1.8,0.5,1.8c0.1,0,0.4-0.2,0.6-0.2
			c1-0.6,1.5-2.2,1.6-3.3s-0.1-2.1-1.4-2.4c-0.5-0.1-0.8-0.1-1.3,0.1c-0.2,0.1-0.4,0.2-0.5,0.3C26.6,52.5,26.5,52.7,26.5,53L26.5,53
			z M37.5,64.1L37.5,64.1l-0.2,0.1C37.4,64.1,37.3,64.1,37.5,64.1L37.5,64.1z M37.1,63.9c0,0.4,0,0.1,0.2,0.5h0.4
			c-0.2-0.3-0.1,0-0.1-0.7C37.4,63.7,37.5,63.8,37.1,63.9L37.1,63.9z M31.1,67.8c0,0.3,0.1,0.4,0.3,0.6c0.1-0.2,0.2-0.2,0.1-0.5
			c0,0,0,0,0-0.1l-0.1-0.4C31.2,67.5,31.1,67.6,31.1,67.8L31.1,67.8z M23.4,68.5c0,0.4,0.1,0.2,0.2,0.6c0.1-0.1,0.1-0.1,0.3-0.1
			c0-0.4-0.1-0.5-0.1-0.8c-0.3,0-0.1,0-0.3,0.1c-0.3,0.3,0.2-0.2-0.1,0.1C23.4,68.5,23.5,68.4,23.4,68.5L23.4,68.5z M27.1,51
			c0,0.5,0,0.6,0.4,0.7l0.1-0.7l-0.3-0.2C27.1,50.8,27.1,50.8,27.1,51L27.1,51z M24.5,50.8c0,1.2,0.5,0.5,0.5,0
			c0-0.2-0.2-0.3-0.4-0.3C24.5,50.7,24.5,50.7,24.5,50.8L24.5,50.8z M27.9,50.9c0,0.7-0.1,0.7,0.4,0.7c0-0.2,0.1-0.9-0.2-0.9
			C27.9,50.7,27.9,50.7,27.9,50.9L27.9,50.9z M23.8,51.7c0.2-0.2,0.1,0,0.2-0.2s0.4-0.4-0.2-0.8c-0.2,0.2-0.2,0.2-0.2,0.5
			C23.6,51.4,23.6,51.6,23.8,51.7L23.8,51.7z M28.7,39.4c0,0.3,0.2,0.4,0.4,0.5c0.2-0.1,0.2-0.1,0.4-0.2l-0.3-0.4
			c-0.2-0.2-0.1-0.2-0.4-0.2C28.7,39.3,28.7,39.3,28.7,39.4L28.7,39.4z M28.9,71.6c0.3-0.2,0.2-0.1,0.2-0.8c0-0.2-0.1-0.2-0.2-0.3
			C28.6,70.8,28.5,71.4,28.9,71.6L28.9,71.6z M22.2,51.6c0,0.5,0.1,0.3,0.1,0.7h0.2c0.1,0,0.1,0,0.3,0
			C22.9,51.5,22.2,51.3,22.2,51.6L22.2,51.6z M35.7,41.3h-0.2c0,0.5-0.2,0.3,0.1,0.7c0.4-0.1,0.7-0.6,0.7-0.6c0-0.2,0-0.1-0.1-0.3
			C36,41.3,35.9,41.3,35.7,41.3L35.7,41.3z M22.8,51.3c0,0.4,0.2,0.5,0.5,0.6c0.4-0.6-0.1-0.9-0.4-1C22.8,51.3,22.8,51.1,22.8,51.3
			L22.8,51.3z M28.4,51.3c0,0.2,0.2,0.4,0.3,0.4c0.2-0.1,0.6-0.8,0.1-1.1C28.5,50.8,28.4,51.1,28.4,51.3L28.4,51.3z M26.3,38.2
			l0.4,0.1c0.1-0.2,0-0.1,0.2-0.2c0-0.3,0-0.2-0.1-0.4l-0.2-0.4c-0.6,0.1-0.3,0.5-0.3,0.6C26.3,38,26.2,37.8,26.3,38.2L26.3,38.2z
			 M36.8,39.4c0,0.2,0.2,0.4,0.3,0.4l0.2-0.2c0,0,0.4-0.2,0.4-0.3c0-0.2,0-0.1-0.1-0.3c-0.3,0.1-0.3,0.1-0.6,0
			C37,39.1,36.8,39.4,36.8,39.4L36.8,39.4z M30.5,69.1c0,1.2,0.6,0.9,0.6,0.3L31,69.1c-0.1-0.2,0-0.1-0.1-0.3
			C30.6,68.9,30.8,69,30.5,69.1L30.5,69.1z M35,69.3c0,0,0.3,0.8,0.6,0.6c0.2-0.1-0.1-0.9-0.1-1C35.3,69,35.2,69.1,35,69.3L35,69.3z
			 M29.6,70.2c0,0.4,0.1,0.6,0.3,0.8c0.5-0.3,0.3-1,0-1.2C29.8,70,29.8,70.1,29.6,70.2L29.6,70.2z M35.3,42.7c0,0.6,0.8,0.1,0.8-0.2
			c0-0.2,0-0.1-0.1-0.3C35.4,42.3,35.3,42.3,35.3,42.7L35.3,42.7z M36.5,70.2c0,0.2,0.1,0.3,0.3,0.4c0.1,0.1,0,0.1,0.2,0.1
			c0.5,0.2,0.3-0.7-0.1-1C36.8,69.8,36.5,70.2,36.5,70.2L36.5,70.2z M29.4,52.2c0.4-0.4,0.4-0.2,0.4-1
			C29.7,50.6,28.8,51.4,29.4,52.2L29.4,52.2z M24.1,69.7c0.2,0.9,0.6,1.1,0.6,0.7c0-0.6,0-0.5-0.1-1C24.2,69.4,24.3,69.4,24.1,69.7
			L24.1,69.7z M36,40c0,0.3-0.1,0.3-0.1,0.4c0.1,0.2,0.1,0.2,0.1,0.4c0.3-0.1,0.2-0.1,0.5-0.1c0-0.4,0.1-0.2,0.1-0.7
			C36.4,40,36.4,40,36,40L36,40z M27.6,71.3c0.1,0.5,0.1,0.5,0.5,0.7c0.5-0.8-0.1-1-0.3-1.1C27.7,71.1,27.7,71.1,27.6,71.3
			L27.6,71.3z M34.5,67.6c0,0.4,0.2,0.5,0.5,0.6c0.3-0.6,0.3-0.7-0.2-1C34.7,67.2,34.5,67.4,34.5,67.6L34.5,67.6z M25.1,38.5
			c0,0.2,0.2,0.4,0.4,0.4c0.3,0,0.2-0.2,0.2-0.5c0-0.1,0.1-0.5-0.1-0.5c-0.1,0-0.3,0.1-0.4,0.2C25.2,38.2,25.1,38.3,25.1,38.5
			L25.1,38.5z M23.6,39.6v0.3c0.5,0.3,0.5,0.4,0.5-0.4c0.4,0,0.1,0.1,0.3-0.2c-0.3-0.3,0-0.2-0.6-0.2C23.8,39.3,23.6,39.4,23.6,39.6
			L23.6,39.6z M25.2,70.7c0.1,0.3,0.1,0.4,0.2,0.7h0.4c0.1-0.3,0.1-0.4,0.1-0.7c-0.2-0.2-0.2-0.2-0.5-0.3
			C25.4,70.6,25.3,70.5,25.2,70.7L25.2,70.7z M26.5,71.3c0,0.2,0.2,0.7,0.4,0.7c0.2,0,0.2-0.1,0.4-0.2v-0.6C27,71.1,26.9,71,26.6,71
			C26.5,71.2,26.5,71.2,26.5,71.3L26.5,71.3z M25.2,50.6c0,0.6-0.2,0.5,0.1,1c0.6-0.3,0.6-0.4,0.4-1.2
			C25.4,50.5,25.5,50.5,25.2,50.6L25.2,50.6z M27.4,38.2c0,0.3,0,0.3,0.1,0.5l0.3,0.2l0,0l0.4-0.2C28.1,38,27.4,37.7,27.4,38.2
			L27.4,38.2z M26.2,52c0.3-0.1,0.2,0,0.4,0c0.3-0.1,0.2-0.2,0.2-0.6c0-0.4-0.1-0.5-0.4-0.7C25.9,51.1,26,51.2,26.2,52L26.2,52z
			 M26.6,30.8c0.5-0.3,0.5-0.5,0.5-1c0-0.3-0.3-0.3-0.5-0.4c-0.1,0.4-0.3,0.1-0.3,0.7C26.3,30.5,26.4,30.6,26.6,30.8L26.6,30.8z
			 M34.5,45.5c0,0.5,0.2,0.6,0.6,0.5c0.7-0.1,0.9-0.1,0.7-0.8C35.7,45.1,34.5,45,34.5,45.5L34.5,45.5z M34.5,64.2
			c0,0.3,0.3,0.4,0.6,0.5c0.9,0.5,0.9-0.4,0.5-0.8c-0.2-0.2-0.4-0.2-0.7-0.3C34.7,63.8,34.5,63.9,34.5,64.2L34.5,64.2z M32.6,36.7
			c0,1,0.7,1.6,0.7,2.5c0.3-0.2,0.1-0.1,0.2-0.4c0.1-0.2,0.1-0.2,0.2-0.4c0.6-0.8,0.1-1.4-0.4-2l-0.1-0.2c-0.1-0.1,0-0.1-0.2-0.1
			S32.6,36.4,32.6,36.7L32.6,36.7z M45.8,36.2c0.5-0.3,0.1-0.3,0.6-0.6l0.2,0.7c0.1-0.3,0.1-0.1,0-0.4h1.3c0.4-0.9,0.4-0.1,0.4-0.9
			c0-0.2,0-0.3-0.1-0.4c-0.3-0.3-0.7-0.2-1.1-0.2C46.4,34.4,45.8,35.4,45.8,36.2L45.8,36.2z M38.9,49.8c0,0.5,0.1,0.3,0.3,0.4
			c0.2,0.1,0,0.1,0.1,0.1C39.8,50.3,38.9,49.1,38.9,49.8L38.9,49.8z M39.7,64.4l0.2,0.4c0.1,0.1-0.1,0.2,0.4,0.2
			c0.1-0.4,0.1-0.5-0.1-0.8C40,64.2,40.1,64.3,39.7,64.4L39.7,64.4z M42.5,40.4h-0.2l0.1,0.7c0.5-0.1,0.6-0.3,0.5-0.8
			C42.7,40.4,42.7,40.4,42.5,40.4L42.5,40.4z M40.3,50.2c0.4,0.8,0.5,0.6,0.7,0.4c-0.1-0.3-0.2-0.4-0.3-0.7h-0.3
			C40.4,50.1,40.4,50,40.3,50.2L40.3,50.2z M37.8,57.9c0,0.4,0.8,0.1,0.8,0.1c0.1,0,0.2-0.2,0.2-0.3c0-0.2-0.5-0.3-0.8-0.1
			C37.9,57.8,37.8,57.8,37.8,57.9L37.8,57.9z M38.3,64.2v0.2c0.2,0.1,0.1,0,0.1,0.3c0.3,0,0.7,0.2,0.6-0.2v-0.1c0,0,0.1-0.3-0.4-0.4
			C38.5,64.2,38.5,64.1,38.3,64.2L38.3,64.2z M42.2,69.9c0.4,0,0.6-1.2-0.2-0.7c-0.2,0.1-0.2,0.2,0,0.5C42,69.7,42,69.9,42.2,69.9
			L42.2,69.9z M41,65.4c0,0.3,0.7,1.2,0.7-0.1C41.6,64.9,41,65.3,41,65.4L41,65.4z M41.6,67.3c0.1,0.4,0.1,0,0.1,0.6h0.4
			c0.1-0.3,0.2-0.5,0.1-0.8c-0.3,0-0.2,0-0.5,0.1L41.6,67.3L41.6,67.3z M42.5,54.8c0,0.2,0.1,0.1,0.1,0.4c0.3,0,0.4-0.1,0.5-0.3
			l0.2,0.2c0.1-0.2,0.1-0.3,0.2-0.5c-0.2,0-0.1,0-0.3,0C42.9,54.4,42.5,54.6,42.5,54.8L42.5,54.8z M42.7,39.1c0.6,0,0.8-0.8,0.4-0.9
			h-0.4C42.6,38.6,42.7,38.8,42.7,39.1L42.7,39.1z M38.4,38.4l0.2,0.3c0.2,0,0.4-0.1,0.6-0.2c0.3-0.1,0.3-0.3,0.3-0.5
			c-0.5,0.1-0.5,0-0.8,0C38.6,38.2,38.5,38.2,38.4,38.4L38.4,38.4z M42.7,53.6c0,0.5,0.4,0,1,0.1c0-0.2,0-0.3,0.1-0.4
			c-0.2,0-0.4-0.1-0.6-0.1c-0.1,0.1-0.1,0.1-0.3,0.2C42.7,53.4,42.7,53.4,42.7,53.6L42.7,53.6z M38.8,45.2c0.4,0.7,0.6,0.3,0.6,0.3
			c0.3-0.2,0.3-0.3,0.3-0.6c-0.5,0-0.3-0.1-0.7-0.1C39,45.2,39,44.9,38.8,45.2L38.8,45.2z M39.1,57.8c0,0.2,0.2,0.3,0.4,0.3
			c0.1,0,0-0.1,0.3-0.2c0.3-0.1,0.4,0,0.5-0.4c-0.1-0.1-0.5-0.1-0.6-0.1C39.4,57.4,39.1,57.6,39.1,57.8L39.1,57.8z M42.2,52.7
			l0.2,0.2c0.2,0,0.4-0.3,0.5-0.4c0.2-0.2,0.2,0,0.2-0.5h-0.6C42.4,52.3,42.3,52.3,42.2,52.7L42.2,52.7z M41.4,71.6
			c0.4,0,0.3,0,0.5-0.2c0.3-0.2-0.1-0.1,0.2-0.2c0-0.4-0.1-0.4-0.6-0.4C41.5,70.8,41.1,71,41.4,71.6L41.4,71.6z M39.9,70.9
			c0,0.4-0.2,0.1,0,0.5l0.1,0.1c0.1,0.1,0.1,0.1,0.2,0.2c0.4,0.1,0.4-0.5,0.4-0.8l-0.2-0.2C40.1,70.8,40.3,70.9,39.9,70.9L39.9,70.9
			z M41.5,50.7c0,0.1,0,0.2,0,0.3c0.1,0.6,0.1,0.7,0.5,0.7c0.1-0.4,0.1-0.5,0-0.9C42,50.3,41.9,50.6,41.5,50.7L41.5,50.7z
			 M40.3,44.9c0.1,0.2,0.1,0.2,0.3,0.3c0,0.3,0.8-0.3,0.7-0.6c-0.1-0.2,0.1-0.1-0.7-0.2c0,0.1-0.1,0.2-0.1,0.3
			C40.4,44.8,40.4,44.8,40.3,44.9L40.3,44.9z M38.1,70.9c0,0.3,0.1,0,0.1,0.4c0.3,0,0.3,0.1,0.7,0.1l-0.2-0.8
			C38.4,70.2,38.1,70.9,38.1,70.9L38.1,70.9z M40.4,57.1c0.1,0.1,0.1,0.1,0.1,0.3c0.5,0,0.5-0.2,0.7-0.3c0.3-0.2,0.4,0,0.4-0.3
			C41.6,56.4,40.8,56.5,40.4,57.1L40.4,57.1z M40.9,38.2c0.4-0.1,0.9-0.1,0.9-0.8c-0.6,0-0.7-0.2-0.9,0.2
			C40.7,37.8,40.8,37.9,40.9,38.2L40.9,38.2z M42.5,37.5c0,0.2,0,0.2,0.1,0.4h0.6c0.6-0.8,0.4-0.8-0.4-0.8
			C42.7,37.2,42.5,37.3,42.5,37.5L42.5,37.5z M41.8,56.1c0,0.5,0.7,0.2,0.9,0.1h0.1c0.2-0.7,0.1-0.5-0.5-0.7
			C42.1,55.6,41.8,55.8,41.8,56.1L41.8,56.1z M50.7,55.6l0.5,0.1c0.3,0.1-0.2,0.1,0.3,0.1c0.2,0,0.7-0.4,0.7-0.5l-0.1-0.1
			c-0.3-0.3-0.8-0.4-1.2-0.4C50.8,54.9,50.7,55.4,50.7,55.6L50.7,55.6z M46.3,70.2c0.2,0.5-0.2,0.1,0.4,1c0.1,0.2,0,0.1,0.2,0.2
			c0.3,0.2,0.9,0.5,1.3,0.4c0-0.2-0.1-0.3-0.2-0.5c-0.4-0.5-0.4-0.5-0.7-0.6s-0.3-0.1-0.5,0v-0.1C46.8,70.3,46.5,70.2,46.3,70.2
			L46.3,70.2z M38.2,41.7l0.1,0.4c0.4,0.2,0.7,0.1,1.1-0.1c0,0,0.1,0,0.1-0.1c0.1-0.1,0,0,0.1-0.1c0.2-0.1,0,0.1,0.2-0.1
			c0.1,0,0.6-1.1-0.5-1.1c-0.3,0-0.5,0.1-0.7,0.3l0,0c-0.1,0.1,0,0-0.1,0.1C38.2,41.4,38.2,41.4,38.2,41.7L38.2,41.7z M38.6,68.8
			c0.2,0,0.4-0.1,0.6-0.2c0.7-0.4,0.2-1.3-0.1-1.5c-0.2-0.1-1.7-0.7-1.4,1c0.1,0.5,0.1,0.2,0.6,0.5C38.5,68.7,38.4,68.8,38.6,68.8
			L38.6,68.8z M41,35c0.4,0,0.7-0.2,1-0.4c1.7-0.8,0.9-1.6,0.7-2.4c-0.5,0-0.5,0.1-0.7,0.4c-0.5,0.7-0.1,0.9-0.5,1.8
			C41.3,34.7,41.2,34.7,41,35L41,35z M34.2,35c0,0.6,0.1,0.7,0.2,1.1c0.1,0.5,0,0.8,0.1,1.2c0.1-0.1,0.9-1.2,1-1.5
			c0.3-0.9-0.2-1.3-0.5-1.9C34.7,34.2,34.2,34.6,34.2,35L34.2,35z M22.5,54.1c0,0.9,0.1,0.9,0.3,1.8c0.1,0.5,0.2,0.9,0.5,1.3
			c0.2,0.2,0.7,0.6,1.1,0.5c1.5-0.5,0.2-2.2,0.2-2.3c0-0.2,0.1-0.5,0.2-0.7c0.2-0.4,0.3-0.3,0.7-0.7c1-1,0.1-2.3-0.6-2.3
			C23.5,51.7,22.5,52.5,22.5,54.1L22.5,54.1z M46.3,72.6L46.3,72.6L46.3,72.6L46.3,72.6z M36.6,67.1c0-1.6,0.2-1.3,0.9-1.2
			c1.9,0.3,1.9,0.2,2.6,1.2c0.6,0.9,0.3,2.1,0.6,2.5c-0.3,0-0.3,0-0.5,0c-0.6,0-0.8,0.1-1.7-0.2c-0.4-0.1-0.6-0.2-1-0.4
			c-0.4-0.3-0.4-0.3-0.6-0.8C36.8,68,36.6,67.4,36.6,67.1L36.6,67.1z M12,69.2c0-0.4,0.1-0.4,0.1-0.7c0-0.5-0.1-1.4,0.3-2
			c0.1-0.2,0.2-0.2,0.3-0.4c0.4-0.6,1.2-0.6,1.9-0.6c1.3,0,1.3,0,1.3,0.4c-0.1,1-0.3,1.2-0.8,2C14.6,68.6,13,69.1,12,69.2L12,69.2z
			 M30.2,66.6c0,0.4,0,0.7-0.2,0.9c-0.4,0.5,0.2-0.4-0.1,0.1c-0.1,0.1-0.7,2.2-2.4,2c-0.6-0.1-1.5-0.4-1.8-0.7
			c-0.3-0.3-1-1.1-1.1-1.4l-0.2-2.1h1.1v0.7c0,0.9,0.8,1.8,1.3,2c0.3,0.1,0.5,0.2,0.8,0.1c1.2-0.4,1.5-1.1,1.2-2.3
			c0-0.2-0.1-0.2-0.1-0.4l1.6,0.1C30.2,66.1,30.2,65.8,30.2,66.6L30.2,66.6z M27.2,67.6c-0.9,0-1-1.1-1.1-1.5c0-0.3-0.2-0.4-0.3-0.6
			c0.5,0,0.9,0,1.4,0s0.8-0.1,0.9,0.4C28.3,66.8,28.3,67.6,27.2,67.6L27.2,67.6z M23.1,65.5c0.1,0,0.3-0.1,0.4-0.1
			c0.7,0-0.4,1,0.6,2.7c2.2,3.6,6.8,2.3,6.8-1.5c0-0.7,0-0.5-0.1-1h0.5c0.1,0.2,0.1,0.2,0.2,0.5c0.2,0.6,0.4,0.4,0.4,1
			c0.1,1.6-0.8,3.3-1.8,4.4c-0.3,0.3-0.1,0.3-0.2,0.4L29.7,72c-0.2,0.2-0.3,0.3-0.2,0.6c-0.2-0.1-0.2-0.1-0.4,0l-0.8,0.9
			c-1,1.3-0.5,1.2-0.9,1.3c0-0.5-0.4-1.2-0.7-1.5l-1-1.1c-0.7-0.7-1.2-1-2-2.3C22.2,67.8,23.1,66.8,23.1,65.5L23.1,65.5z M8.4,74.8
			c-0.2-0.4-0.3-2.3-0.3-2.9c-0.2-1.9-0.4-3.8,0.1-5.7c0.1-0.5,0.8-1.8,1.2-2.1c0,0.3-0.1,0.3-0.2,0.6C9,64.8,9,65.1,8.9,65.2
			C8.4,67,8.7,69.1,9,70.8c0.1,0.6,0.1,0.9,0,1.4c-0.1,0.9-0.2,1-0.2,1.3c0.4,0,0.5-0.1,0.8-0.2c1.1-0.3,2.7,0.3,5-0.7
			c0.2-0.1,0.4-0.2,0.6-0.3c1.1-0.4,2.7-1.5,3.3-2.4c0.2-0.4,0.3-1,0.6-1.2c0,0.6-0.1,0.6-0.2,0.8c-0.1,0.2-0.2,0.5-0.3,0.7
			c-0.1,0.2-0.2,0.5-0.4,0.7l-1,1.1c-0.5,0.6-1.3,0.9-1.9,1.2c-0.5,0.2-0.3,0.2-0.8,0.3c-0.4,0.1-0.4,0.2-0.8,0.2L10,74.3
			C9.3,74.5,9,74.6,8.4,74.8L8.4,74.8z M19,69.1L19,69.1L19,69.1L19,69.1z M41.2,68.2c0-0.2-0.1-0.2-0.1-0.4c0-0.3-0.1-0.5-0.2-0.8
			c-0.1-0.3-0.2-0.5-0.4-0.7c-0.2-0.3-0.9-0.8-1.2-0.8c-0.9-0.2-1.9-0.2-2.8-0.2c0-0.3-0.1-0.2-0.1-0.7c0-0.2,0-0.3,0-0.4
			c0-0.2-0.1-0.2,0-0.4l0.1-0.4c0.1-0.7,0.2-0.5,0.3-0.5H37l0,0c0.3,0-0.1-0.1,0.2,0c0.4,0.1-0.1,0.2,0.6,0.1c1.1-0.1,0.5,0,1.1,0.2
			c0.4,0.2,0.5-0.2,1.9,0.3c1,0.3,1.5,1.3,1.8,2.2c0.3,0.8,0.5,2.4,0.5,3.4c0,0.4,0.1,1,0.1,1.5c0.1,1.1,0.2,0.8,0.3,1.3L42.6,72
			c-0.2,0,0.1,0-0.2,0c-0.9,0.1-0.4,0-1,0h-1.5c-1.3,0-0.3,0.1-1.4-0.1c-1.2-0.2-1.9-0.7-2.8-1.2c-2-1.2-1.3-3.1-1.3-4.5
			c0-0.7,0.2-0.5,1-0.5c0.4,0,0.5-0.2,0.5,0.2c0.1,1-0.4,2.1,0.8,3.3c0.4,0.4,1.2,0.8,1.9,0.9l2.1,0.2c0.1,0,0.2-0.3,0.7,0.1
			c0-0.5,0-0.6-0.1-1C41.2,68.9,41.3,68.4,41.2,68.2L41.2,68.2z M44.2,69.8L44.2,69.8C44.2,69.7,44.2,69.7,44.2,69.8
			c0.4-0.7-0.5-3.8-0.8-4.4c-0.1-0.4-0.6-1.2-0.8-1.4c-0.2-0.2-0.4-0.4-0.4-0.6c0.3,0.1,0.4,0.1,0.6,0.3c0.2,0.1,0.3,0.2,0.5,0.3
			c0.2,0.2,0.2,0.3,0.5,0.4c0.7,0.5,1,1.4,1.1,2.2c0,0.1,0,0.4,0.1,0.6c0.1,0.5,0,1.1,0.1,1.6c0.1,0.9-0.1,2.3,0.2,3.2
			c0,0.2,0,0.1,0.1,0.3c0.1,0.4,0.3,0.7,0.3,0.9c-0.6-0.1-2.8,0.1-3.5,0.2c-0.2,0-0.6,0-0.8,0c-0.1,0,0.1,0-0.2,0.1
			c-0.1,0-0.1,0-0.2,0c-0.7,0-2.1-0.1-2.6-0.3c-0.1,0-0.1,0-0.2-0.1c-1-0.3-1-0.2-2-0.9c-0.6-0.4-1.7-1.2-1.7-2
			c0.2,0.2,0.6,0.7,0.8,0.9l0.8,0.4c0.8,0.5,2.2,0.9,3,0.9s1.4,0.2,2.1,0.2c1,0,0.5,0,0.7-0.5c0.3,0.2,0.1,0,0.1,0.4
			c0.5,0,1,0.1,1.6,0c0.2,0,0.1-0.1,0.3-0.1s0.2,0.2,0.9,0c-0.4-0.7-0.1-0.3-0.1-0.8s-0.1-0.7-0.1-1C44.4,70.1,44.5,70,44.2,69.8
			L44.2,69.8z M34.3,64.1c0-0.3,0.1-0.3,0.1-0.6c0-0.1-0.1-0.3-0.1-0.5h1.2c0.5,0,0.6-0.1,0.6,0.4c0,0.8-0.3,1.2-0.1,1.9
			c-0.3,0-0.6,0-0.9,0c-0.2,0-0.5-0.1-0.8-0.1v-0.8C34.3,64.1,34.3,64.4,34.3,64.1L34.3,64.1z M9.3,66.5c0-0.9,0.8-2.4,1.3-2.9
			c0.8-0.9,1.6-1.2,2.9-1.2l2.4,0.1l-0.1,2.4c-0.5,0-0.7-0.1-1.3-0.1c-0.8,0-1.6,0.2-2.2,0.6c-0.1,0.1-0.2,0.1-0.3,0.2
			c-0.8,1-0.7,2.5-0.8,3.6c0,0.2,0,0.1,0,0.4c0,0.4-0.1,0.4,0.1,0.4l1.1-0.2c0.9-0.2,1.4-0.3,2.2-0.8c0.4-0.2,0.9-0.6,1.2-1.1
			c0.2-0.5,0.6-1.1,0.6-1.6c0.1-0.6-0.2-1,0.4-1c0.9,0.1,1.8-0.3,1.8,0.2c0,1.7,0.1,1.1-0.4,2.8c-0.2,0.6-0.3,0.8-0.7,1.3
			c-1.1,1.5-3.1,2.3-4.9,2.7c-1.2,0.2-0.9,0.1-1.6,0.2c-0.5,0.1-1.1,0.1-1.6,0.2c0-0.3,0-0.4,0.1-0.6v-0.3v-0.6c0,0,0-0.2,0-0.3
			C9.7,69.3,9.3,68.4,9.3,66.5L9.3,66.5z M19.5,62.5l3.7,0.1c1.2,0,3.5-0.1,4.4,0l2.7,0.3c0.5,0,0.9,0.1,1.4,0.1l1.9-0.1v1
			c0,0.2,0,0.1,0,0.4c0,0.3,0,0.6,0,0.8L31,65c-0.9,0-1.8,0-2.7,0c-1,0-1.5-0.1-2.5-0.1c-0.5,0-0.9,0-1.4,0c-0.8-0.1-0.5,0-1.1,0
			l-3.2-0.1c-0.8,0-0.7,0-0.7-0.7c0.3,0.1,0.2,0.2,0.5,0.3c1.5,0.6,2.4-0.7,2.9-0.7c0.8,0,1,0.9,2,0.9c1.1,0,1.8-1.7,3.5-0.6
			c0.3,0.2,0.5,0.5,1,0.5c1.1,0,1.5-0.6,2.1-0.5c0.5,0.1,0.5,0.2,1,0.4c0,0,0,0,0.1,0h0.4c0.3,0,0.3-0.1,0.5-0.1
			c-0.1-0.2-0.2-0.4-0.4-0.5l-0.3-0.2c-1.8-0.9-2.5,0.2-3,0.2s-0.7-0.4-1.5-0.7c-2.2-0.7-2.6,1.8-4.2,0.3c-1.1-1.1-2.2,0.4-2.7,0.4
			c-1,0-0.8-0.6-1.2-0.6c-0.6,0-0.5,0.2-0.6,0.1c-0.1-0.1,0-0.2,0-0.5L19.5,62.5L19.5,62.5z M16.6,64.6c0-0.5,0-0.8,0.1-1.2
			c0.2-1.2-0.7-1.1,2.3-0.9l-0.1,2.4h-0.7c-1,0.1-0.8,0-1.5,0L16.6,64.6L16.6,64.6z M36.9,59.3c0.2-0.3-0.1-0.3,0.7-0.1
			c0.2,0.1,0.5,0.1,0.8,0.1c1,0,1.7,0.1,2.7-0.2c0.5-0.2,1.7-0.9,1.9-1c-0.3,0.4-2,1.3-2.4,1.5c-0.3,0.1-0.6,0.2-1,0.2
			c-1.3,0-1.3,0.1-2-0.3C37.2,59.2,37.3,59.4,36.9,59.3L36.9,59.3z M0.7,53c0-1.2,1.4-1.3,2.1-0.3c-0.1,0-0.1,0-0.2,0.1
			c-0.3,0.1-0.6,0.4-0.8,0.6C2,53.5,1.7,53.5,2,53.5c0.8,0,0.4,0,1-0.1C3.2,54,4,54,4.3,53.5c0.2-0.4-0.2,0.3,0.1-0.1l0,0l0,0
			c0.5,2.1,2.2,0.5,2.3,0.4c0,0.3-0.3,0.7-0.4,0.8c-0.6,0.7-1.5,0.4-1.7,0.1l-0.1-0.2l0,0c-0.6,0-0.6,0.8-1.4,0.1l0,0l-0.4-0.3l0,0
			L2.6,54c-0.3,0-0.3,0.2-0.7,0.2S0.7,53.9,0.7,53L0.7,53z M37.1,54.7c0-0.3,0.1-0.5,0.1-1c0-0.6-0.1-0.7,0.3-0.6
			c0.2,0,0.7,0.1,0.9,0.1c0.8,0.3,0.3,1.5-0.6,1.5H37.1L37.1,54.7z M15.9,55c-0.5-0.1-0.9-0.6-0.9-1s0.3-1,0.9-1.1V55L15.9,55z
			 M53.1,55.3c-0.1,0.8-1,1.6-1.6,1.5c-0.1,0-0.4-0.2-0.8-0.2c0,0.1,0,0.1-0.1,0.1L50.4,57c-0.5,0.5-0.9,0.1-1.2-0.3
			c-0.1-0.1,0.2-0.1-0.2-0.1c-0.2,1-1.9,1.4-2.6,0.3c-0.2-0.3-0.3-1-0.2-1.3c0.6,0.4,0.4,1,1,1c0.5,0,0.6,0,1-0.4
			c0.5-0.5,0-0.2,0.6-0.5c0.2,0.1,0.3,0.3,0.4,0.3c0.6,0,1-0.6,0.9-1.1c-0.1-0.2-0.2-0.5-0.5-0.5c-0.4-0.1-0.8,0.3-0.8-0.3
			c-0.5,0-0.4,0-0.5-0.3c-0.4,0-0.7-0.1-1.1,0c-0.2,0.1-0.9,0.7-0.9,0.2c0-0.6,0.4-1.5,1-1.5c0.8,0,1.4,0.7,1.5,1.1
			c0.5,0,0.2-0.2,0.5-0.2c0.6,0,0.8,0.1,1.2,0.7c1,0,1.3,0.1,1.9,0.7C52.9,55.3,52.7,55.1,53.1,55.3L53.1,55.3z M7.3,53.3
			c0.3,0,0.9-0.3,1.1-0.4c0.2-0.1,0.3-0.2,0.5-0.3l0.3-0.2c1-0.3,0.7-0.4,1.4-0.8l2.4-1.4c1-0.5,1.7-0.6,2.9-0.6
			c0,0.4,0.1,0.6,0.1,1.1c-0.3-0.2-0.3-0.2-0.7-0.1c-1.3,0.2-1.4,0.7-2,1.3l-0.4,0.5c-0.2,0.3-0.3,1-0.3,1.3c0,0.9,0.5,1.7,1.1,2.2
			c0.9,0.8,1,0.8,2.3,1.1c0,0.3,0,0.6,0,1c0,0.3,0.2,0.7-0.1,0.7c-0.6,0-1.1-0.1-1.7-0.3L12.9,58c-0.5-0.3-0.6-0.3-1-0.7
			c-0.2-0.1-0.4-0.2-0.5-0.3L10,55.8c-0.1-0.1-0.1-0.1-0.2-0.2l-1.1-1.1c-0.1-0.1-0.3-0.2-0.5-0.4s-0.7-0.6-1-0.6v-0.2H7.3z
			 M13.3,53.7c0-0.8,0.4-1.5,0.8-1.8c1.1-0.8,1-0.6,1.9-0.6c0,0.4,0.1,0.5,0.1,0.9c-0.4,0.2-0.9,0.3-1.2,0.6c-1,0.9-0.7,2.8,1.1,2.9
			v0.5c-0.2-0.1-0.7-0.1-1.1-0.3C14.2,55.7,13.3,54.7,13.3,53.7L13.3,53.7z M4.5,51.9c0.1-0.3,0.1-0.4,0.4-0.6
			c1-0.7,2.2,0.1,2.2,1.5H6.8c-0.3-1.3-2-1.2-2.2-0.1c-0.6,0-0.4-0.4-0.8-0.2c-0.3,0.1-0.3,0.4-0.5,0.6C2.9,53,3,52.8,2.9,52.5v-0.3
			c0-0.4,0.2-0.7,0.5-0.9C3.9,51.3,4.1,51.7,4.5,51.9L4.5,51.9z M37.4,52.3c-0.3-0.1,0-0.1-0.2-1c0.1-0.1,0.9-0.1,1.3-0.1
			c2.4,0.1,2.7,3,1.5,4.2l0,0l-0.2,0.2c-1.1,1-1.8,0.6-2.8,0.5v-0.7c0.7,0.1,1.3,0.1,2-0.4s0.9-1.4,0.3-2.1
			C38.6,52.1,38,52.5,37.4,52.3L37.4,52.3z M41.3,49.8c0.5,0.2,0.9,0.4,1.2,0.8c0.1,0.1,0.2,0.2,0.3,0.3c0.4,0.3,0.9,1,1.2,1.4
			c0.4,0.6,0.2,0.3,0.5,0.4c0,0.8,1,1.5,1.3,2c-0.2,0.3-0.2,0.2-0.5,0.4c-0.4,0.2-0.8,0.5-1.1,0.8C44.1,56,44.1,56,44.1,56l-0.7,0.6
			c-1.2,1.2-3.4,2.3-5.3,2c-1.7-0.2-1.1-0.5-1.1-1.7c1.2,0.3,2.1,0.3,3-0.4c0.6-0.4,1.5-1.4,1.5-2.4c0-0.7-0.1-1.6-0.5-2.1
			c-0.7-1.1-1.1-1.5-2.8-1.6c-1.2,0-0.9,0.5-0.9-0.8C38.9,49.5,39.5,49.1,41.3,49.8L41.3,49.8z M20.3,56.3c0-0.3,0.4-0.8,0.4-1.4
			c0-0.8-0.3-0.3-0.2-2c0.1-1-0.4-1.3-0.4-1.8s0.3-0.4,0.3-0.7c0-1.2-0.5-1.3,0.3-2c0.2-0.2,0.4-0.2,0.8-0.2l0.1,0.2
			c-0.1-0.4,0-0.2,0.6-0.3c0.3,0,0.4-0.2,0.8-0.2c0.5,0,0.7,0.1,1.1,0.1s0.7-0.1,1.3-0.1c0.4,0,0.5,0.1,0.9,0.1s0.7-0.1,1.3-0.1
			c1,0,1.2,0.3,2.4,0.1c0.6-0.1,1.1,0.2,2.3,0.2v0.7c0,0.1,0,0.1,0.1,0.3c0.3,1.2,0,0.8-0.1,1.5c-0.1,0.6,0.4,1.1,0.2,1.8
			c-0.1,0.2-0.3,0.5-0.3,0.8c0,1.3,0.4,1.2,0,2.1c-0.3,0.8,0.1,1.2,0.1,1.8S32,58,32,58.5c0,0.2,0,0.2,0,0.3c0,0.3,0-0.1,0,0.2
			s0.1,0.2,0.1,0.5c0,0.5-0.3,0.9-0.3,1.5c-0.6,0-0.7-0.1-1.2-0.1c-0.6,0-1.5,0.2-2.4,0.2h-1.3c-0.4,0-0.7,0.1-1,0.1
			c-0.4,0-0.6-0.3-1.8-0.1c-0.3,0-0.5,0.2-0.7,0.2c-0.3,0-0.4-0.1-0.7-0.1c-0.5,0-0.9,0.2-1.3,0.2c-0.2,0-0.7-0.4-0.7-0.6
			c0-0.2,0-0.2,0-0.3c0.1-1.2-0.3-1-0.3-1.7c0-0.4,0.1-0.4,0.1-0.8C20.5,56.6,20.3,56.9,20.3,56.3L20.3,56.3z M16.6,54.1
			c0-0.2,0-0.3,0-0.6c0-1-0.2-0.9,0.1-1v-0.3c-0.3-0.1-0.2-0.1-0.2-0.5v-2c0-0.6-0.1-0.9-0.1-1.3c0-0.5-0.1-0.8-0.1-1.3h1.9
			c0.4,0,0.3,0.1,0.7,0.1L19,51c0,0.7-0.1,1.1-0.1,1.9c0,1.4,0.1,2.5,0,3.8c0,0.2,0,0.3,0,0.5v0.3c0,0.4,0.1,0.4,0,0.8
			c0,0.3,0,0.6,0,0.9l0.1,2.7h-2.1c-0.2,0,0,0-0.2,0v-3.1c0.1-0.9-0.1-1-0.1-1.2c0-0.6,0.1-1.9,0-2.3C16.5,54.5,16.6,54.4,16.6,54.1
			L16.6,54.1z M25.5,47.1c0.3,0,0.2,0,0.4,0h7.2c0.5,0,0.4-0.6,0.4,2.2c0,0.5-0.1,0.7-0.1,1s0.1,0.5,0.1,1c0,0.7,0,1.4,0,2.2
			s0.1,1.4,0.1,2.1v2.8c0,0,0,0,0,0.1V61c0,1.5,0.5,1.2-1.3,1.1c-0.3,0-0.6,0-0.9,0c-1.9-0.2-3.8-0.2-5.8-0.2L23.5,62
			c-0.3,0-0.6,0.1-1,0c-0.9-0.1-1.1,0-1.5,0h-1.1c-0.3,0-0.4,0.3-0.5-0.3v-2.3c0-1.2,0.2-0.8,0.1-1.5c-0.1-0.5,0-1.1,0-1.6
			c0.2,0.2,0.1,0.3,0.2,0.7c0,0.1,0.2,0.5,0.2,0.6c0,0.5-0.4,0.4-0.1,2c0.1,0.5-0.1,0.4-0.1,0.8c0,0.7,0,0.7,0.2,1
			c0.6,0.6,1.4,0.1,2.6,0.3c0.3,0.1,0.4,0,0.8-0.1c0.1,0,0.3-0.1,0.4-0.1c0.2-0.1,0.2-0.1,0.3-0.1c0.5,0,0.9,0.3,1.2,0.3
			c0.8,0,0.8-0.1,1.4-0.1c1.3,0,0.6,0.2,2,0c0.5-0.1,0.6,0,1,0c0.7,0,0.5,0,0.9,0c0.3,0,0.5,0.1,0.8,0.1c0.4,0-0.1-0.1,0.3,0
			s0.3,0.2,0.4-0.2l0.1-0.2c0-0.2,0.1-0.3,0.1-0.5c0.1-0.3,0.2-0.8,0.2-1.1c0-0.5-0.1-0.8,0-1.3c0.1-0.4,0.3-0.8,0.3-1.1
			s-0.2-0.6-0.2-1.1c0-1,0.3-0.5,0.3-1.3c0-1-0.2-0.8-0.2-1.5c0-0.6,0.3-0.4,0.3-1s-0.3-0.9-0.3-1.4c0-0.3,0.2-0.5,0.3-0.9
			c0.1-0.3,0.1,0.1,0.1-0.2c0-0.8-0.2-0.5-0.2-1s0.3-1-0.3-1.3l-2-0.2c-0.4,0-0.7,0.1-1.1,0.1c-0.7,0-0.9-0.4-1.9-0.2
			c-0.4,0.1-0.6,0.2-1,0.1c-1.6-0.2-0.9-0.1-2.1,0c-0.5,0-0.6-0.1-1-0.1c-0.7,0-1.1,0.3-1.9,0.3c-2.4,0-1.6,2.3-1.6,2.4
			c0,0.2-0.3,0.8-0.3,1.1c0,0.2,0.2,0.8,0.2,1.1c0.1,0.5-0.1,0.5-0.1,1c0,0.9,0.6,1.9-0.1,2.7c-0.2-0.7-0.2-4.5-0.2-5.6
			c0-0.5-0.1-0.6-0.1-1.1V47c0.2,0,0.3-0.1,0.5-0.1c0.8,0.1,1.1,0.1,1.9,0L25.5,47.1L25.5,47.1z M35.2,48.2c0-0.6,0.3-0.3,0.1-1.2
			c-1,0.7-1,1.6-0.4,2.6c0.3,0.4,0.5,0.5,0.6,1.1s-0.1,0.7-0.5,1c-0.9,0.9-0.6,1.1-0.2,2.4c0.1,0.4,0.4,0.8,0.4,1.3
			c0,0.6-0.4,0.7-0.6,1.1c-0.5,1.1,0.6,3.1,0.6,3.9c0,0.7-0.2,0.6-0.3,0.7c0,0.4-0.1,0.3,0.2,0.4c-0.1,0.2-0.1,0.1-0.2,0.4l0.2,0.2
			C35.7,61.7,36,61,36,60c0-0.5-0.3-0.8-0.5-1.2c-0.3-0.6-0.2-0.6-0.3-1.1c-0.1-0.4,0.2-0.8,0.4-1.2c1.1-1.6-0.2-2.4-0.5-3.7
			c0.4-0.6,1.1-1.2,1-2C36,49.4,35.2,49.6,35.2,48.2L35.2,48.2z M34.1,47c0.4-0.1,2.1,0,2.8,0c0,0.5-0.1,0.6-0.1,1
			c0,0.3,0,0.8,0,1.1l-0.1,0.3l0,0l0,0c0,0.8-0.1,1.5-0.2,2.3c0,0.3,0.1,0.5,0,0.9c-0.1,0.5-0.2,1.4-0.2,2l-0.1,7.1c0,0.1,0,0,0,0.1
			c-0.2,0.5-0.4,0.1-0.7,0.5c-0.1-0.2-0.1-0.2-0.4-0.2c-0.8,0-0.9,0.4-0.8-0.5c0.1-1.3-0.2-2.7-0.1-3.9c0-0.6,0.1-1,0.1-1.6
			c0-1.1-0.2-2-0.1-2.7c0-0.7,0.1-1.5,0-2.2c-0.1-0.5,0-0.6,0-1s-0.1-0.6-0.1-1C34.1,48.5,34.1,47.8,34.1,47L34.1,47z M42.7,46.2
			C42.6,46.4,42.7,46.2,42.7,46.2C43,46.1,42.7,46.2,42.7,46.2L42.7,46.2z M34.5,39.6c0-0.4,0.5-1,0.7-1.3c0.6-0.6,1.7-1.3,2.3-1.5
			h0.1c0.8-0.1,0.8-0.3,1.3-0.3l4.3-0.6c1.5-0.3,1-0.3,2.1-0.8c0,0.3-0.5,1.6-0.6,2.9l-0.2,1.6c-0.1,1.1-0.2,1.2-0.3,2.3
			c0,0.3,0,0-0.1,0.3c-0.2,0.5,0,0.6-0.3,1.1c-0.1,0.3-0.1,0.3-0.2,0.6c-0.3,0.6-1.2,2-1.4,2l-0.1-0.1c0.2-0.1,0.3-0.2,0.4-0.4
			l0.3-0.7c1.4-3.3,1-4,1.3-7.4c0.1-0.6,0.2-0.7-0.1-1.2c-0.6,0.1,0,0.2-1.3,0.4c-0.4,0.1-1,0.1-1.5,0.1L38.5,37
			c-0.6,0.2-1.8,0.7-2.3,1C35.2,38.6,34.7,39.5,34.5,39.6L34.5,39.6z M16.2,45c0-0.2,0.1-0.6,0.1-0.7c0.2-0.3,1.9-0.4,2.3-0.3
			c0.2,0,0.1-0.1,0.2,0.2v1.9c0,0.7,0.7,0.6-2.6,0.6c0-0.3-0.1-0.3-0.1-0.7v-1H16.2z M35.1,46.5c-1.1,0-1,0.1-1-0.7L34,43.9
			c3.3,0,2.9-0.2,2.9,0.7c0,0.4,0.1,0.4,0.1,0.7l-0.1,0.9c0,0.1,0,0.2,0,0.3L35.1,46.5L35.1,46.5z M33.4,43.9c0,0.3,0.1,0.3,0.1,0.6
			v1.9c-0.6-0.3-3.7,0-4.7,0c-0.8,0-0.5-0.1-1.4,0c-1,0.1-2.2,0-3.2,0c-0.4,0-0.4,0.1-0.7,0.1l-4,0.1c-0.3,0-0.2-0.3-0.2-0.6
			c0-1.1-0.2-1.6,0.1-2.2c1.9,0.2,2.3,0.1,4.1,0.1c1,0,0.6,0,1,0.2c0.4-0.3-0.1-0.2,0.4-0.2h3c0.5,0,0.7,0.1,1.1,0.1L33.4,43.9
			L33.4,43.9z M25,43.3c0.8-1.1,2.8-1,2.9,0c-0.4,0-0.8,0-1.3,0H25L25,43.3z M23.6,42.8c0-0.6,0.1-0.5,0.4-0.8
			c0.5-0.5,1.6-1.2,2.2-1.2c1.2,0,2.6,0.5,3.2,1.5c0.1,0.3,0.3,0.7,0.4,1c-0.4,0-0.6,0.1-1,0.1c-0.2-0.5-0.4-0.8-0.8-1.1
			c-0.2-0.2-1-0.5-1.5-0.4c-2,0.3-1.7,1.6-2.3,1.6c-1.1,0-1,0-0.9-0.3c0.1-0.2,0.3-0.1,0-0.3v-0.1c0,0,0,0,0.1,0l0,0H23.6L23.6,42.8
			z M13.4,46.6c-0.6,0-1.4-0.4-1.8-0.7c-0.2-0.2-0.3-0.3-0.4-0.5L10.8,45c-0.3-0.4-0.7-1.5-0.7-2c0-0.6,0-0.3-0.2-0.7s0-0.4,0-0.7
			s-0.1-0.4-0.1-0.8c0-0.3,0-0.5,0-0.8c-0.1-0.5-0.1-1.2-0.1-1.6c0-0.3,0-0.5-0.1-0.8c-0.1-0.4-0.2-0.2-0.3-0.5
			C9.9,37,9.9,37.3,10,37v0.1l0,0c0,0.1,0.1,0.1,0.3,0.2c1.7,0.5,1.9-0.2,1.7,1c0.3,0.1,0,0,0.2,0h0.1c0.2,0.1,0.1,0.3,0.3,0.1
			c0.2-0.1,0,0,0-0.1c-0.1-0.5-0.2-0.4-0.4-0.5v-0.1c0.3,0,0.3-0.1,0.7-0.1c1,0,2.2,0.2,3.2,0.5c0.4,0.1,0.3,0.1,0.6,0.3l0.9,0.8
			l0.7,1.1c0.4,1,0.5,1,0.4,2.1c-0.1,0.4,0.1,0.6-0.3,0.7c-0.2,0-0.5,0-0.8,0c-0.3,0.1-0.4,0.1-0.8,0.1c-0.3,0-0.5,0.3-0.5-0.1
			c0-0.8,0.3-0.3,0.2-1c0-0.4-0.1-1.3-0.3-1.7c-0.1-0.2-0.9-0.7-1.1-0.8c-0.4-0.3-0.8-0.3-1.3-0.4c-2-0.1-1-0.1-1.9-0.4
			c0,0.6,0.2,0.7,0.2,1c-0.3,0.1-0.2,0.1-0.2,0.4c0.1,0,0.6,0.3,0.6-0.2s-0.5-0.7,0.3-0.3c0.3,0.2,1.2,0.2,1.8,0.4s0.8,0.3,0.9,0.9
			c0.1,0.3,0,0.5,0,0.8v0.7c0,0.4,0.1-0.1,0.1,0.4c0,0.1,0,0.1-0.1,0.3c-0.6-0.3-2.2,0.6-3.1-0.8l-0.1-0.2c-0.2-0.7,0-0.8-0.3-0.9
			c0.1-0.3,0-0.1,0.2-0.1l0.3-0.2c0-0.1,0.1,0,0.1-0.4c-0.3,0.1-0.1,0.1-0.4,0.1c-0.1,0,0-0.1-0.1,0c0,0.1-0.2,0,0.1,0.1v0.4H12
			c0,0.5,0,0.7,0.1,1.2c0.2,0.8,0.3,0.6,0.4,0.6l0,0c0,0,0,0,0.1,0l0.1,0.1c-0.4,0.4,0.2,0.4,0.3,0.4c-0.1,0.2-0.1,0.2-0.4,0.2v0.1
			c0.2,0,0.4,0.1,0.7,0.1c0.2,0,0.5,0.1,0.7,0.1c1.4,0.3,1.9-0.1,1.9,0.3l-0.1,2.3L13.4,46.6L13.4,46.6z M6.2,42L6.2,42L6.2,42
			L6.2,42z M37.4,43.5c-0.1-0.3-0.1-1.2,0-1.7c0.2-0.7,0.4-0.9,0.8-1.3c0.8-0.6,0.4-0.3,1.5-0.7c0.2-0.1,0.7-0.1,0.9-0.2
			c0.7-0.1,0.5-0.2,0.8-0.2c0,0.4-0.5,1.5-0.7,1.9c-0.3,0.6-0.2,0.5-0.7,1c-0.1,0.1-0.1,0.1-0.2,0.1c-0.2,0.2-0.2,0-0.2,0.4
			c-1,0-0.1-0.1-1,0.4C38.4,43.4,38,43.5,37.4,43.5L37.4,43.5z M34.5,41c0-0.3,0.5-1,0.7-1.1l0.3-0.4l0,0l0,0
			c0.2-0.3,0.3-0.5,0.7-0.7c0.2-0.1,0.2,0,0.4-0.2c0.2-0.3,0,0,0.9-0.4l3.4-1c0.6-0.1,1-0.2,1.5-0.2c0.6,0,0.9-0.2,1.4-0.3
			c0,0.3-0.1,0.7-0.2,1.1l-0.5,4.4L42.5,44c-0.1,0.3-0.3,0.5-0.4,0.8c-0.4,0.9-1.9,2-2.8,2c-0.3,0-0.5,0-0.9,0
			c-0.5,0-0.8,0.2-0.9-0.3L37.4,44c0.7-0.1,0.9,0,1.2,0c0.7,0,1.4-0.2,2.4-0.2l1.3-0.2c0-0.7,0.3-0.8-0.3-0.8c-0.3,0-0.2,0-0.3,0.2
			c-0.2,0.4-0.2,0.3-0.9,0.3c-0.6,0.1-0.4,0.1,0.3-0.8c0.1-0.1,0.2-0.3,0.3-0.4c0.3-0.4,0.5-0.9,0.6-1.4c0.2-0.6,0.5-1.5,0.5-2.2
			c0-0.4-0.7,0.1-0.8,0.1c-0.6,0.4-2,0.7-2.7,0.8c-0.6,0.1-1.4,0.7-1.8,1.2c-0.2,0.2-0.3,1.1-0.3,1.4l0.1,1.3
			c-0.5,0.3-1.3,0.2-1.9,0.1H35h-0.8c0-0.6,0-1,0.2-1.6c0,0,0.1-0.2,0.1-0.3C34.7,41,34.5,41.5,34.5,41L34.5,41z M36.7,38.4
			C36.7,38.5,36.7,38.5,36.7,38.4L36.7,38.4L36.7,38.4z M30.4,37.9c0.1-0.3,0-0.2,0.3-0.3C30.7,37.9,30.7,37.9,30.4,37.9L30.4,37.9z
			 M16.8,35.3L16.8,35.3L16.8,35.3L16.8,35.3z M8.4,38c0-0.3,0-0.5-0.1-0.8c0-0.2,0-0.5-0.1-0.7l-0.4-1.4c0.4,0,0.4,0.1,0.7,0.2
			c0.6,0.3,1,0.2,1.3,0.3c0.2,0.1,0,0.1,0.3,0.1c0.3,0.1-0.1,0,0.3,0l1.1,0.2c0.4,0,0.8,0.2,0.8-0.2c0.3,0.1,0.1,0.2,0.4,0.2
			c0.1,0,0.3,0,0.5,0c0.4,0,0.8,0,1.2,0.1l0.9,0.3c0.7,0.2,1.7,0.7,2.2,1.1l0.7,0.9c0.2,0.3,0.3,0.5,0.5,0.7
			c-0.4-0.1-0.2-0.4-1.1-0.9L17.4,38l0,0h-0.1l0,0l0,0l-0.1-0.1c-0.1,0-0.1-0.1-0.1-0.1c-0.8-0.5-3.2-1.2-3.9-0.9
			c-0.5,0.2,0.3,0-0.1,0c-0.2,0-0.2,0-0.2,0c-1-0.2-0.8-0.1-1.5-0.2c-0.3,0-1.2-0.2-1.5-0.4l-0.5-0.2c-0.2-0.1-0.2,0-0.4-0.2l0,0
			l0,0c-0.2,0.8,0,0.2,0.3,1.3l0.1,0.2c0.3,1,0,3.6,0.1,4.2c0.1,0.9,0.1,1.6,0.4,2.5c0.1,0.2,0.1,0.4,0.2,0.6
			c0.1,0.2,0.1,0.2,0.1,0.5C10,45.1,9.6,44.3,9.4,44c-0.1-0.2-0.2-0.5-0.3-0.7c-0.3-0.8-0.4-1.6-0.4-2.5c0-0.4-0.1-0.6-0.1-0.9
			L8.4,38L8.4,38z M10.1,35c-0.1,0.2,0,0.1-0.2,0.1V35H10.1L10.1,35z M25.8,30c0-0.3,0.1-0.6,0.3-0.8l0.4-0.4l0.3,0.1l0,0l0.1,0.1
			c0.9,0.9,0.3,1.6,0.6,2c0.1,0.2,0.5,0.4,0.5,0.7s-0.1,0.4-0.1,0.7c0,0.2,0.5,0.5,0.6,0.6c0.4,0.5,0.4,1.6,0,2.1
			c-0.2,0.2-0.6,0.5-0.9,0.5c-0.1-0.3-0.2-0.2-0.2-0.6c1.1-0.3,1.2-2.2-0.3-2.5c0.1-0.4,0.4-0.3,0.4-0.7c0-1.5-1.7-0.4-1,0.6
			c0.1,0.1,0,0,0.1,0.1c-0.3,0.5-0.9,0.7-0.9,1.5c0,0.9,0.6,0.7,0.7,1.2L26,35.4c-1.4-0.3-1.3-2.1-0.8-2.8c0.1-0.1,0.2-0.2,0.2-0.3
			c0-0.5-0.2-0.9,0-1.3c0.1-0.2,0.2-0.3,0.3-0.5C25.9,30.3,25.8,30.4,25.8,30L25.8,30z M33.9,41.6c-0.3-0.2-0.2-0.4-0.4-0.1
			c0.3,0.1,0.3,0.1,0.7,0.1C34,42,34,42.1,33.6,42.1c0,0.4,0,0.3-0.1,0.6s0,0,0.1,0.4c-0.2,0.1-0.1-0.1-0.2,0.2
			c-0.3,0-0.2-0.1-0.6-0.1c0.1-1,0.1-0.8-0.1-1.8c-0.1-0.6-0.2-1-0.4-1.5c-0.1-0.2-0.2-0.4-0.3-0.7c-0.4-0.8-1.2-1.4-1.6-2.1
			l-0.1-0.2c-0.1-0.2-0.1,0.2-0.1-0.2c0-0.6,1,0.1,1-0.7c0-0.6-0.4-1.1-1-0.8c-1.3,0.6-1,1.7-0.3,2.6l1.7,2c0.1,0.1,0.1,0,0.3,0.1
			c0.1,0.1,0.1,0-0.1,0.1c0,0.7,0.4,0.9,0.5,1.6c0,0.5,0.4,1.5-0.2,1.6c-0.2-0.4,0.1-0.3,0-0.8c-0.1-1.5-0.3-0.9-0.7-1.3
			c-0.2-0.2,0.3,0-0.1-0.1c-0.2,0.1-0.2,0.2-0.3,0.3c-0.1,0.1-0.3,0.1-0.3,0.3c0,0.6,0.1,0.4,0.2,0.9c0.3-0.2,0-0.3,0.5-0.3v0.9
			c-1.1,0.2-0.8,0-1-0.7l-0.3-0.6c-0.6-0.9-0.7-1.4-2-1.9c-0.6-0.2-0.9-0.2-1.5-0.2c-1.4,0.1-2.8,1.1-3.5,2.3c-0.6,1,0,1.3-0.9,1.3
			v-0.8c0-0.1,0-0.2,0-0.3l0,0l0,0c0.2,0.2,0.2,0.2,0.5,0.2c-0.1-0.4-0.1-0.2-0.3-0.4c0.3-0.2,0.3-0.1,0.3-0.4
			c-0.4,0-0.2,0.1-0.6,0.1c0.1-0.2,0.1-0.5,0.2-0.7c0.1-0.3,0.1-0.5,0.4-0.6c0,0.5-0.1,0.7,0.5,0.7l-0.1-0.6h0.3
			c0-0.5-0.2-0.5-0.6-0.3c0.1-0.5,1.1-1.4,1.5-1.8l0.2-0.1c0.1-0.1,0.1-0.1,0.2-0.1l0.8-0.8c0.5-0.5,0.8-0.9,1.1-1.6
			c0.1-0.1,0-0.1,0.1-0.2c0.1-0.1,0-0.1,0.1-0.1c0.2,0.8,1.2,1.9,1.8,2.5l1,1c0.2,0.3,0.7,1,0.8,1.3c-0.3-0.1-0.1-0.1-0.4,0.1
			c0,0.4,0.1,0.9,0.4,0.9s0.3,0.1,0.4-0.1c0.1-0.2-0.2-0.4-0.3-0.5c0.3-0.2,0.2,0,0.3-0.2H31c0,0.3,0.1,0.3,0.1,0.4
			c0.2,0,0.2-0.1,0.3-0.2c0.1,0.3,0,0.2,0.2,0.3c0-0.4,0-0.2-0.1-0.4l-0.1-0.1l0,0c-0.1,0,0,0-0.1-0.1c0.1-0.2-0.1-0.2,0.2-0.1v-0.1
			c-0.4-0.1-0.5-0.7-0.8-1.1c-0.5-0.6-1-1.2-1.6-1.7l-0.2-0.2c-0.2-0.2-0.8-0.8-0.8-1.1c2-0.5,2-3.1,0.6-3.9
			c0.1-0.6,0.1,0.1,0.1-0.4c0.1-0.9-0.6-1.2-0.6-1.7c0-0.3,0.1-0.5,0.1-0.9c0-0.3-0.6-1.4-1.5-1.1c-0.3,0.1-0.7,0.3-0.9,0.5
			c-0.4,0.5-0.5,1.1-0.3,1.7c-0.2,0.3-0.3,0.3-0.5,0.7C25,31.4,25,31.5,25,32c-0.1,0.8-1.2,1.2-0.1,3.1c0.3,0.4,0.6,0.7,1.1,0.8
			c0,0.3-0.1,0.2-0.3,0.5l-1.1,1c-0.6,0.5-0.9,0.9-1.4,1.4c-0.8,0.8-0.6,0.6-1.2,1.6c-0.5,1-0.7,1.9-0.5,3h-0.4v-0.3
			c-0.1-0.3,0-0.7,0.1-1c0-0.2,0-0.3,0-0.5s0.1-0.2,0.1-0.5c0.2-0.7,0.5-1.4,0.9-2c0.3-0.4,0.7-0.8,1.1-1.1c0.4-0.4,0.2-0.5,0.6-0.5
			c0-0.4,0.2-0.4,0.3-0.7c0.3-0.6,0.2-1.5-0.3-2c-0.5-0.4-0.6-0.3-1.1-0.1l-0.3,0.1c-0.3,0.2-0.7,1.2,0,1.3c0.3,0.1,0.3-0.1,0.6-0.2
			c0.6,0.4,0.5,1,0,1.5c-0.2,0.2-0.3,0.3-0.5,0.6c-1,1.1-1.1,1.1-1.7,2.4c-0.4,0.7-0.5,2.2-0.1,3c-0.5,0-0.7,0-1.1-0.1
			c0-1,0-1.8-0.2-2.7c-0.1-0.6,0.1-1,0-1.3s-0.3-0.8-0.3-1.2c0-1.3,0.4-1.9,0-2.5c-0.1-0.2-0.3-0.4-0.4-0.5
			c-0.6,0.2-0.7,1.1-0.7,1.6c-0.7-0.2-0.6-0.6-0.7-1.2c-0.1-0.3,0-0.2-0.3-0.3c0.3-0.5,0.1-0.9-0.4-1.2l-0.1-0.1
			c-0.2-0.1-0.2-0.2-0.5-0.2c-0.3,0.7,0,1.5,0.3,2.1c-1.3-0.3-0.7-0.3-1.3-1.4c-0.7-1.4-0.5-0.7-1.5-1.2c-0.1,1.4,0.5,1.6,0.9,2.2
			c-1.2,0.3-1.7-0.9-2.3-1.7l-0.4-0.4l-0.7-0.1c-0.2,0-0.4-0.1-0.4,0.2c0,0.4,0.5,1,0.8,1.3c0.6,0.6,0.6,0.4,1.3,0.6c0,0,0,0-0.1,0
			l-0.2,0.1c-0.2,0.1-0.1,0-0.2,0.2c-0.4-0.1-0.7-0.3-1.2-0.2l0,0H11l0,0c-0.3,0-0.5-0.2-0.6-0.5c0.3,0,0.3,0.1,0.4,0.1
			c0-0.3-0.2-0.6-0.3-0.8c-0.2-0.3-0.3-0.5-0.4-0.8c-0.5-0.9-0.6-0.5-1.5-0.8c-0.1,1.4,0.2,1.5,0.7,2.2c-0.3,0-0.5-0.1-0.8-0.2
			C8.2,34.5,8,34.4,8,34.1c0-0.4-0.5-0.9-0.8-1.2c-0.2-0.2-0.6-0.7-1-0.7l-0.8,0.2c-0.2,0.1,0,0.5,0.1,0.7c0.8,1.7,2,0.9,2.1,1.6
			c0.1,0.3,0,0.6,0.1,0.9c0.1,0.4,0.1,0.3,0.1,0.8c-0.3-0.2-0.2-0.5-0.3-0.8c-0.3-0.8-1.3-1.2-2.2-1.2V35c0.1,0.3,0,0.4,0.1,0.7
			c0.1,0.6,1.2,0.7,1.7,1.2l0.3,0.3l0,0l0,0l0.4,0.2c0,0.6,0.1,0.8,0,1.4l-0.2-0.4c-0.1-0.2-0.1-0.2-0.2-0.4c-0.7-1-0.7-0.6-0.7-0.6
			c-0.1,0,0,0.1-0.1-0.1l0,0c-0.1-0.3,0.2-0.2-0.8-0.6c-0.2-0.1-0.3-0.2-0.3,0.1V38c0.2,0.4,1,0.9,1.3,1.1c0.8,0.6,0.7,0.3,0.8,1.2
			c0,0.2,0.1,0.3,0.1,0.6H7.5c-0.2-0.9-2.2-2.1-2.2-1.3c0,0.3,0,0.3,0.1,0.5l0.1,0.5C5.7,41,5.8,41,6,41.2C7.3,42,7.8,42,7.8,42.9
			c-0.3-0.1-0.1,0-0.3-0.2c-0.5-0.5-1.2-0.6-2-0.6c-0.3,0,0.3,0.8,0.3,0.9c0.4,0.7,1.5,0.7,2.1,1c0.3,0.1,0.5,0.6,0.6,1
			c-0.8-0.4-1.4-0.1-2.3-0.1c0,0.2,0.1,0.4,0.2,0.5C7,45.6,7.3,45.9,8,45.9c0.4,0,0.9-0.2,1.3,0l0.7,0.7c-0.2,0-0.3-0.1-0.5-0.1
			c-0.5,0-1.4,0.2-1.9,0.4c0,0.4,0.3,0.4,0.5,0.6c0.2,0.1,0.3,0.3,0.7,0.3c0.8,0,1.4-0.4,2.3-0.4H11c-0.2-0.1-0.1,0-0.2-0.2
			c0.3,0,0.3-0.1,0.5-0.1l1.4,0.1c0.4,0,0.5-0.1,1-0.1c0.4,0,0.5,0.1,1,0.1c0.3,0,0.6,0,1,0c0.1,0.2,0.1,0.3,0.1,0.6
			c0,0.4,0.1,0.6-0.3,0.5c-1.4-0.1-2.4,0.3-3.6,1l-1,0.7c-0.2,0.2-2.2,1.3-2.2,0.3C9,50,8.7,50,8.9,50C9,50,9,50,9.1,50h0.1
			c0.1,0,0,0.1,0.1-0.1c-0.4-0.1-0.4-0.6-1.1-0.4c-0.5,0.2-0.9,0.6-0.7,1.2c0.1,0.2,0,0.1,0.2,0.3c0.6,0.6,1.6,0.1,2.2-0.2l0.7-0.4
			c0.2-0.1,0.1,0,0.3-0.2c0.4-0.4,0.6-0.4,1.1-0.6c0.2-0.1,0.1-0.1,0.3-0.2c0.7-0.4,1.9-0.7,2.6-0.7c0.2,0,0.5,0.1,0.9,0.1
			c-0.2,0.2-0.1,0.1-0.6,0.1c-0.9,0-1.7,0.4-2.5,0.7c-1.4,0.6-1.3,0.7-2.5,1.5c-0.7,0.4-1.2,0.8-1.9,1.2c-0.2,0.1-0.9,0.6-0.9,0.2
			C7.4,52,8,51.7,7,50.6c-1.1-1.3-2-0.3-2.5,0.1c-0.4-0.3-0.5-0.6-1.1-0.3c-0.4,0.2-0.6,0.6-0.7,1c-0.6-0.1-0.9-0.5-1.9,0.5
			c-0.6,0.6-0.6,1.1-0.5,2c0.1,0.6,0.9,1.3,1.5,1.3c0.5,0,0.5-0.1,0.9-0.1c0.1,0.3,0.2,0.3,0.4,0.4c0.7,0.4,0.7,0.2,1.3-0.2
			C4.7,56,5.5,56.4,6.2,56s0.8-1.1,1-1.8c0.6,0.1,1.9,1.6,2.3,2.1c0.4,0.5,0.9,0.9,1.4,1.3c0.4,0.3,0.6,0.5,1,0.8
			c1.3,0.7,2.4,1.2,4,1.2v0.3c-1.1,0-2.2-0.3-3.1-0.7c-0.4-0.2-0.8-0.3-1.2-0.6l-2-1.5c-0.6-0.5-1.3-1.4-2.2-1.2
			c-0.6,0.2-0.7,1-0.5,1.5c0.1,0.3-0.1,0.1,0.2,0.3C7.3,57.8,7.8,58,8,57.6c0.1-0.2-0.1-0.3,0.1-0.8c0.6,0,1.4,0.7,1.8,1.2
			c0.3,0.3,0.4,0.4,0.8,0.7c0.3,0.3,0.5,0.4,0.9,0.6c1.4,0.7,2.8,1.3,4.4,1.4v1c-0.9,0-1.9-0.2-2.7-0.2c-2,0.2-1.4,0.3-2.4,0.5
			c0.1-0.3,0.3-0.3-0.1-0.3c-1.5,0-1.4-0.4-1.9-0.4c-0.3,0-0.7,0.4-0.7,0.7c0.3,0.4,1.4,0.4,2.1,0.4l0,0l0,0l0,0l-0.1,0.1l0,0
			l-0.1,0.1C9.7,62.9,9.4,63,9.2,63c-1.2,0-2.6-0.6-2.8,0.5c0.2,0.1,0.6,0.3,0.9,0.4c0.4,0,0.9,0,1.3,0c-0.2,0.3-0.2,0.4-0.6,0.5
			c-0.9,0.2-2.1-0.3-2.2,1c1,0.5,1.3-0.1,2.1-0.1c0,0.1-0.1,0.3-0.2,0.4c-0.3,0.5-1,0.6-1.5,0.8C5.4,67,4.8,68,5.8,67.8
			s1.1-0.7,1.5-0.8c0,0.1,0,0.5-0.1,0.6c-0.1,0.3-0.3,0.4-0.6,0.6C5.5,68.9,5,68.8,5,70c0.9,0,1.8-0.6,2-1.4h0.1
			c0,1.4-1.4,1.6-2.2,2.4c-0.3,0.3-0.2,0.7-0.1,1c0.3,0,0.3-0.1,0.5-0.1s0.3-0.1,0.5-0.1c1-0.4,0.8-1.8,1.3-2.2
			c0,0.8,0.3,1.7-0.3,2.3c-0.7,0.6-2.4,0.8-1.5,2.2C5.7,74,5.7,74,6,73.8c0.7-0.4,1-1.1,1.1-1.9l0.2,1.4c0,0.5-1.1,0.9-1.5,1
			s-0.5,0.1-0.6,0.6c0,0.4,0,0.6,0.2,0.9c0.2,0,0.6-0.2,0.8-0.2c0.7-0.3,0.7-1,1.1-1.6c0.1-0.2,0,0,0.1-0.1c0,0.4,0.1,0.4,0.1,0.8
			c0,0.7-0.7,1.1-1.1,1.6S5.8,77,5.8,77.6c0,0.3,0,0.4,0.2,0.4c0.5,0,0.9-0.5,1.1-1s0.2-1.4,0.5-1.4s0.2,0.3,0.2,0.5
			c0,0.3,0,0.4-0.1,0.6c-0.1,0.5,0.2,0.5,0.3,0.9c0.7-0.1,0.6-0.9,0.5-1.4c0-0.4,0.1-0.4-0.2-0.5v-0.2c0.3,0,0.6-0.2,0.9-0.3
			c0.7-0.2,0,0.4,0,1.4c0,0.2,0.1,0.6,0.1,0.9c0.4,0,0.6-0.1,1-0.3c0-2.5-0.1-2.2,0.6-2.3h0.8c-0.2,0.3-0.2,0.3-0.4,0.5
			s-0.3,0.3-0.4,0.4C10.7,76,10.6,77,11,77c0.2,0,0.1,0,0.3-0.1c0.1,0,0.2-0.1,0.3-0.1c0.5-0.2,0.4-0.6,0.5-1s0.2-0.5,0.1-0.9
			c0.7,0.1,0.2-0.2,1.2-0.4c-0.1,0.4-0.4,0.5-0.5,0.9c-0.1,0.2-0.4,1.1,0,1c0.3-0.1,0.1,0,0.3-0.2c0.5-0.3,0.5-0.3,0.7-0.9
			c0.1-0.3,0.2-0.5,0.3-0.8s0.2-0.5,0.6-0.5c0,0.2-0.1,0.2-0.1,0.4c0,0.1-0.1,0.4-0.1,0.4c0,0.4,0,0.6-0.1,0.9
			c0.3,0,0.4-0.1,0.6-0.2c0.1,0,0.1-0.1,0.1-0.1c0.8-0.5,0.1-1.9,0.9-2.1c0,0.4,0.2,1.1,0.3,1.5c0.4,0,0.4-0.2,0.6-0.4
			c0.5-0.5,0.4-0.5,0.2-1.2c-0.1-0.5-0.2-0.8,0.3-1.1c0,0.4,0.2,1.2,0.4,1.5c0.3-0.1,0.3-0.1,0.5-0.3c0.1-0.1,0.3-0.3,0.3-0.5
			c0-1-0.4-1.4,0.1-2.4c0.1-0.2,0.1-0.3,0.2-0.6c0.7-3,0.1-2.9,0.1-4.2c0.5,0,0.7,0.1,1.3,0.1c0.4,0,0.8,0,1.3,0
			c-1.8,1.6-1.1,4.5,0.1,6.2c0.4,0.6,0.6,0.7,1.2,1.1s1.5,1,1,1.8c-0.6-0.4,0-1-0.8-1c-0.5,0-0.9,0.6-0.9,1.1
			c0.1,0.5,0.8,1.3,1.8,0.7c0.2-0.1,0.3-0.2,0.4-0.4c0.3-0.3,0.5-0.5,0.5-1.1c-0.1-1.1-1.7-1.7-2.4-2.4c-0.1-0.1-0.3-0.3-0.4-0.4
			s-0.3-0.3-0.4-0.5c-0.1-0.1-0.2-0.4-0.3-0.5c-0.1-0.3-0.2-0.3-0.2-0.6c-0.4-1.2-0.4-2.3,0.5-3.3c0.2-0.2,0.2-0.2,0.2-0.5h0.3
			c-0.1,0.2-0.1,0.2-0.2,0.4c-0.1,0.1-0.1,0.2-0.2,0.4c-0.6,1.6,0.2,3.3,1.1,4.6c0.7,0.9,2.5,2.5,2.8,2.8c0.1,0.1,0.1,0.2,0.2,0.4
			c0.1,0.1,0.1,0.2,0.2,0.3c0.7,1.2-0.5,0.1-1.4,1.4c-0.8,1.2,0.3,2.1,0.3,2.2c0,0.3-0.1,0.4-0.1,0.7c0,1.2,0.8,1.3,0.9,1.9
			c0.2,1,0.8,1.2,1.6,1.2c0.2,0,0.4-0.1,0.6-0.2c0.4-0.2,0.1-0.1,0.4-0.3c0.2-0.2,0.2-0.1,0.4-0.3c0.4-0.6,0.2-1.1,0.6-2
			c0.5-1,0.1-0.7,0.1-1.3c0-0.6,0.6-0.8,0.1-2.1c-0.2-0.4-0.5-0.9-0.9-1.1c-0.2-0.1-0.3,0-0.5,0c0-0.4,0.9-1.2,1.2-1.6
			c1.5-1.5,3.5-4.2,2.7-6.5c-0.1-0.3-0.3-0.4-0.3-0.7c0.3,0,0.2,0.1,0.4,0.4c0.3,0.6,0.5,1,0.5,1.7c0,1.2-0.3,1.7-0.8,2.8
			c-0.4,0.8-1.4,1-2,2c-0.5,0.9-0.3,1.4,0.4,2l0.7,0.4c0.3,0.1-0.1,0,0.3,0c0.3,0,0.2,0.2,0.4-0.2c0.2-0.4-0.1-0.2,0.3-0.4
			c0.8-0.5,0.6-1.6-0.4-1.6c-0.6,0-0.4,0.5-0.5,0.8c-1.2-0.8,0.9-2,1.3-2.5c0.6-0.8,1-2.1,1-3.5c0-1.5-0.4-1.4-0.6-2.3l0.6-0.1
			c0.3,0,0.1,1.4,0.2,1.8c0.1,0.8-0.1,0.9-0.1,1.7c0,2.1,1.3,2.8,1.5,3.4c0.3,0.6-0.1,1.4,0.1,2.1c0.1,0.4,0.2,0.3,0.4,0.5
			c0.2,0.1,0,0.1,0.3,0.2c0.2-0.2,0.4-0.4,0.4-0.7c0.1-0.3,0-0.5,0-1c0.2,0.2,0.4,0.8,0.5,1.1c0.1,0.5,0,0.5,0.5,0.7l0.2,0.1
			c0.2,0.1,0.4,0.2,0.7,0.3c0.4-0.8-0.2-1.2-0.4-1.8c0.3,0.1,1,1,1.1,1.3s0.2,0.6,0.5,0.7c0.2,0.1,0.6,0.1,0.9,0.2
			c0.5-1.1-0.8-1.6-1.1-2c0.4,0.1,0.7,0.1,1,0.4c0.4,0.3,0.7,0.6,0.9,1.1c0.3,0.6,0.1,0.4,0.7,0.6c0.2,0.1,0.2,0.1,0.5,0.2
			c0.8-1.4-1.3-1.5-1.6-2.1c0.4,0,0.2,0.1,0.6,0c0.4-0.1,0.6-0.1,0.9,0.2c0.5,0.5,0.6,0.6,0.9,1.2c0.1,0.3,0.1,0.3,0.4,0.4
			c0.2,0.1,0.3,0.1,0.5,0.1c0.3,0,0.3-1.1-0.5-1.5c-0.2-0.1-0.3-0.1-0.5-0.2s-0.2-0.2-0.5-0.3v-0.1c0.5,0,1.7,0,2.1-0.1
			c0.1,0.3,0.2,0.6,0.3,0.9c0.1,0.5-0.3,0.7,0.1,1l0.9,0.3c0.2-0.1,0.3-0.2,0.3-0.4c0-1.3-0.6-1.4-0.8-1.8c-0.2-0.3,0.2-0.1,0.4-0.1
			c0.4,0,0.2-0.1,0.6-0.1c0.6,0.9,0.7,1.9,2.1,1.8c0.6,0,0.7,0,0.5-0.5c-0.5-1-0.6-0.6-1.6-1c-0.6-0.2-0.4-0.3-0.5-0.4
			c-0.2-0.4-0.5-0.4-0.5-1c0.6,0.6,1.6,1.1,2.4,0.7c0-0.5-0.4-0.6-0.6-1c-0.7,0-2-0.3-2.1-0.9c0-0.2-0.1-0.4-0.1-0.7L45.7,70h0.2
			c0-0.4,0.1-0.6-0.2-0.7c0-0.4,0-0.3,0.1-0.5l0.4,0.4l0,0c0.2,0.3,0.3,0.3,0.6,0.5c1.4,0.7,1.7-0.2,0.7-0.7
			c-0.3-0.1-0.4-0.3-0.8-0.3c-0.3-0.1-0.7-0.2-0.8-0.3c-0.2-0.2-0.1-0.1-0.2-0.4v-0.1c-0.1-0.2-0.1,0.2-0.1-0.2v-0.9
			c0.3,0.2,0.5,0.6,0.8,0.9l0.1,0.1c0.4,0.3,0.9,0.3,1.4,0.1c0-0.3-0.1-0.4-0.2-0.5c-0.9-0.8-0.7-0.1-2-0.8
			c-0.4-0.2-0.3-0.5-0.5-0.9c-0.1-0.2-0.1-0.3-0.2-0.5c0.3,0.1,0.2,0.1,0.4,0.3c0.3,0.3,0.9,0.4,1.1,0.8h0.2c0.1-0.3,0-0.1,0.4-0.1
			c0.3,0,0.3,0,0.5-0.2c-0.1-0.3-0.1-0.3-0.3-0.5c-1.1-0.9-2.2-0.1-3.3-1.8c0.6,0.2,1.4,1.1,2.7,0.4c0.2-0.1,0.3-0.2,0.1-0.4
			c-0.6-1-2.1,0.2-4.3-0.8c-1.3-0.6-3.6-0.6-5.1-0.5c-0.7,0-0.4,0.1-0.8-0.1c0-0.5,0.1-0.7,0.1-1.1c0-0.4,0-0.7,0-1.1
			c0.3,0.2,0.6,0.3,1,0.4c1.2,0.3,1.4,0.2,2.5-0.1c0.3-0.1,0.4-0.1,0.6-0.2c0.9-0.5,0.9-0.5,1.7-1.1c0.3-0.2,0.9-0.6,1.2-0.6
			c0,0.2-0.1,0.2-0.1,0.4c0,0.4,1.2,0.8,1.7,0.2c0.2-0.2,0.1,0,0.2-0.3c0.2-0.3,0.1-0.1,0.1-0.6c0-1.3-2.4-0.2-2.4-0.2
			c0.3-0.4,1.8-1.7,2.2-1.8c0,3.3,3.1,3,3.4,1.7c0.5,0.1,0.5,1.4,1.6,0.2c0.4-0.4,0.3-0.2,0.9-0.2c0.8,0,1.3-0.4,1.8-0.9
			c1-1.2,0.1-2.7-1.6-3c-0.8-0.1-0.3-0.1-0.8-0.5c-0.9-0.8-1.3-0.1-1.6-0.5c-0.2-0.2-0.1-0.3-0.4-0.5c-0.3-0.2-0.8-0.3-1.2-0.3
			c-1.2,0-1.4,1.5-1.8,1.7c-0.4-0.3-0.8-1.2-1.2-1.6c-1.3-1.7-2.7-3.3-5.1-3.3c-1.3,0-1.5,0.2-2.2,0.3c0-0.5,0.5-0.5,1.2-0.5
			c2.6-0.2,4.1-0.1,5.9,2c0.3,0.3,0.4,0.7,0.6,1c0.3,0.3,0.5,0.6,1,0.6c0.6,0,1.1-0.1,1.4-0.5c0.7-0.9,0.6-1.2,0-2.1
			c-0.5,0-0.9,0.2-1.1,0.5c-0.4,0.6,0,0.7,0.1,1.1c0,0,0.2,0.1-0.1,0.1s-0.5-0.2-0.7-0.4l-1.1-1.3l0,0l0,0l0,0l-0.7-0.7
			c-1.4-1-3.5-1.1-5.2-0.9c-0.4,0-0.7,0.2-1.1,0.2v-1c0.4,0,0.4,0.1,0.7,0.1h0.7c0.7,0.1,1.5,0,2.3,0c0.4,0,0.5-0.1,0.9-0.1
			c0.6,0,1.3,0.1,1.8,0.1c0.3,0,1-0.6,1-0.9c-1.4-0.7-1.2-0.4-2.1-0.2c0.3-0.5,0.5-0.4,1-0.5c0.6-0.1,1.4,0.1,1.8-0.3
			c0.3-0.3,0.4-0.3,0.5-0.8c-0.9-0.6-1.2-0.5-1.9-0.4c0.1-0.3,0.5-0.5,0.8-0.7c1.1-0.5,1.3,0.1,1.8-0.3c0.2-0.1,0.2-0.2,0.5-0.3
			v-0.7c-0.9-0.6-1.8-0.6-2.2,0.5c-0.1,0.3-0.2,0.6-0.4,0.7c0.1-0.2,0.1-0.3,0.2-0.6c0.1-0.3,0.1-0.3,0.1-0.5
			c0.1-0.3,0.2-0.8,0.2-1.1l0.7-0.2c0.3-0.1,0.4-0.1,0.7-0.1c0.3-0.1,0.8-0.4,0.8-0.8c0-0.6-0.1-0.7-0.8-0.7c-0.6,0-1,0.2-1.4,0.4
			c0-0.5,0.1-0.6,0.5-0.6c0.3,0,0.7-0.6,1-0.8c0.7-0.6,1.3-0.7,0.6-1.7c-0.9,0.2-0.9,0-1.4,0.6c-0.3,0.4-0.6,1-0.6,1.5h-0.1
			c0-0.7,0.3-2.7,0.5-3.3c0.3-1.1,0.2-0.9,1.1-1.4c0.5-0.2,1.1-1,1.2-1.7v-0.1c0-0.2,0-0.4-0.2-0.4c-0.7,0-0.9,0.1-1.2,0.8
			c-0.2,0.5-0.1,0.6-0.5,1.1c-0.2,0.3-0.2,0.2-0.4,0.4c-0.4,0.4-0.4,0.7-1.6,0.8c0.1-0.3,0.4-0.4,0.6-0.6c0.2-0.2,0.4-0.4,0.6-0.7
			c0.1-0.2,0.2-0.7,0.2-1c0-0.4-0.2-0.6-0.3-0.9c-0.4,0-0.7,0.1-0.9,0.4c-0.8,0.9-0.1,2.5-0.8,2.9l-4.5,0.4c0.2-0.3,0.7-0.6,1-0.7
			c1.1-0.7,0.4-1.9,0.3-2.1c-0.6,0-0.7,0.2-1,0.5c-0.3,0.4-0.2,0.7-0.2,1.3c-0.1,1-0.5,1.4-1.5,1.4c-0.1,0.3,0.2,0.2-0.2,0.2
			c-0.2,0-0.1,0-0.4,0.1c-0.3,0.1-0.6,0.3-0.8,0.3c0.3-0.4,0.7-0.7,1.1-1.1c0.2-0.2,0.8-0.9,0.8-1.2c0-0.4-0.2-1-0.4-1.3
			c-0.4,0-0.7,0.4-0.9,0.8c-0.3,0.7,0.1,1.7-0.6,2.6c-1.2,1.6-1.7,0.8-2.7,3.6l-0.1,0.5c0,0.2-0.1,0.3-0.3,0.4
			c0.1,0.2,0.1,0.3,0.2,0.5c0.2-0.1,0.1-0.1,0.4-0.2C33.8,41.4,33.9,41.1,33.9,41.6L33.9,41.6z"/>
	</g>
</g>
<g id="Layer_2_1_">
	<g>
		<g>
			<g>
				<path class="st7" d="M83.2,38.4v13.9c0,5.9,4,9.5,11.7,9.5c6.5,0,10.3-3.7,10.3-9.6v-14c0.1-1,0.9-1.7,1.9-1.7h0.6l0,0
					c0,0,0.4,0,0.5,0c1.3,0,2.3,1,2.3,2.3l0,0v19.9c0,1.2-1,2.2-2.3,2.2c0,0-0.4,0-0.5,0v0.4h10.9v-0.4h-0.4c-1.3,0-2.3-1-2.3-2.3
					l0,0V37.8c0.5,0,1.8,0,2.7,0c2.4,0.1,4.1,1.6,4.2,5c0,0.7,0,1.3-0.1,1.7c-0.6,3.1-2.6,4.1-4.5,4.1c-0.5,0-1,0-1.1,0v0.3
					c0.9,0.2,1.8,0.9,2.4,2.4c0.4,1.1,2,4.6,3,6.1c1.8,2.8,4.5,3.7,8.4,3.7h3.5h7.7V61h-0.3c-0.9,0-2-0.8-1.4-2.3l0,0l1.8-4.4h8.4
					l1.8,4.4l0,0C153,60.1,152,61,151,61h-0.3v0.4h11.4l0,0h18.6l1.7-7.3H182c-1.1,3.6-3.4,5.8-7,5.8h-4.7v-21l0,0
					c0-1.2,1-2.3,2.3-2.3h0.5v-0.4h-2.9H165h-2.9v0.4h0.5c1.3,0,2.3,1,2.3,2.3v19.9c0,1.2-1,2.3-2.3,2.3h-0.4h-0.3
					c-1.1,0-2.3-0.6-3.1-2.1L148,35.5h-0.3c-0.1,1-1.5,4.2-1.8,4.7L137.7,59c-0.8,1.4-2,2-3,2h-0.3l0,0c-1.9,0-2.9-0.8-4.4-2.7l0,0
					c-1.4-1.7-3.5-5.1-3.6-5.3c-0.8-1.3-2.1-2.7-3.7-3.2c4.1-0.4,5.9-3.8,5.9-6.8c0-5-4.2-6.8-8.5-6.8h-9.4l0,0h-2.9l0,0h-2.6l0,0
					h-2.4l0,0h-2.6v0.4h0.6c1,0,1.8,0.7,1.9,1.7v14.1c0,4.8-2.7,7.8-7.1,7.8c-4.3,0-7-3.2-7-8.3V38.2c0-1,0.9-1.7,1.9-1.7H91v-0.4
					H80.7v0.4h0.6C82.3,36.6,83.2,37.3,83.2,38.4z M146.5,44l3.5,8.8h-7.2L146.5,44z"/>
				<path class="st7" d="M205.5,35.8c-2.5,0.3-6.3,1.2-10.6,1.5v0.4c0.1,0,0.3,0,0.6,0c1.5,0,2.1,0.8,2.2,2v19.1l0,0
					c0,1.3-1,1.7-2.3,2.3c-83.6,41.3-121-9-121-9c-1.1-1.2-0.9-3.1,0.4-4c1.7-1.2,2.9-3.2,2.9-5.8c0-5.1-4.9-6.7-9.2-6.7h-8.3H59
					h-2.8V36h0.4c1.3,0,2.3,1,2.3,2.3l0,0V58c0,1.3-1.1,2.2-2.3,2.2h-0.5v0.4H67v-0.4h-0.4c-1.3,0-2.3-1-2.3-2.3l0,0V39.8
					c0-1.5,1.2-2.7,2.7-2.7c2.6,0,4.8,1.8,4.9,5c0,0.8-0.1,1.4-0.1,1.7c-0.6,3.3-3.5,4.1-5.2,4.1c-0.4,0-1,0-1.1,0v0.3
					c0.7,0.2,1.3,1,2,2.1s2,3,3.3,4.9s2.7,3.7,4.4,5.3c10.7,10.2,50.7,40.7,116.7,3c3-1.7,6.2-3,9.2-2.5c0,0,1.8,0.4,3.6,1.7
					c-1.2-0.7-1.6-4.1-1.6-4.1V40c0-1.3,1-2.5,2.3-2.7h0.1c3.5-0.5,6,1.5,6.1,5.6c0.1,3.5-1.6,5.6-3.3,6.1c-1.3,0.4-3,0-3.5-1.3
					l-0.3,0.2c0.4,1.9,1.9,2.9,3.8,3.2c4.2,0.9,9.4-2.1,9.2-8C217.1,37,211.7,35,205.5,35.8z"/>
				<path class="st7" d="M292.6,54c-1.1,3.6-3.4,5.8-7,5.8h-4.7V49.7h4.8c1.7,0.1,3,1.3,3,3.1v0.3h0.4v-8.3h-0.4v0.3
					c0,1.7-1.3,3-3,3.1l0,0h-4.8V37.8h6c2.2,0.1,3.5,1.5,3.5,3.7v0.4h0.4v-4.2l0,0v-1v-1c-0.7,0.3-2.7,0.6-4.3,0.7h-10.9l0,0h-2.9
					v0.4h0.5c1.2,0,2.2,0.9,2.3,2.1v20c0,1.2-1,2.3-2.3,2.3h-0.4l0,0c-1.9,0-2.9-0.8-4.4-2.7l0,0c-1.4-1.7-3.5-5.1-3.6-5.3
					c-0.8-1.3-2.1-2.7-3.7-3.2c4.1-0.4,5.9-3.8,5.9-6.8c0-5-4.2-6.8-8.5-6.8h-9.4l0,0H246l0,0h-2.6l0,0H241l0,0h-2.6v0.4h0.6
					c1,0,1.8,0.7,1.9,1.7v14.1c0,4.8-2.7,7.8-7.1,7.8c-4.3,0-7-3.2-7-8.3V38.4c0-1,0.9-1.7,1.9-1.7h0.6v-0.4H219v0.4h0.6
					c1,0,1.9,0.7,1.9,1.8v13.9c0,5.9,4,9.5,11.7,9.5c6.5,0,10.3-3.7,10.3-9.6v-14c0.1-1,0.9-1.7,1.9-1.7h0.6l0,0c0,0,0.4,0,0.5,0
					c1.3,0,2.3,1,2.3,2.3l0,0v19.9c0,1.2-1,2.2-2.3,2.2c0,0-0.4,0-0.5,0v0.4h10.9V61h-0.4c-1.3,0-2.3-1-2.3-2.3V37.8
					c0.4,0,1.8,0,2.7,0c2.4,0.1,4.1,1.6,4.2,5c0,0.7,0,1.3-0.1,1.7c-0.6,3.1-2.6,4.1-4.5,4.1c-0.5,0-1,0-1.1,0v0.3
					c0.9,0.2,1.8,0.9,2.4,2.4c0.4,1.1,2,4.6,3,6.1c1.8,2.8,4.5,3.7,8.4,3.7h3.5l0,0h18.6l1.7-7.3h-0.4V54z"/>
			</g>
			<circle class="st7" cx="300.3" cy="33.6" r="5.5"/>
			<g>
				<path class="st3" d="M297.8,35.5C297.8,35.5,297.7,35.5,297.8,35.5V32h-1.1h-0.1v-0.1v-0.2v-0.1h0.1h2.7h0.1v0.1v0.2V32h-0.1
					h-1.1v3.4v0.1h-0.1H297.8C297.8,35.6,297.8,35.6,297.8,35.5z"/>
				<path class="st3" d="M300.2,35.5L300.2,35.5v-3.8v-0.1h0.1h0.3c0.1,0,0.1,0,0.1,0.1l1.2,2.3l1.2-2.3c0-0.1,0.1-0.1,0.1-0.1h0.3
					h0.1v0.1v3.7v0.1h-0.1h-0.3h-0.1v-0.1v-2.8l-1,1.9c0,0.1-0.1,0.1-0.2,0.1h-0.2c-0.1,0-0.1,0-0.2-0.1l-1-1.9v2.8v0.1h-0.1H300.2
					C300.3,35.6,300.2,35.6,300.2,35.5z"/>
			</g>
		</g>
		<text transform="matrix(1 0 0 1 197.0756 69.2867)" class="st7 st4 st5">Eat Fresh with Self Dependence.</text>
		<path class="st8" d="M27.9,75.4c0.6,0,1.2-0.1,1.5,1c0.3,1-0.6,1.3-0.6,1.8c0,0.3,0.4,0.3,0.4,0.7c0,0.5-0.3,0.4-0.4,0.7
			c-0.1,0.3,0,1.1-0.4,1.5c0,0-0.1,0.1-0.2,0.1c-0.2,0.1-0.2,0.1-0.4,0.1c-0.2,0.1-0.2,0.1-0.5,0.1v-0.1l0,0
			c-0.1-0.2-0.3-0.1-0.6-0.3c-0.4-0.3-0.3-0.5-0.3-1.1c-0.1,0-0.8-0.1-0.8-0.8c0-0.6,0.5-0.6,0.2-1.3c-0.2-0.4-0.8-0.4-0.6-1
			c0.2-0.8,0.7-0.9,1.3-1c0,0.2-1,1.2-0.1,1.9c0.2,0.2,0.3,0.1,0.3,0.4c0,0.2-0.3,0.4-0.3,0.6c0,0.3-0.1,0,0.2,0.2
			c0.5,0.4,0.2,0.3,0.4,0.9v0.5c0.5,0,0.4,0,0.5-0.3c0.4-0.6,0.2-0.4-0.1-0.9c0.2-0.8,0.4,0,0.1-1.2c0.4-0.2,0.9-0.3,0.9-1.3
			C28.7,75.8,28.2,75.7,27.9,75.4L27.9,75.4z M9.1,54.2c0.2,0,0.4,0,0.5,0s0.3-0.1,0.5-0.1l-0.2-0.3C9.5,53.8,9.2,53.8,9.1,54.2
			L9.1,54.2z M14.2,45.3C14.2,45.3,14.3,45.2,14.2,45.3L14.2,45.3L14.2,45.3z M14.3,45.3h0.2l-0.2-0.2c-0.3-0.3-0.1-0.2-0.3-0.3
			c0,0.5-0.1,0.2-0.2,0.6H14c0,0.2,0,0.2,0.1,0.3c0.2-0.1,0.1-0.1,0.4-0.1c-0.1-0.2,0-0.1-0.1-0.1L14.3,45.3L14.3,45.3z M13.4,50.6
			c0.3,0.1,0.2,0.2,0.5,0.1c0.2,0,0,0,0.1,0c0.2-0.1-0.1-0.1,0.3-0.1v-0.3c-0.4-0.1-0.1-0.1-0.6,0.1C13.4,50.5,13.5,50.4,13.4,50.6
			L13.4,50.6z M14.9,39l0.2-0.2c-0.3-0.6-0.1-0.3-0.7-0.6C14.2,38.7,14.4,38.6,14.9,39L14.9,39z M12.1,71.1c0,0.4,0.1,0.1,0.1,0.5
			c0.4,0,0.6,0,0.7-0.3C12.8,71,12.4,70.9,12.1,71.1L12.1,71.1z M11.9,64.9c0-0.5-0.2-0.6-0.8-0.6c0,0.4,0,0.4,0.1,0.5
			C11.5,65,11.8,64.9,11.9,64.9L11.9,64.9z M10.5,42.5c0.3,0.1-0.1,0.2,0.2,0.4s-0.1-0.1,0.4,0c0-0.2,0.2-0.3-0.1-0.6
			c-0.1-0.2-0.2-0.2-0.4-0.2C10.7,42.4,10.6,42.3,10.5,42.5L10.5,42.5z M12.1,51.3c0,0.1,0.2,0.4,0.3,0.4s1.5-0.6,0.4-0.6
			C12.4,51,12.3,51.1,12.1,51.3L12.1,51.3z M17.3,41.7c0.1,1.3,1.1,0.1,0.4-0.4C17.4,41.6,17.5,41.6,17.3,41.7L17.3,41.7z
			 M10.9,52.2c0.3,0.3,0.2,0.3,0.4,0.3c1,0,0.7-0.8-0.2-0.5L11,52.1L10.9,52.2L10.9,52.2z M11.4,56.1c0.2,0.1,0.3,0.2,0.5,0.2
			s0.4-0.2,0.5-0.3l-0.3-0.4C11.7,55.7,11.4,55.8,11.4,56.1L11.4,56.1z M16.9,40.4l0.3,0.5c0.2,0.2,0.1,0.1,0.3,0.2
			c0.2-0.4,0.3-0.9-0.3-1C17.1,40.3,17.2,40.3,16.9,40.4L16.9,40.4z M9.8,66.3l0.1,0.2l0,0l0,0c0,0.1-0.2,0.1,0.2,0.2l0,0l0.7-0.1
			C10.8,66.3,10.3,66,9.8,66.3L9.8,66.3z M10.2,54.8V55c0.2,0.1,0.1-0.2,0.1,0.2c0.7,0,0.5,0,0.9-0.1C11.3,54.5,10.7,54.7,10.2,54.8
			L10.2,54.8z M10.4,40.4c0.1,0.1,0.1,0.2,0.3,0.3c0,0,0.1,0,0.1,0.1l0.1,0.2l0,0c0,0,0.5,0,0.3-0.5L11,40.2
			c-0.2-0.2-0.1-0.1-0.3-0.2C10.6,40.1,10.5,40.3,10.4,40.4L10.4,40.4z M13.5,57.6c0.3,0.4,0.9,0.3,1.1,0c0.1-0.2,0-0.1,0-0.2
			C14.5,57.3,14,56.9,13.5,57.6L13.5,57.6z M12.4,63.6c0.1,0,0.2,0.1,0.3,0.1c0.4,0.2,0.4,0.3,0.8,0.1c-0.1-0.4-0.9-1.1-1-0.5
			L12.4,63.6L12.4,63.6z M10.2,38.4c0.2,0.2,0.2,0.2,0.3,0.4c0.5,0,0.6,0.1,0.5-0.3c-0.1-0.3,0-0.2-0.2-0.4l-0.3-0.3
			C10.4,38,10.3,38.2,10.2,38.4L10.2,38.4z M9.9,53c0.1,0.2,0.6,0.5,1,0.2c0.2-0.2,0.1-0.1,0.2-0.4C10.8,52.8,10.2,52.6,9.9,53
			L9.9,53z M12.7,44.6c0.1,0.3,0,0.4,0,0.7c0.3,0.1,0,0,0.2,0.1s-0.2,0.1,0.5,0.1c0-0.4,0.1-0.5-0.1-0.7
			C13.2,44.7,13,44.6,12.7,44.6L12.7,44.6z M10,70.4c0,0.3-0.3,0.2,0.3,0.3c0.4,0.1,0.1,0.1,0.6,0v-0.5c-0.3-0.1-0.1-0.1-0.4-0.2
			c-0.2-0.1-0.2-0.1-0.4-0.1L10,70.4L10,70.4z M12.4,56.9c0.6,0.9,2-0.3,0.5-0.3C12.6,56.6,12.5,56.7,12.4,56.9L12.4,56.9z M16.2,39
			c0,0.3,1,0.9,1,0.5c0-0.3,0,0-0.1-0.3s-0.2-0.6-0.6-0.6C16.4,39.2,16.2,38.8,16.2,39L16.2,39z M12,44.5c0.1-0.4-0.3-0.6-0.6-0.6
			l-0.2,0.5c0.1,0.1,0.1,0.1,0.1,0.2l0.1,0.1c0.1,0.1,0,0.1,0.2,0.1c0.3,0.1,0.1,0,0.2,0C12,44.7,11.9,44.9,12,44.5L12,44.5z
			 M10.5,68.8c0.2,0,0.1,0,0.3-0.1c0-0.3-0.1-0.4-0.3-0.5C10.3,68,10,68,9.9,68c-0.2,0.1-0.1,0.3-0.1,0.5
			C9.9,68.6,10.3,68.8,10.5,68.8L10.5,68.8z M17,66.9c0,0.1,0,0,0.1,0.1c0.3,0.5,0.3,0.5,1,0.2v-0.4C17.2,66.7,17.7,66.4,17,66.9
			L17,66.9z M11.4,72.3c0-0.6-0.2-0.7-0.7-0.8c0,0.2-0.1-0.1,0,0.3l-0.3-0.1c0,0.3,0.1,0.4,0,0.6c0.4,0,0.2,0,0.5,0.1
			C11.2,72.4,11.1,72.3,11.4,72.3L11.4,72.3z M13.5,70.8c0.2,0.1,0.1,0,0.2,0.2c0.1,0.1,0,0.4,0.7,0c0.2-0.1,0.3-0.1,0.4-0.5
			c-0.4,0-0.7-0.2-1.1,0C13.5,70.5,13.5,70.5,13.5,70.8L13.5,70.8z M16.2,68.5c0.1,0.1,0.1,0.1,0.1,0.2c0.1,0.2,0.1,0,0.2,0.3
			c0.4,0,0.8-0.2,0.9-0.6l-0.2-0.2c-0.2-0.1-0.4-0.1-0.6,0.1S16.5,68.5,16.2,68.5L16.2,68.5z M14.9,69.8c0,0.6,0.2,0,0.3,0.5
			c1,0,0.9-0.5,1-0.7c-0.3-0.1-0.3-0.2-0.6-0.1C15.3,69.6,15.3,69.8,14.9,69.8L14.9,69.8z M16.9,45.6c0.4,0.6,0.7,0.5,1.3,0.2
			c0.5-0.3,0.3-1-0.2-1C17.7,44.7,17.1,45.3,16.9,45.6L16.9,45.6z M16.8,63.9c0,0.4,0.3,0.6,0.7,0.6c0.3,0,0.7-0.6,0.8-1
			C18.1,63.3,18,63,17.6,63C17.4,63,16.8,63.7,16.8,63.9L16.8,63.9z M12.5,61.5c-0.2-0.3,0-0.1-0.2-0.3c-0.5-0.3-1.6-0.8-2.3-0.8
			c-0.1,0.3-0.1,0.3-0.3,0.4c0.5,0.6,1.3,0.7,1.7,0.8C12.5,61.9,11.9,61.5,12.5,61.5L12.5,61.5z M13.3,67.9c2.7-0.1,1.3-2.5,0.1-1.6
			c-0.2,0.2-0.1,0-0.2,0.3C12.9,67.4,12.9,67.4,13.3,67.9L13.3,67.9z M13.7,41.7l-0.3-0.1c0,0.3,0,0.6,0.1,0.8s0.3,0.4,0.6,0.4
			c0.4,0,1.1-0.6,1.1-1c0-0.8-0.7-1-1.1-0.8C13.7,41.2,13.7,41.3,13.7,41.7L13.7,41.7z M23.8,45.9c0.8,0,1.1-0.8,1.4-0.8
			s1,0.7,1.5,0.7c0.9,0,1.6-0.6,1.9-0.7c0.7,0.5-0.1,0.1,1.1,0.8c1.5,0.8,1.7-0.5,2.3-0.6c0.4,0.3,0.6,1.1,1.3,0.7
			c-0.2-0.4-0.6-1.2-1.1-1.4c-0.1,0-0.4,0-0.6,0c-0.2,0.1-0.3,0.1-0.4,0.3C30,46.2,30,44.4,29,44.4c-0.9,0-1.3,0.5-2,0.6
			c-0.8,0.1-1.3-0.6-1.8-0.6c-0.7,0-1.1,0.7-1.5,0.7c-1.2,0-0.9-0.7-2.1-0.5c-0.3,0-0.3,0.1-0.5,0.2c-0.1,0.1-0.3,0.2-0.4,0.3
			c-0.3,0.3-0.3,0.5-0.5,0.8c1.7,0,1.4-0.9,2.4-0.4C22.8,45.6,23.3,45.9,23.8,45.9L23.8,45.9z M16.7,48.7c0,0.9,1.1,1.4,1.3,1.9
			c0.3,0.5-1,1.3-1,1.9c0,1.6,2,1.6,0.6,3.3c-0.5,0.7-1,0.7-0.2,2.4c0.7,1.5,0.5,0.9,0.1,2.1c-0.3,0.8,0,0.6,0,1.2
			c0.2-0.2,0.1,0,0.1-0.3c0.7-0.1,1.2-1.2,0.9-2.3c-0.1-0.5-0.9-1.5-0.9-1.8c0-0.8,1.9-1.3,0.7-3.2c-0.2-0.3-0.5-0.6-0.6-0.9
			c-0.1-0.2,0-0.4,0.2-0.5l0.3-0.4c0.2-0.3,0.4-0.8,0.4-1.2c0-1.3-0.7-1.3-1.2-1.6c0.1-0.4,0.1-0.5,0.4-0.8c0.2-0.3,0.2-0.5-0.1-0.7
			C17.1,47.2,16.7,48.1,16.7,48.7L16.7,48.7z M26.5,53c0,1.4,1.8,1.2,0.8,3.2c-0.7,1.2,0.1,1.8,0.5,1.8c0.1,0,0.4-0.2,0.6-0.2
			c1-0.6,1.5-2.2,1.6-3.3s-0.1-2.1-1.4-2.4c-0.5-0.1-0.8-0.1-1.3,0.1c-0.2,0.1-0.4,0.2-0.5,0.3C26.6,52.5,26.5,52.7,26.5,53L26.5,53
			z M37.5,64.1L37.5,64.1l-0.2,0.1C37.4,64.1,37.3,64.1,37.5,64.1L37.5,64.1z M37.1,63.9c0,0.4,0,0.1,0.2,0.5h0.4
			c-0.2-0.3-0.1,0-0.1-0.7C37.4,63.7,37.5,63.8,37.1,63.9L37.1,63.9z M31.1,67.8c0,0.3,0.1,0.4,0.3,0.6c0.1-0.2,0.2-0.2,0.1-0.5
			c0,0,0,0,0-0.1l-0.1-0.4C31.2,67.5,31.1,67.6,31.1,67.8L31.1,67.8z M23.4,68.5c0,0.4,0.1,0.2,0.2,0.6c0.1-0.1,0.1-0.1,0.3-0.1
			c0-0.4-0.1-0.5-0.1-0.8c-0.3,0-0.1,0-0.3,0.1c-0.3,0.3,0.2-0.2-0.1,0.1C23.4,68.5,23.5,68.4,23.4,68.5L23.4,68.5z M27.1,51
			c0,0.5,0,0.6,0.4,0.7l0.1-0.7l-0.3-0.2C27.1,50.8,27.1,50.8,27.1,51L27.1,51z M24.5,50.8c0,1.2,0.5,0.5,0.5,0
			c0-0.2-0.2-0.3-0.4-0.3C24.5,50.7,24.5,50.7,24.5,50.8L24.5,50.8z M27.9,50.9c0,0.7-0.1,0.7,0.4,0.7c0-0.2,0.1-0.9-0.2-0.9
			C27.9,50.7,27.9,50.7,27.9,50.9L27.9,50.9z M23.8,51.7c0.2-0.2,0.1,0,0.2-0.2s0.4-0.4-0.2-0.8c-0.2,0.2-0.2,0.2-0.2,0.5
			C23.6,51.4,23.6,51.6,23.8,51.7L23.8,51.7z M28.7,39.4c0,0.3,0.2,0.4,0.4,0.5c0.2-0.1,0.2-0.1,0.4-0.2l-0.3-0.4
			c-0.2-0.2-0.1-0.2-0.4-0.2C28.7,39.3,28.7,39.3,28.7,39.4L28.7,39.4z M28.9,71.6c0.3-0.2,0.2-0.1,0.2-0.8c0-0.2-0.1-0.2-0.2-0.3
			C28.6,70.8,28.5,71.4,28.9,71.6L28.9,71.6z M22.2,51.6c0,0.5,0.1,0.3,0.1,0.7h0.2c0.1,0,0.1,0,0.3,0
			C22.9,51.5,22.2,51.3,22.2,51.6L22.2,51.6z M35.7,41.3h-0.2c0,0.5-0.2,0.3,0.1,0.7c0.4-0.1,0.7-0.6,0.7-0.6c0-0.2,0-0.1-0.1-0.3
			C36,41.3,35.9,41.3,35.7,41.3L35.7,41.3z M22.8,51.3c0,0.4,0.2,0.5,0.5,0.6c0.4-0.6-0.1-0.9-0.4-1C22.8,51.3,22.8,51.1,22.8,51.3
			L22.8,51.3z M28.4,51.3c0,0.2,0.2,0.4,0.3,0.4c0.2-0.1,0.6-0.8,0.1-1.1C28.5,50.8,28.4,51.1,28.4,51.3L28.4,51.3z M26.3,38.2
			l0.4,0.1c0.1-0.2,0-0.1,0.2-0.2c0-0.3,0-0.2-0.1-0.4l-0.2-0.4c-0.6,0.1-0.3,0.5-0.3,0.6C26.3,38,26.2,37.8,26.3,38.2L26.3,38.2z
			 M36.8,39.4c0,0.2,0.2,0.4,0.3,0.4l0.2-0.2c0,0,0.4-0.2,0.4-0.3c0-0.2,0-0.1-0.1-0.3c-0.3,0.1-0.3,0.1-0.6,0
			C37,39.1,36.8,39.4,36.8,39.4L36.8,39.4z M30.5,69.1c0,1.2,0.6,0.9,0.6,0.3L31,69.1c-0.1-0.2,0-0.1-0.1-0.3
			C30.6,68.9,30.8,69,30.5,69.1L30.5,69.1z M35,69.3c0,0,0.3,0.8,0.6,0.6c0.2-0.1-0.1-0.9-0.1-1C35.3,69,35.2,69.1,35,69.3L35,69.3z
			 M29.6,70.2c0,0.4,0.1,0.6,0.3,0.8c0.5-0.3,0.3-1,0-1.2C29.8,70,29.8,70.1,29.6,70.2L29.6,70.2z M35.3,42.7c0,0.6,0.8,0.1,0.8-0.2
			c0-0.2,0-0.1-0.1-0.3C35.4,42.3,35.3,42.3,35.3,42.7L35.3,42.7z M36.5,70.2c0,0.2,0.1,0.3,0.3,0.4c0.1,0.1,0,0.1,0.2,0.1
			c0.5,0.2,0.3-0.7-0.1-1C36.8,69.8,36.5,70.2,36.5,70.2L36.5,70.2z M29.4,52.2c0.4-0.4,0.4-0.2,0.4-1
			C29.7,50.6,28.8,51.4,29.4,52.2L29.4,52.2z M24.1,69.7c0.2,0.9,0.6,1.1,0.6,0.7c0-0.6,0-0.5-0.1-1C24.2,69.4,24.3,69.4,24.1,69.7
			L24.1,69.7z M36,40c0,0.3-0.1,0.3-0.1,0.4c0.1,0.2,0.1,0.2,0.1,0.4c0.3-0.1,0.2-0.1,0.5-0.1c0-0.4,0.1-0.2,0.1-0.7
			C36.4,40,36.4,40,36,40L36,40z M27.6,71.3c0.1,0.5,0.1,0.5,0.5,0.7c0.5-0.8-0.1-1-0.3-1.1C27.7,71.1,27.7,71.1,27.6,71.3
			L27.6,71.3z M34.5,67.6c0,0.4,0.2,0.5,0.5,0.6c0.3-0.6,0.3-0.7-0.2-1C34.7,67.2,34.5,67.4,34.5,67.6L34.5,67.6z M25.1,38.5
			c0,0.2,0.2,0.4,0.4,0.4c0.3,0,0.2-0.2,0.2-0.5c0-0.1,0.1-0.5-0.1-0.5c-0.1,0-0.3,0.1-0.4,0.2C25.2,38.2,25.1,38.3,25.1,38.5
			L25.1,38.5z M23.6,39.6v0.3c0.5,0.3,0.5,0.4,0.5-0.4c0.4,0,0.1,0.1,0.3-0.2c-0.3-0.3,0-0.2-0.6-0.2C23.8,39.3,23.6,39.4,23.6,39.6
			L23.6,39.6z M25.2,70.7c0.1,0.3,0.1,0.4,0.2,0.7h0.4c0.1-0.3,0.1-0.4,0.1-0.7c-0.2-0.2-0.2-0.2-0.5-0.3
			C25.4,70.6,25.3,70.5,25.2,70.7L25.2,70.7z M26.5,71.3c0,0.2,0.2,0.7,0.4,0.7c0.2,0,0.2-0.1,0.4-0.2v-0.6C27,71.1,26.9,71,26.6,71
			C26.5,71.2,26.5,71.2,26.5,71.3L26.5,71.3z M25.2,50.6c0,0.6-0.2,0.5,0.1,1c0.6-0.3,0.6-0.4,0.4-1.2
			C25.4,50.5,25.5,50.5,25.2,50.6L25.2,50.6z M27.4,38.2c0,0.3,0,0.3,0.1,0.5l0.3,0.2l0,0l0.4-0.2C28.1,38,27.4,37.7,27.4,38.2
			L27.4,38.2z M26.2,52c0.3-0.1,0.2,0,0.4,0c0.3-0.1,0.2-0.2,0.2-0.6c0-0.4-0.1-0.5-0.4-0.7C25.9,51.1,26,51.2,26.2,52L26.2,52z
			 M26.6,30.8c0.5-0.3,0.5-0.5,0.5-1c0-0.3-0.3-0.3-0.5-0.4c-0.1,0.4-0.3,0.1-0.3,0.7C26.3,30.5,26.4,30.6,26.6,30.8L26.6,30.8z
			 M34.5,45.5c0,0.5,0.2,0.6,0.6,0.5c0.7-0.1,0.9-0.1,0.7-0.8C35.7,45.1,34.5,45,34.5,45.5L34.5,45.5z M34.5,64.2
			c0,0.3,0.3,0.4,0.6,0.5c0.9,0.5,0.9-0.4,0.5-0.8c-0.2-0.2-0.4-0.2-0.7-0.3C34.7,63.8,34.5,63.9,34.5,64.2L34.5,64.2z M32.6,36.7
			c0,1,0.7,1.6,0.7,2.5c0.3-0.2,0.1-0.1,0.2-0.4c0.1-0.2,0.1-0.2,0.2-0.4c0.6-0.8,0.1-1.4-0.4-2l-0.1-0.2c-0.1-0.1,0-0.1-0.2-0.1
			S32.6,36.4,32.6,36.7L32.6,36.7z M45.8,36.2c0.5-0.3,0.1-0.3,0.6-0.6l0.2,0.7c0.1-0.3,0.1-0.1,0-0.4h1.3c0.4-0.9,0.4-0.1,0.4-0.9
			c0-0.2,0-0.3-0.1-0.4c-0.3-0.3-0.7-0.2-1.1-0.2C46.4,34.4,45.8,35.4,45.8,36.2L45.8,36.2z M38.9,49.8c0,0.5,0.1,0.3,0.3,0.4
			c0.2,0.1,0,0.1,0.1,0.1C39.8,50.3,38.9,49.1,38.9,49.8L38.9,49.8z M39.7,64.4l0.2,0.4c0.1,0.1-0.1,0.2,0.4,0.2
			c0.1-0.4,0.1-0.5-0.1-0.8C40,64.2,40.1,64.3,39.7,64.4L39.7,64.4z M42.5,40.4h-0.2l0.1,0.7c0.5-0.1,0.6-0.3,0.5-0.8
			C42.7,40.4,42.7,40.4,42.5,40.4L42.5,40.4z M40.3,50.2c0.4,0.8,0.5,0.6,0.7,0.4c-0.1-0.3-0.2-0.4-0.3-0.7h-0.3
			C40.4,50.1,40.4,50,40.3,50.2L40.3,50.2z M37.8,57.9c0,0.4,0.8,0.1,0.8,0.1c0.1,0,0.2-0.2,0.2-0.3c0-0.2-0.5-0.3-0.8-0.1
			C37.9,57.8,37.8,57.8,37.8,57.9L37.8,57.9z M38.3,64.2v0.2c0.2,0.1,0.1,0,0.1,0.3c0.3,0,0.7,0.2,0.6-0.2v-0.1c0,0,0.1-0.3-0.4-0.4
			C38.5,64.2,38.5,64.1,38.3,64.2L38.3,64.2z M42.2,69.9c0.4,0,0.6-1.2-0.2-0.7c-0.2,0.1-0.2,0.2,0,0.5C42,69.7,42,69.9,42.2,69.9
			L42.2,69.9z M41,65.4c0,0.3,0.7,1.2,0.7-0.1C41.6,64.9,41,65.3,41,65.4L41,65.4z M41.6,67.3c0.1,0.4,0.1,0,0.1,0.6h0.4
			c0.1-0.3,0.2-0.5,0.1-0.8c-0.3,0-0.2,0-0.5,0.1L41.6,67.3L41.6,67.3z M42.5,54.8c0,0.2,0.1,0.1,0.1,0.4c0.3,0,0.4-0.1,0.5-0.3
			l0.2,0.2c0.1-0.2,0.1-0.3,0.2-0.5c-0.2,0-0.1,0-0.3,0C42.9,54.4,42.5,54.6,42.5,54.8L42.5,54.8z M42.7,39.1c0.6,0,0.8-0.8,0.4-0.9
			h-0.4C42.6,38.6,42.7,38.8,42.7,39.1L42.7,39.1z M38.4,38.4l0.2,0.3c0.2,0,0.4-0.1,0.6-0.2c0.3-0.1,0.3-0.3,0.3-0.5
			c-0.5,0.1-0.5,0-0.8,0C38.6,38.2,38.5,38.2,38.4,38.4L38.4,38.4z M42.7,53.6c0,0.5,0.4,0,1,0.1c0-0.2,0-0.3,0.1-0.4
			c-0.2,0-0.4-0.1-0.6-0.1c-0.1,0.1-0.1,0.1-0.3,0.2C42.7,53.4,42.7,53.4,42.7,53.6L42.7,53.6z M38.8,45.2c0.4,0.7,0.6,0.3,0.6,0.3
			c0.3-0.2,0.3-0.3,0.3-0.6c-0.5,0-0.3-0.1-0.7-0.1C39,45.2,39,44.9,38.8,45.2L38.8,45.2z M39.1,57.8c0,0.2,0.2,0.3,0.4,0.3
			c0.1,0,0-0.1,0.3-0.2c0.3-0.1,0.4,0,0.5-0.4c-0.1-0.1-0.5-0.1-0.6-0.1C39.4,57.4,39.1,57.6,39.1,57.8L39.1,57.8z M42.2,52.7
			l0.2,0.2c0.2,0,0.4-0.3,0.5-0.4c0.2-0.2,0.2,0,0.2-0.5h-0.6C42.4,52.3,42.3,52.3,42.2,52.7L42.2,52.7z M41.4,71.6
			c0.4,0,0.3,0,0.5-0.2c0.3-0.2-0.1-0.1,0.2-0.2c0-0.4-0.1-0.4-0.6-0.4C41.5,70.8,41.1,71,41.4,71.6L41.4,71.6z M39.9,70.9
			c0,0.4-0.2,0.1,0,0.5l0.1,0.1c0.1,0.1,0.1,0.1,0.2,0.2c0.4,0.1,0.4-0.5,0.4-0.8l-0.2-0.2C40.1,70.8,40.3,70.9,39.9,70.9L39.9,70.9
			z M41.5,50.7c0,0.1,0,0.2,0,0.3c0.1,0.6,0.1,0.7,0.5,0.7c0.1-0.4,0.1-0.5,0-0.9C42,50.3,41.9,50.6,41.5,50.7L41.5,50.7z
			 M40.3,44.9c0.1,0.2,0.1,0.2,0.3,0.3c0,0.3,0.8-0.3,0.7-0.6c-0.1-0.2,0.1-0.1-0.7-0.2c0,0.1-0.1,0.2-0.1,0.3
			C40.4,44.8,40.4,44.8,40.3,44.9L40.3,44.9z M38.1,70.9c0,0.3,0.1,0,0.1,0.4c0.3,0,0.3,0.1,0.7,0.1l-0.2-0.8
			C38.4,70.2,38.1,70.9,38.1,70.9L38.1,70.9z M40.4,57.1c0.1,0.1,0.1,0.1,0.1,0.3c0.5,0,0.5-0.2,0.7-0.3c0.3-0.2,0.4,0,0.4-0.3
			C41.6,56.4,40.8,56.5,40.4,57.1L40.4,57.1z M40.9,38.2c0.4-0.1,0.9-0.1,0.9-0.8c-0.6,0-0.7-0.2-0.9,0.2
			C40.7,37.8,40.8,37.9,40.9,38.2L40.9,38.2z M42.5,37.5c0,0.2,0,0.2,0.1,0.4h0.6c0.6-0.8,0.4-0.8-0.4-0.8
			C42.7,37.2,42.5,37.3,42.5,37.5L42.5,37.5z M41.8,56.1c0,0.5,0.7,0.2,0.9,0.1h0.1c0.2-0.7,0.1-0.5-0.5-0.7
			C42.1,55.6,41.8,55.8,41.8,56.1L41.8,56.1z M50.7,55.6l0.5,0.1c0.3,0.1-0.2,0.1,0.3,0.1c0.2,0,0.7-0.4,0.7-0.5l-0.1-0.1
			c-0.3-0.3-0.8-0.4-1.2-0.4C50.8,54.9,50.7,55.4,50.7,55.6L50.7,55.6z M46.3,70.2c0.2,0.5-0.2,0.1,0.4,1c0.1,0.2,0,0.1,0.2,0.2
			c0.3,0.2,0.9,0.5,1.3,0.4c0-0.2-0.1-0.3-0.2-0.5c-0.4-0.5-0.4-0.5-0.7-0.6s-0.3-0.1-0.5,0v-0.1C46.8,70.3,46.5,70.2,46.3,70.2
			L46.3,70.2z M38.2,41.7l0.1,0.4c0.4,0.2,0.7,0.1,1.1-0.1c0,0,0.1,0,0.1-0.1c0.1-0.1,0,0,0.1-0.1c0.2-0.1,0,0.1,0.2-0.1
			c0.1,0,0.6-1.1-0.5-1.1c-0.3,0-0.5,0.1-0.7,0.3l0,0c-0.1,0.1,0,0-0.1,0.1C38.2,41.4,38.2,41.4,38.2,41.7L38.2,41.7z M38.6,68.8
			c0.2,0,0.4-0.1,0.6-0.2c0.7-0.4,0.2-1.3-0.1-1.5c-0.2-0.1-1.7-0.7-1.4,1c0.1,0.5,0.1,0.2,0.6,0.5C38.5,68.7,38.4,68.8,38.6,68.8
			L38.6,68.8z M41,35c0.4,0,0.7-0.2,1-0.4c1.7-0.8,0.9-1.6,0.7-2.4c-0.5,0-0.5,0.1-0.7,0.4c-0.5,0.7-0.1,0.9-0.5,1.8
			C41.3,34.7,41.2,34.7,41,35L41,35z M34.2,35c0,0.6,0.1,0.7,0.2,1.1c0.1,0.5,0,0.8,0.1,1.2c0.1-0.1,0.9-1.2,1-1.5
			c0.3-0.9-0.2-1.3-0.5-1.9C34.7,34.2,34.2,34.6,34.2,35L34.2,35z M22.5,54.1c0,0.9,0.1,0.9,0.3,1.8c0.1,0.5,0.2,0.9,0.5,1.3
			c0.2,0.2,0.7,0.6,1.1,0.5c1.5-0.5,0.2-2.2,0.2-2.3c0-0.2,0.1-0.5,0.2-0.7c0.2-0.4,0.3-0.3,0.7-0.7c1-1,0.1-2.3-0.6-2.3
			C23.5,51.7,22.5,52.5,22.5,54.1L22.5,54.1z M46.3,72.6L46.3,72.6L46.3,72.6L46.3,72.6z M36.6,67.1c0-1.6,0.2-1.3,0.9-1.2
			c1.9,0.3,1.9,0.2,2.6,1.2c0.6,0.9,0.3,2.1,0.6,2.5c-0.3,0-0.3,0-0.5,0c-0.6,0-0.8,0.1-1.7-0.2c-0.4-0.1-0.6-0.2-1-0.4
			c-0.4-0.3-0.4-0.3-0.6-0.8C36.8,68,36.6,67.4,36.6,67.1L36.6,67.1z M12,69.2c0-0.4,0.1-0.4,0.1-0.7c0-0.5-0.1-1.4,0.3-2
			c0.1-0.2,0.2-0.2,0.3-0.4c0.4-0.6,1.2-0.6,1.9-0.6c1.3,0,1.3,0,1.3,0.4c-0.1,1-0.3,1.2-0.8,2C14.6,68.6,13,69.1,12,69.2L12,69.2z
			 M30.2,66.6c0,0.4,0,0.7-0.2,0.9c-0.4,0.5,0.2-0.4-0.1,0.1c-0.1,0.1-0.7,2.2-2.4,2c-0.6-0.1-1.5-0.4-1.8-0.7
			c-0.3-0.3-1-1.1-1.1-1.4l-0.2-2.1h1.1v0.7c0,0.9,0.8,1.8,1.3,2c0.3,0.1,0.5,0.2,0.8,0.1c1.2-0.4,1.5-1.1,1.2-2.3
			c0-0.2-0.1-0.2-0.1-0.4l1.6,0.1C30.2,66.1,30.2,65.8,30.2,66.6L30.2,66.6z M27.2,67.6c-0.9,0-1-1.1-1.1-1.5c0-0.3-0.2-0.4-0.3-0.6
			c0.5,0,0.9,0,1.4,0s0.8-0.1,0.9,0.4C28.3,66.8,28.3,67.6,27.2,67.6L27.2,67.6z M23.1,65.5c0.1,0,0.3-0.1,0.4-0.1
			c0.7,0-0.4,1,0.6,2.7c2.2,3.6,6.8,2.3,6.8-1.5c0-0.7,0-0.5-0.1-1h0.5c0.1,0.2,0.1,0.2,0.2,0.5c0.2,0.6,0.4,0.4,0.4,1
			c0.1,1.6-0.8,3.3-1.8,4.4c-0.3,0.3-0.1,0.3-0.2,0.4L29.7,72c-0.2,0.2-0.3,0.3-0.2,0.6c-0.2-0.1-0.2-0.1-0.4,0l-0.8,0.9
			c-1,1.3-0.5,1.2-0.9,1.3c0-0.5-0.4-1.2-0.7-1.5l-1-1.1c-0.7-0.7-1.2-1-2-2.3C22.2,67.8,23.1,66.8,23.1,65.5L23.1,65.5z M8.4,74.8
			c-0.2-0.4-0.3-2.3-0.3-2.9c-0.2-1.9-0.4-3.8,0.1-5.7c0.1-0.5,0.8-1.8,1.2-2.1c0,0.3-0.1,0.3-0.2,0.6C9,64.8,9,65.1,8.9,65.2
			C8.4,67,8.7,69.1,9,70.8c0.1,0.6,0.1,0.9,0,1.4c-0.1,0.9-0.2,1-0.2,1.3c0.4,0,0.5-0.1,0.8-0.2c1.1-0.3,2.7,0.3,5-0.7
			c0.2-0.1,0.4-0.2,0.6-0.3c1.1-0.4,2.7-1.5,3.3-2.4c0.2-0.4,0.3-1,0.6-1.2c0,0.6-0.1,0.6-0.2,0.8c-0.1,0.2-0.2,0.5-0.3,0.7
			c-0.1,0.2-0.2,0.5-0.4,0.7l-1,1.1c-0.5,0.6-1.3,0.9-1.9,1.2c-0.5,0.2-0.3,0.2-0.8,0.3c-0.4,0.1-0.4,0.2-0.8,0.2L10,74.3
			C9.3,74.5,9,74.6,8.4,74.8L8.4,74.8z M19,69.1L19,69.1L19,69.1L19,69.1z M41.2,68.2c0-0.2-0.1-0.2-0.1-0.4c0-0.3-0.1-0.5-0.2-0.8
			c-0.1-0.3-0.2-0.5-0.4-0.7c-0.2-0.3-0.9-0.8-1.2-0.8c-0.9-0.2-1.9-0.2-2.8-0.2c0-0.3-0.1-0.2-0.1-0.7c0-0.2,0-0.3,0-0.4
			c0-0.2-0.1-0.2,0-0.4l0.1-0.4c0.1-0.7,0.2-0.5,0.3-0.5H37l0,0c0.3,0-0.1-0.1,0.2,0c0.4,0.1-0.1,0.2,0.6,0.1c1.1-0.1,0.5,0,1.1,0.2
			c0.4,0.2,0.5-0.2,1.9,0.3c1,0.3,1.5,1.3,1.8,2.2c0.3,0.8,0.5,2.4,0.5,3.4c0,0.4,0.1,1,0.1,1.5c0.1,1.1,0.2,0.8,0.3,1.3L42.6,72
			c-0.2,0,0.1,0-0.2,0c-0.9,0.1-0.4,0-1,0h-1.5c-1.3,0-0.3,0.1-1.4-0.1c-1.2-0.2-1.9-0.7-2.8-1.2c-2-1.2-1.3-3.1-1.3-4.5
			c0-0.7,0.2-0.5,1-0.5c0.4,0,0.5-0.2,0.5,0.2c0.1,1-0.4,2.1,0.8,3.3c0.4,0.4,1.2,0.8,1.9,0.9l2.1,0.2c0.1,0,0.2-0.3,0.7,0.1
			c0-0.5,0-0.6-0.1-1C41.2,68.9,41.3,68.4,41.2,68.2L41.2,68.2z M44.2,69.8L44.2,69.8C44.2,69.7,44.2,69.7,44.2,69.8
			c0.4-0.7-0.5-3.8-0.8-4.4c-0.1-0.4-0.6-1.2-0.8-1.4c-0.2-0.2-0.4-0.4-0.4-0.6c0.3,0.1,0.4,0.1,0.6,0.3c0.2,0.1,0.3,0.2,0.5,0.3
			c0.2,0.2,0.2,0.3,0.5,0.4c0.7,0.5,1,1.4,1.1,2.2c0,0.1,0,0.4,0.1,0.6c0.1,0.5,0,1.1,0.1,1.6c0.1,0.9-0.1,2.3,0.2,3.2
			c0,0.2,0,0.1,0.1,0.3c0.1,0.4,0.3,0.7,0.3,0.9c-0.6-0.1-2.8,0.1-3.5,0.2c-0.2,0-0.6,0-0.8,0c-0.1,0,0.1,0-0.2,0.1
			c-0.1,0-0.1,0-0.2,0c-0.7,0-2.1-0.1-2.6-0.3c-0.1,0-0.1,0-0.2-0.1c-1-0.3-1-0.2-2-0.9c-0.6-0.4-1.7-1.2-1.7-2
			c0.2,0.2,0.6,0.7,0.8,0.9l0.8,0.4c0.8,0.5,2.2,0.9,3,0.9s1.4,0.2,2.1,0.2c1,0,0.5,0,0.7-0.5c0.3,0.2,0.1,0,0.1,0.4
			c0.5,0,1,0.1,1.6,0c0.2,0,0.1-0.1,0.3-0.1s0.2,0.2,0.9,0c-0.4-0.7-0.1-0.3-0.1-0.8s-0.1-0.7-0.1-1C44.4,70.1,44.5,70,44.2,69.8
			L44.2,69.8z M34.3,64.1c0-0.3,0.1-0.3,0.1-0.6c0-0.1-0.1-0.3-0.1-0.5h1.2c0.5,0,0.6-0.1,0.6,0.4c0,0.8-0.3,1.2-0.1,1.9
			c-0.3,0-0.6,0-0.9,0c-0.2,0-0.5-0.1-0.8-0.1v-0.8C34.3,64.1,34.3,64.4,34.3,64.1L34.3,64.1z M9.3,66.5c0-0.9,0.8-2.4,1.3-2.9
			c0.8-0.9,1.6-1.2,2.9-1.2l2.4,0.1l-0.1,2.4c-0.5,0-0.7-0.1-1.3-0.1c-0.8,0-1.6,0.2-2.2,0.6c-0.1,0.1-0.2,0.1-0.3,0.2
			c-0.8,1-0.7,2.5-0.8,3.6c0,0.2,0,0.1,0,0.4c0,0.4-0.1,0.4,0.1,0.4l1.1-0.2c0.9-0.2,1.4-0.3,2.2-0.8c0.4-0.2,0.9-0.6,1.2-1.1
			c0.2-0.5,0.6-1.1,0.6-1.6c0.1-0.6-0.2-1,0.4-1c0.9,0.1,1.8-0.3,1.8,0.2c0,1.7,0.1,1.1-0.4,2.8c-0.2,0.6-0.3,0.8-0.7,1.3
			c-1.1,1.5-3.1,2.3-4.9,2.7c-1.2,0.2-0.9,0.1-1.6,0.2c-0.5,0.1-1.1,0.1-1.6,0.2c0-0.3,0-0.4,0.1-0.6v-0.3v-0.6c0,0,0-0.2,0-0.3
			C9.7,69.3,9.3,68.4,9.3,66.5L9.3,66.5z M19.5,62.5l3.7,0.1c1.2,0,3.5-0.1,4.4,0l2.7,0.3c0.5,0,0.9,0.1,1.4,0.1l1.9-0.1v1
			c0,0.2,0,0.1,0,0.4c0,0.3,0,0.6,0,0.8L31,65c-0.9,0-1.8,0-2.7,0c-1,0-1.5-0.1-2.5-0.1c-0.5,0-0.9,0-1.4,0c-0.8-0.1-0.5,0-1.1,0
			l-3.2-0.1c-0.8,0-0.7,0-0.7-0.7c0.3,0.1,0.2,0.2,0.5,0.3c1.5,0.6,2.4-0.7,2.9-0.7c0.8,0,1,0.9,2,0.9c1.1,0,1.8-1.7,3.5-0.6
			c0.3,0.2,0.5,0.5,1,0.5c1.1,0,1.5-0.6,2.1-0.5c0.5,0.1,0.5,0.2,1,0.4c0,0,0,0,0.1,0h0.4c0.3,0,0.3-0.1,0.5-0.1
			c-0.1-0.2-0.2-0.4-0.4-0.5l-0.3-0.2c-1.8-0.9-2.5,0.2-3,0.2s-0.7-0.4-1.5-0.7c-2.2-0.7-2.6,1.8-4.2,0.3c-1.1-1.1-2.2,0.4-2.7,0.4
			c-1,0-0.8-0.6-1.2-0.6c-0.6,0-0.5,0.2-0.6,0.1c-0.1-0.1,0-0.2,0-0.5L19.5,62.5L19.5,62.5z M16.6,64.6c0-0.5,0-0.8,0.1-1.2
			c0.2-1.2-0.7-1.1,2.3-0.9l-0.1,2.4h-0.7c-1,0.1-0.8,0-1.5,0L16.6,64.6L16.6,64.6z M36.9,59.3c0.2-0.3-0.1-0.3,0.7-0.1
			c0.2,0.1,0.5,0.1,0.8,0.1c1,0,1.7,0.1,2.7-0.2c0.5-0.2,1.7-0.9,1.9-1c-0.3,0.4-2,1.3-2.4,1.5c-0.3,0.1-0.6,0.2-1,0.2
			c-1.3,0-1.3,0.1-2-0.3C37.2,59.2,37.3,59.4,36.9,59.3L36.9,59.3z M0.7,53c0-1.2,1.4-1.3,2.1-0.3c-0.1,0-0.1,0-0.2,0.1
			c-0.3,0.1-0.6,0.4-0.8,0.6C2,53.5,1.7,53.5,2,53.5c0.8,0,0.4,0,1-0.1C3.2,54,4,54,4.3,53.5c0.2-0.4-0.2,0.3,0.1-0.1l0,0l0,0
			c0.5,2.1,2.2,0.5,2.3,0.4c0,0.3-0.3,0.7-0.4,0.8c-0.6,0.7-1.5,0.4-1.7,0.1l-0.1-0.2l0,0c-0.6,0-0.6,0.8-1.4,0.1l0,0l-0.4-0.3l0,0
			L2.6,54c-0.3,0-0.3,0.2-0.7,0.2S0.7,53.9,0.7,53L0.7,53z M37.1,54.7c0-0.3,0.1-0.5,0.1-1c0-0.6-0.1-0.7,0.3-0.6
			c0.2,0,0.7,0.1,0.9,0.1c0.8,0.3,0.3,1.5-0.6,1.5H37.1L37.1,54.7z M15.9,55c-0.5-0.1-0.9-0.6-0.9-1s0.3-1,0.9-1.1V55L15.9,55z
			 M53.1,55.3c-0.1,0.8-1,1.6-1.6,1.5c-0.1,0-0.4-0.2-0.8-0.2c0,0.1,0,0.1-0.1,0.1L50.4,57c-0.5,0.5-0.9,0.1-1.2-0.3
			c-0.1-0.1,0.2-0.1-0.2-0.1c-0.2,1-1.9,1.4-2.6,0.3c-0.2-0.3-0.3-1-0.2-1.3c0.6,0.4,0.4,1,1,1c0.5,0,0.6,0,1-0.4
			c0.5-0.5,0-0.2,0.6-0.5c0.2,0.1,0.3,0.3,0.4,0.3c0.6,0,1-0.6,0.9-1.1c-0.1-0.2-0.2-0.5-0.5-0.5c-0.4-0.1-0.8,0.3-0.8-0.3
			c-0.5,0-0.4,0-0.5-0.3c-0.4,0-0.7-0.1-1.1,0c-0.2,0.1-0.9,0.7-0.9,0.2c0-0.6,0.4-1.5,1-1.5c0.8,0,1.4,0.7,1.5,1.1
			c0.5,0,0.2-0.2,0.5-0.2c0.6,0,0.8,0.1,1.2,0.7c1,0,1.3,0.1,1.9,0.7C52.9,55.3,52.7,55.1,53.1,55.3L53.1,55.3z M7.3,53.3
			c0.3,0,0.9-0.3,1.1-0.4c0.2-0.1,0.3-0.2,0.5-0.3l0.3-0.2c1-0.3,0.7-0.4,1.4-0.8l2.4-1.4c1-0.5,1.7-0.6,2.9-0.6
			c0,0.4,0.1,0.6,0.1,1.1c-0.3-0.2-0.3-0.2-0.7-0.1c-1.3,0.2-1.4,0.7-2,1.3l-0.4,0.5c-0.2,0.3-0.3,1-0.3,1.3c0,0.9,0.5,1.7,1.1,2.2
			c0.9,0.8,1,0.8,2.3,1.1c0,0.3,0,0.6,0,1c0,0.3,0.2,0.7-0.1,0.7c-0.6,0-1.1-0.1-1.7-0.3L12.9,58c-0.5-0.3-0.6-0.3-1-0.7
			c-0.2-0.1-0.4-0.2-0.5-0.3L10,55.8c-0.1-0.1-0.1-0.1-0.2-0.2l-1.1-1.1c-0.1-0.1-0.3-0.2-0.5-0.4s-0.7-0.6-1-0.6v-0.2H7.3z
			 M13.3,53.7c0-0.8,0.4-1.5,0.8-1.8c1.1-0.8,1-0.6,1.9-0.6c0,0.4,0.1,0.5,0.1,0.9c-0.4,0.2-0.9,0.3-1.2,0.6c-1,0.9-0.7,2.8,1.1,2.9
			v0.5c-0.2-0.1-0.7-0.1-1.1-0.3C14.2,55.7,13.3,54.7,13.3,53.7L13.3,53.7z M4.5,51.9c0.1-0.3,0.1-0.4,0.4-0.6
			c1-0.7,2.2,0.1,2.2,1.5H6.8c-0.3-1.3-2-1.2-2.2-0.1c-0.6,0-0.4-0.4-0.8-0.2c-0.3,0.1-0.3,0.4-0.5,0.6C2.9,53,3,52.8,2.9,52.5v-0.3
			c0-0.4,0.2-0.7,0.5-0.9C3.9,51.3,4.1,51.7,4.5,51.9L4.5,51.9z M37.4,52.3c-0.3-0.1,0-0.1-0.2-1c0.1-0.1,0.9-0.1,1.3-0.1
			c2.4,0.1,2.7,3,1.5,4.2l0,0l-0.2,0.2c-1.1,1-1.8,0.6-2.8,0.5v-0.7c0.7,0.1,1.3,0.1,2-0.4s0.9-1.4,0.3-2.1
			C38.6,52.1,38,52.5,37.4,52.3L37.4,52.3z M41.3,49.8c0.5,0.2,0.9,0.4,1.2,0.8c0.1,0.1,0.2,0.2,0.3,0.3c0.4,0.3,0.9,1,1.2,1.4
			c0.4,0.6,0.2,0.3,0.5,0.4c0,0.8,1,1.5,1.3,2c-0.2,0.3-0.2,0.2-0.5,0.4c-0.4,0.2-0.8,0.5-1.1,0.8C44.1,56,44.1,56,44.1,56l-0.7,0.6
			c-1.2,1.2-3.4,2.3-5.3,2c-1.7-0.2-1.1-0.5-1.1-1.7c1.2,0.3,2.1,0.3,3-0.4c0.6-0.4,1.5-1.4,1.5-2.4c0-0.7-0.1-1.6-0.5-2.1
			c-0.7-1.1-1.1-1.5-2.8-1.6c-1.2,0-0.9,0.5-0.9-0.8C38.9,49.5,39.5,49.1,41.3,49.8L41.3,49.8z M20.3,56.3c0-0.3,0.4-0.8,0.4-1.4
			c0-0.8-0.3-0.3-0.2-2c0.1-1-0.4-1.3-0.4-1.8s0.3-0.4,0.3-0.7c0-1.2-0.5-1.3,0.3-2c0.2-0.2,0.4-0.2,0.8-0.2l0.1,0.2
			c-0.1-0.4,0-0.2,0.6-0.3c0.3,0,0.4-0.2,0.8-0.2c0.5,0,0.7,0.1,1.1,0.1s0.7-0.1,1.3-0.1c0.4,0,0.5,0.1,0.9,0.1s0.7-0.1,1.3-0.1
			c1,0,1.2,0.3,2.4,0.1c0.6-0.1,1.1,0.2,2.3,0.2v0.7c0,0.1,0,0.1,0.1,0.3c0.3,1.2,0,0.8-0.1,1.5c-0.1,0.6,0.4,1.1,0.2,1.8
			c-0.1,0.2-0.3,0.5-0.3,0.8c0,1.3,0.4,1.2,0,2.1c-0.3,0.8,0.1,1.2,0.1,1.8S32,58,32,58.5c0,0.2,0,0.2,0,0.3c0,0.3,0-0.1,0,0.2
			s0.1,0.2,0.1,0.5c0,0.5-0.3,0.9-0.3,1.5c-0.6,0-0.7-0.1-1.2-0.1c-0.6,0-1.5,0.2-2.4,0.2h-1.3c-0.4,0-0.7,0.1-1,0.1
			c-0.4,0-0.6-0.3-1.8-0.1c-0.3,0-0.5,0.2-0.7,0.2c-0.3,0-0.4-0.1-0.7-0.1c-0.5,0-0.9,0.2-1.3,0.2c-0.2,0-0.7-0.4-0.7-0.6
			c0-0.2,0-0.2,0-0.3c0.1-1.2-0.3-1-0.3-1.7c0-0.4,0.1-0.4,0.1-0.8C20.5,56.6,20.3,56.9,20.3,56.3L20.3,56.3z M16.6,54.1
			c0-0.2,0-0.3,0-0.6c0-1-0.2-0.9,0.1-1v-0.3c-0.3-0.1-0.2-0.1-0.2-0.5v-2c0-0.6-0.1-0.9-0.1-1.3c0-0.5-0.1-0.8-0.1-1.3h1.9
			c0.4,0,0.3,0.1,0.7,0.1L19,51c0,0.7-0.1,1.1-0.1,1.9c0,1.4,0.1,2.5,0,3.8c0,0.2,0,0.3,0,0.5v0.3c0,0.4,0.1,0.4,0,0.8
			c0,0.3,0,0.6,0,0.9l0.1,2.7h-2.1c-0.2,0,0,0-0.2,0v-3.1c0.1-0.9-0.1-1-0.1-1.2c0-0.6,0.1-1.9,0-2.3C16.5,54.5,16.6,54.4,16.6,54.1
			L16.6,54.1z M25.5,47.1c0.3,0,0.2,0,0.4,0h7.2c0.5,0,0.4-0.6,0.4,2.2c0,0.5-0.1,0.7-0.1,1s0.1,0.5,0.1,1c0,0.7,0,1.4,0,2.2
			s0.1,1.4,0.1,2.1v2.8c0,0,0,0,0,0.1V61c0,1.5,0.5,1.2-1.3,1.1c-0.3,0-0.6,0-0.9,0c-1.9-0.2-3.8-0.2-5.8-0.2L23.5,62
			c-0.3,0-0.6,0.1-1,0c-0.9-0.1-1.1,0-1.5,0h-1.1c-0.3,0-0.4,0.3-0.5-0.3v-2.3c0-1.2,0.2-0.8,0.1-1.5c-0.1-0.5,0-1.1,0-1.6
			c0.2,0.2,0.1,0.3,0.2,0.7c0,0.1,0.2,0.5,0.2,0.6c0,0.5-0.4,0.4-0.1,2c0.1,0.5-0.1,0.4-0.1,0.8c0,0.7,0,0.7,0.2,1
			c0.6,0.6,1.4,0.1,2.6,0.3c0.3,0.1,0.4,0,0.8-0.1c0.1,0,0.3-0.1,0.4-0.1c0.2-0.1,0.2-0.1,0.3-0.1c0.5,0,0.9,0.3,1.2,0.3
			c0.8,0,0.8-0.1,1.4-0.1c1.3,0,0.6,0.2,2,0c0.5-0.1,0.6,0,1,0c0.7,0,0.5,0,0.9,0c0.3,0,0.5,0.1,0.8,0.1c0.4,0-0.1-0.1,0.3,0
			s0.3,0.2,0.4-0.2l0.1-0.2c0-0.2,0.1-0.3,0.1-0.5c0.1-0.3,0.2-0.8,0.2-1.1c0-0.5-0.1-0.8,0-1.3c0.1-0.4,0.3-0.8,0.3-1.1
			s-0.2-0.6-0.2-1.1c0-1,0.3-0.5,0.3-1.3c0-1-0.2-0.8-0.2-1.5c0-0.6,0.3-0.4,0.3-1s-0.3-0.9-0.3-1.4c0-0.3,0.2-0.5,0.3-0.9
			c0.1-0.3,0.1,0.1,0.1-0.2c0-0.8-0.2-0.5-0.2-1s0.3-1-0.3-1.3l-2-0.2c-0.4,0-0.7,0.1-1.1,0.1c-0.7,0-0.9-0.4-1.9-0.2
			c-0.4,0.1-0.6,0.2-1,0.1c-1.6-0.2-0.9-0.1-2.1,0c-0.5,0-0.6-0.1-1-0.1c-0.7,0-1.1,0.3-1.9,0.3c-2.4,0-1.6,2.3-1.6,2.4
			c0,0.2-0.3,0.8-0.3,1.1c0,0.2,0.2,0.8,0.2,1.1c0.1,0.5-0.1,0.5-0.1,1c0,0.9,0.6,1.9-0.1,2.7c-0.2-0.7-0.2-4.5-0.2-5.6
			c0-0.5-0.1-0.6-0.1-1.1V47c0.2,0,0.3-0.1,0.5-0.1c0.8,0.1,1.1,0.1,1.9,0L25.5,47.1L25.5,47.1z M35.2,48.2c0-0.6,0.3-0.3,0.1-1.2
			c-1,0.7-1,1.6-0.4,2.6c0.3,0.4,0.5,0.5,0.6,1.1s-0.1,0.7-0.5,1c-0.9,0.9-0.6,1.1-0.2,2.4c0.1,0.4,0.4,0.8,0.4,1.3
			c0,0.6-0.4,0.7-0.6,1.1c-0.5,1.1,0.6,3.1,0.6,3.9c0,0.7-0.2,0.6-0.3,0.7c0,0.4-0.1,0.3,0.2,0.4c-0.1,0.2-0.1,0.1-0.2,0.4l0.2,0.2
			C35.7,61.7,36,61,36,60c0-0.5-0.3-0.8-0.5-1.2c-0.3-0.6-0.2-0.6-0.3-1.1c-0.1-0.4,0.2-0.8,0.4-1.2c1.1-1.6-0.2-2.4-0.5-3.7
			c0.4-0.6,1.1-1.2,1-2C36,49.4,35.2,49.6,35.2,48.2L35.2,48.2z M34.1,47c0.4-0.1,2.1,0,2.8,0c0,0.5-0.1,0.6-0.1,1
			c0,0.3,0,0.8,0,1.1l-0.1,0.3l0,0l0,0c0,0.8-0.1,1.5-0.2,2.3c0,0.3,0.1,0.5,0,0.9c-0.1,0.5-0.2,1.4-0.2,2l-0.1,7.1c0,0.1,0,0,0,0.1
			c-0.2,0.5-0.4,0.1-0.7,0.5c-0.1-0.2-0.1-0.2-0.4-0.2c-0.8,0-0.9,0.4-0.8-0.5c0.1-1.3-0.2-2.7-0.1-3.9c0-0.6,0.1-1,0.1-1.6
			c0-1.1-0.2-2-0.1-2.7c0-0.7,0.1-1.5,0-2.2c-0.1-0.5,0-0.6,0-1s-0.1-0.6-0.1-1C34.1,48.5,34.1,47.8,34.1,47L34.1,47z M42.7,46.2
			C42.6,46.4,42.7,46.2,42.7,46.2C43,46.1,42.7,46.2,42.7,46.2L42.7,46.2z M34.5,39.6c0-0.4,0.5-1,0.7-1.3c0.6-0.6,1.7-1.3,2.3-1.5
			h0.1c0.8-0.1,0.8-0.3,1.3-0.3l4.3-0.6c1.5-0.3,1-0.3,2.1-0.8c0,0.3-0.5,1.6-0.6,2.9l-0.2,1.6c-0.1,1.1-0.2,1.2-0.3,2.3
			c0,0.3,0,0-0.1,0.3c-0.2,0.5,0,0.6-0.3,1.1c-0.1,0.3-0.1,0.3-0.2,0.6c-0.3,0.6-1.2,2-1.4,2l-0.1-0.1c0.2-0.1,0.3-0.2,0.4-0.4
			l0.3-0.7c1.4-3.3,1-4,1.3-7.4c0.1-0.6,0.2-0.7-0.1-1.2c-0.6,0.1,0,0.2-1.3,0.4c-0.4,0.1-1,0.1-1.5,0.1L38.5,37
			c-0.6,0.2-1.8,0.7-2.3,1C35.2,38.6,34.7,39.5,34.5,39.6L34.5,39.6z M16.2,45c0-0.2,0.1-0.6,0.1-0.7c0.2-0.3,1.9-0.4,2.3-0.3
			c0.2,0,0.1-0.1,0.2,0.2v1.9c0,0.7,0.7,0.6-2.6,0.6c0-0.3-0.1-0.3-0.1-0.7v-1H16.2z M35.1,46.5c-1.1,0-1,0.1-1-0.7L34,43.9
			c3.3,0,2.9-0.2,2.9,0.7c0,0.4,0.1,0.4,0.1,0.7l-0.1,0.9c0,0.1,0,0.2,0,0.3L35.1,46.5L35.1,46.5z M33.4,43.9c0,0.3,0.1,0.3,0.1,0.6
			v1.9c-0.6-0.3-3.7,0-4.7,0c-0.8,0-0.5-0.1-1.4,0c-1,0.1-2.2,0-3.2,0c-0.4,0-0.4,0.1-0.7,0.1l-4,0.1c-0.3,0-0.2-0.3-0.2-0.6
			c0-1.1-0.2-1.6,0.1-2.2c1.9,0.2,2.3,0.1,4.1,0.1c1,0,0.6,0,1,0.2c0.4-0.3-0.1-0.2,0.4-0.2h3c0.5,0,0.7,0.1,1.1,0.1L33.4,43.9
			L33.4,43.9z M25,43.3c0.8-1.1,2.8-1,2.9,0c-0.4,0-0.8,0-1.3,0H25L25,43.3z M23.6,42.8c0-0.6,0.1-0.5,0.4-0.8
			c0.5-0.5,1.6-1.2,2.2-1.2c1.2,0,2.6,0.5,3.2,1.5c0.1,0.3,0.3,0.7,0.4,1c-0.4,0-0.6,0.1-1,0.1c-0.2-0.5-0.4-0.8-0.8-1.1
			c-0.2-0.2-1-0.5-1.5-0.4c-2,0.3-1.7,1.6-2.3,1.6c-1.1,0-1,0-0.9-0.3c0.1-0.2,0.3-0.1,0-0.3v-0.1c0,0,0,0,0.1,0l0,0H23.6L23.6,42.8
			z M13.4,46.6c-0.6,0-1.4-0.4-1.8-0.7c-0.2-0.2-0.3-0.3-0.4-0.5L10.8,45c-0.3-0.4-0.7-1.5-0.7-2c0-0.6,0-0.3-0.2-0.7s0-0.4,0-0.7
			s-0.1-0.4-0.1-0.8c0-0.3,0-0.5,0-0.8c-0.1-0.5-0.1-1.2-0.1-1.6c0-0.3,0-0.5-0.1-0.8c-0.1-0.4-0.2-0.2-0.3-0.5
			C9.9,37,9.9,37.3,10,37v0.1l0,0c0,0.1,0.1,0.1,0.3,0.2c1.7,0.5,1.9-0.2,1.7,1c0.3,0.1,0,0,0.2,0h0.1c0.2,0.1,0.1,0.3,0.3,0.1
			c0.2-0.1,0,0,0-0.1c-0.1-0.5-0.2-0.4-0.4-0.5v-0.1c0.3,0,0.3-0.1,0.7-0.1c1,0,2.2,0.2,3.2,0.5c0.4,0.1,0.3,0.1,0.6,0.3l0.9,0.8
			l0.7,1.1c0.4,1,0.5,1,0.4,2.1c-0.1,0.4,0.1,0.6-0.3,0.7c-0.2,0-0.5,0-0.8,0c-0.3,0.1-0.4,0.1-0.8,0.1c-0.3,0-0.5,0.3-0.5-0.1
			c0-0.8,0.3-0.3,0.2-1c0-0.4-0.1-1.3-0.3-1.7c-0.1-0.2-0.9-0.7-1.1-0.8c-0.4-0.3-0.8-0.3-1.3-0.4c-2-0.1-1-0.1-1.9-0.4
			c0,0.6,0.2,0.7,0.2,1c-0.3,0.1-0.2,0.1-0.2,0.4c0.1,0,0.6,0.3,0.6-0.2s-0.5-0.7,0.3-0.3c0.3,0.2,1.2,0.2,1.8,0.4s0.8,0.3,0.9,0.9
			c0.1,0.3,0,0.5,0,0.8v0.7c0,0.4,0.1-0.1,0.1,0.4c0,0.1,0,0.1-0.1,0.3c-0.6-0.3-2.2,0.6-3.1-0.8l-0.1-0.2c-0.2-0.7,0-0.8-0.3-0.9
			c0.1-0.3,0-0.1,0.2-0.1l0.3-0.2c0-0.1,0.1,0,0.1-0.4c-0.3,0.1-0.1,0.1-0.4,0.1c-0.1,0,0-0.1-0.1,0c0,0.1-0.2,0,0.1,0.1v0.4H12
			c0,0.5,0,0.7,0.1,1.2c0.2,0.8,0.3,0.6,0.4,0.6l0,0c0,0,0,0,0.1,0l0.1,0.1c-0.4,0.4,0.2,0.4,0.3,0.4c-0.1,0.2-0.1,0.2-0.4,0.2v0.1
			c0.2,0,0.4,0.1,0.7,0.1c0.2,0,0.5,0.1,0.7,0.1c1.4,0.3,1.9-0.1,1.9,0.3l-0.1,2.3L13.4,46.6L13.4,46.6z M6.2,42L6.2,42L6.2,42
			L6.2,42z M37.4,43.5c-0.1-0.3-0.1-1.2,0-1.7c0.2-0.7,0.4-0.9,0.8-1.3c0.8-0.6,0.4-0.3,1.5-0.7c0.2-0.1,0.7-0.1,0.9-0.2
			c0.7-0.1,0.5-0.2,0.8-0.2c0,0.4-0.5,1.5-0.7,1.9c-0.3,0.6-0.2,0.5-0.7,1c-0.1,0.1-0.1,0.1-0.2,0.1c-0.2,0.2-0.2,0-0.2,0.4
			c-1,0-0.1-0.1-1,0.4C38.4,43.4,38,43.5,37.4,43.5L37.4,43.5z M34.5,41c0-0.3,0.5-1,0.7-1.1l0.3-0.4l0,0l0,0
			c0.2-0.3,0.3-0.5,0.7-0.7c0.2-0.1,0.2,0,0.4-0.2c0.2-0.3,0,0,0.9-0.4l3.4-1c0.6-0.1,1-0.2,1.5-0.2c0.6,0,0.9-0.2,1.4-0.3
			c0,0.3-0.1,0.7-0.2,1.1l-0.5,4.4L42.5,44c-0.1,0.3-0.3,0.5-0.4,0.8c-0.4,0.9-1.9,2-2.8,2c-0.3,0-0.5,0-0.9,0
			c-0.5,0-0.8,0.2-0.9-0.3L37.4,44c0.7-0.1,0.9,0,1.2,0c0.7,0,1.4-0.2,2.4-0.2l1.3-0.2c0-0.7,0.3-0.8-0.3-0.8c-0.3,0-0.2,0-0.3,0.2
			c-0.2,0.4-0.2,0.3-0.9,0.3c-0.6,0.1-0.4,0.1,0.3-0.8c0.1-0.1,0.2-0.3,0.3-0.4c0.3-0.4,0.5-0.9,0.6-1.4c0.2-0.6,0.5-1.5,0.5-2.2
			c0-0.4-0.7,0.1-0.8,0.1c-0.6,0.4-2,0.7-2.7,0.8c-0.6,0.1-1.4,0.7-1.8,1.2c-0.2,0.2-0.3,1.1-0.3,1.4l0.1,1.3
			c-0.5,0.3-1.3,0.2-1.9,0.1H35h-0.8c0-0.6,0-1,0.2-1.6c0,0,0.1-0.2,0.1-0.3C34.7,41,34.5,41.5,34.5,41L34.5,41z M36.7,38.4
			C36.7,38.5,36.7,38.5,36.7,38.4L36.7,38.4L36.7,38.4z M30.4,37.9c0.1-0.3,0-0.2,0.3-0.3C30.7,37.9,30.7,37.9,30.4,37.9L30.4,37.9z
			 M16.8,35.3L16.8,35.3L16.8,35.3L16.8,35.3z M8.4,38c0-0.3,0-0.5-0.1-0.8c0-0.2,0-0.5-0.1-0.7l-0.4-1.4c0.4,0,0.4,0.1,0.7,0.2
			c0.6,0.3,1,0.2,1.3,0.3c0.2,0.1,0,0.1,0.3,0.1c0.3,0.1-0.1,0,0.3,0l1.1,0.2c0.4,0,0.8,0.2,0.8-0.2c0.3,0.1,0.1,0.2,0.4,0.2
			c0.1,0,0.3,0,0.5,0c0.4,0,0.8,0,1.2,0.1l0.9,0.3c0.7,0.2,1.7,0.7,2.2,1.1l0.7,0.9c0.2,0.3,0.3,0.5,0.5,0.7
			c-0.4-0.1-0.2-0.4-1.1-0.9L17.4,38l0,0h-0.1l0,0l0,0l-0.1-0.1c-0.1,0-0.1-0.1-0.1-0.1c-0.8-0.5-3.2-1.2-3.9-0.9
			c-0.5,0.2,0.3,0-0.1,0c-0.2,0-0.2,0-0.2,0c-1-0.2-0.8-0.1-1.5-0.2c-0.3,0-1.2-0.2-1.5-0.4l-0.5-0.2c-0.2-0.1-0.2,0-0.4-0.2l0,0
			l0,0c-0.2,0.8,0,0.2,0.3,1.3l0.1,0.2c0.3,1,0,3.6,0.1,4.2c0.1,0.9,0.1,1.6,0.4,2.5c0.1,0.2,0.1,0.4,0.2,0.6
			c0.1,0.2,0.1,0.2,0.1,0.5C10,45.1,9.6,44.3,9.4,44c-0.1-0.2-0.2-0.5-0.3-0.7c-0.3-0.8-0.4-1.6-0.4-2.5c0-0.4-0.1-0.6-0.1-0.9
			L8.4,38L8.4,38z M10.1,35c-0.1,0.2,0,0.1-0.2,0.1V35H10.1L10.1,35z M25.8,30c0-0.3,0.1-0.6,0.3-0.8l0.4-0.4l0.3,0.1l0,0l0.1,0.1
			c0.9,0.9,0.3,1.6,0.6,2c0.1,0.2,0.5,0.4,0.5,0.7s-0.1,0.4-0.1,0.7c0,0.2,0.5,0.5,0.6,0.6c0.4,0.5,0.4,1.6,0,2.1
			c-0.2,0.2-0.6,0.5-0.9,0.5c-0.1-0.3-0.2-0.2-0.2-0.6c1.1-0.3,1.2-2.2-0.3-2.5c0.1-0.4,0.4-0.3,0.4-0.7c0-1.5-1.7-0.4-1,0.6
			c0.1,0.1,0,0,0.1,0.1c-0.3,0.5-0.9,0.7-0.9,1.5c0,0.9,0.6,0.7,0.7,1.2L26,35.4c-1.4-0.3-1.3-2.1-0.8-2.8c0.1-0.1,0.2-0.2,0.2-0.3
			c0-0.5-0.2-0.9,0-1.3c0.1-0.2,0.2-0.3,0.3-0.5C25.9,30.3,25.8,30.4,25.8,30L25.8,30z M33.9,41.6c-0.3-0.2-0.2-0.4-0.4-0.1
			c0.3,0.1,0.3,0.1,0.7,0.1C34,42,34,42.1,33.6,42.1c0,0.4,0,0.3-0.1,0.6s0,0,0.1,0.4c-0.2,0.1-0.1-0.1-0.2,0.2
			c-0.3,0-0.2-0.1-0.6-0.1c0.1-1,0.1-0.8-0.1-1.8c-0.1-0.6-0.2-1-0.4-1.5c-0.1-0.2-0.2-0.4-0.3-0.7c-0.4-0.8-1.2-1.4-1.6-2.1
			l-0.1-0.2c-0.1-0.2-0.1,0.2-0.1-0.2c0-0.6,1,0.1,1-0.7c0-0.6-0.4-1.1-1-0.8c-1.3,0.6-1,1.7-0.3,2.6l1.7,2c0.1,0.1,0.1,0,0.3,0.1
			c0.1,0.1,0.1,0-0.1,0.1c0,0.7,0.4,0.9,0.5,1.6c0,0.5,0.4,1.5-0.2,1.6c-0.2-0.4,0.1-0.3,0-0.8c-0.1-1.5-0.3-0.9-0.7-1.3
			c-0.2-0.2,0.3,0-0.1-0.1c-0.2,0.1-0.2,0.2-0.3,0.3c-0.1,0.1-0.3,0.1-0.3,0.3c0,0.6,0.1,0.4,0.2,0.9c0.3-0.2,0-0.3,0.5-0.3v0.9
			c-1.1,0.2-0.8,0-1-0.7l-0.3-0.6c-0.6-0.9-0.7-1.4-2-1.9c-0.6-0.2-0.9-0.2-1.5-0.2c-1.4,0.1-2.8,1.1-3.5,2.3c-0.6,1,0,1.3-0.9,1.3
			v-0.8c0-0.1,0-0.2,0-0.3l0,0l0,0c0.2,0.2,0.2,0.2,0.5,0.2c-0.1-0.4-0.1-0.2-0.3-0.4c0.3-0.2,0.3-0.1,0.3-0.4
			c-0.4,0-0.2,0.1-0.6,0.1c0.1-0.2,0.1-0.5,0.2-0.7c0.1-0.3,0.1-0.5,0.4-0.6c0,0.5-0.1,0.7,0.5,0.7l-0.1-0.6h0.3
			c0-0.5-0.2-0.5-0.6-0.3c0.1-0.5,1.1-1.4,1.5-1.8l0.2-0.1c0.1-0.1,0.1-0.1,0.2-0.1l0.8-0.8c0.5-0.5,0.8-0.9,1.1-1.6
			c0.1-0.1,0-0.1,0.1-0.2c0.1-0.1,0-0.1,0.1-0.1c0.2,0.8,1.2,1.9,1.8,2.5l1,1c0.2,0.3,0.7,1,0.8,1.3c-0.3-0.1-0.1-0.1-0.4,0.1
			c0,0.4,0.1,0.9,0.4,0.9s0.3,0.1,0.4-0.1c0.1-0.2-0.2-0.4-0.3-0.5c0.3-0.2,0.2,0,0.3-0.2H31c0,0.3,0.1,0.3,0.1,0.4
			c0.2,0,0.2-0.1,0.3-0.2c0.1,0.3,0,0.2,0.2,0.3c0-0.4,0-0.2-0.1-0.4l-0.1-0.1l0,0c-0.1,0,0,0-0.1-0.1c0.1-0.2-0.1-0.2,0.2-0.1v-0.1
			c-0.4-0.1-0.5-0.7-0.8-1.1c-0.5-0.6-1-1.2-1.6-1.7l-0.2-0.2c-0.2-0.2-0.8-0.8-0.8-1.1c2-0.5,2-3.1,0.6-3.9
			c0.1-0.6,0.1,0.1,0.1-0.4c0.1-0.9-0.6-1.2-0.6-1.7c0-0.3,0.1-0.5,0.1-0.9c0-0.3-0.6-1.4-1.5-1.1c-0.3,0.1-0.7,0.3-0.9,0.5
			c-0.4,0.5-0.5,1.1-0.3,1.7c-0.2,0.3-0.3,0.3-0.5,0.7C25,31.4,25,31.5,25,32c-0.1,0.8-1.2,1.2-0.1,3.1c0.3,0.4,0.6,0.7,1.1,0.8
			c0,0.3-0.1,0.2-0.3,0.5l-1.1,1c-0.6,0.5-0.9,0.9-1.4,1.4c-0.8,0.8-0.6,0.6-1.2,1.6c-0.5,1-0.7,1.9-0.5,3h-0.4v-0.3
			c-0.1-0.3,0-0.7,0.1-1c0-0.2,0-0.3,0-0.5s0.1-0.2,0.1-0.5c0.2-0.7,0.5-1.4,0.9-2c0.3-0.4,0.7-0.8,1.1-1.1c0.4-0.4,0.2-0.5,0.6-0.5
			c0-0.4,0.2-0.4,0.3-0.7c0.3-0.6,0.2-1.5-0.3-2c-0.5-0.4-0.6-0.3-1.1-0.1l-0.3,0.1c-0.3,0.2-0.7,1.2,0,1.3c0.3,0.1,0.3-0.1,0.6-0.2
			c0.6,0.4,0.5,1,0,1.5c-0.2,0.2-0.3,0.3-0.5,0.6c-1,1.1-1.1,1.1-1.7,2.4c-0.4,0.7-0.5,2.2-0.1,3c-0.5,0-0.7,0-1.1-0.1
			c0-1,0-1.8-0.2-2.7c-0.1-0.6,0.1-1,0-1.3s-0.3-0.8-0.3-1.2c0-1.3,0.4-1.9,0-2.5c-0.1-0.2-0.3-0.4-0.4-0.5
			c-0.6,0.2-0.7,1.1-0.7,1.6c-0.7-0.2-0.6-0.6-0.7-1.2c-0.1-0.3,0-0.2-0.3-0.3c0.3-0.5,0.1-0.9-0.4-1.2l-0.1-0.1
			c-0.2-0.1-0.2-0.2-0.5-0.2c-0.3,0.7,0,1.5,0.3,2.1c-1.3-0.3-0.7-0.3-1.3-1.4c-0.7-1.4-0.5-0.7-1.5-1.2c-0.1,1.4,0.5,1.6,0.9,2.2
			c-1.2,0.3-1.7-0.9-2.3-1.7l-0.4-0.4l-0.7-0.1c-0.2,0-0.4-0.1-0.4,0.2c0,0.4,0.5,1,0.8,1.3c0.6,0.6,0.6,0.4,1.3,0.6c0,0,0,0-0.1,0
			l-0.2,0.1c-0.2,0.1-0.1,0-0.2,0.2c-0.4-0.1-0.7-0.3-1.2-0.2l0,0H11l0,0c-0.3,0-0.5-0.2-0.6-0.5c0.3,0,0.3,0.1,0.4,0.1
			c0-0.3-0.2-0.6-0.3-0.8c-0.2-0.3-0.3-0.5-0.4-0.8c-0.5-0.9-0.6-0.5-1.5-0.8c-0.1,1.4,0.2,1.5,0.7,2.2c-0.3,0-0.5-0.1-0.8-0.2
			C8.2,34.5,8,34.4,8,34.1c0-0.4-0.5-0.9-0.8-1.2c-0.2-0.2-0.6-0.7-1-0.7l-0.8,0.2c-0.2,0.1,0,0.5,0.1,0.7c0.8,1.7,2,0.9,2.1,1.6
			c0.1,0.3,0,0.6,0.1,0.9c0.1,0.4,0.1,0.3,0.1,0.8c-0.3-0.2-0.2-0.5-0.3-0.8c-0.3-0.8-1.3-1.2-2.2-1.2V35c0.1,0.3,0,0.4,0.1,0.7
			c0.1,0.6,1.2,0.7,1.7,1.2l0.3,0.3l0,0l0,0l0.4,0.2c0,0.6,0.1,0.8,0,1.4l-0.2-0.4c-0.1-0.2-0.1-0.2-0.2-0.4c-0.7-1-0.7-0.6-0.7-0.6
			c-0.1,0,0,0.1-0.1-0.1l0,0c-0.1-0.3,0.2-0.2-0.8-0.6c-0.2-0.1-0.3-0.2-0.3,0.1V38c0.2,0.4,1,0.9,1.3,1.1c0.8,0.6,0.7,0.3,0.8,1.2
			c0,0.2,0.1,0.3,0.1,0.6H7.5c-0.2-0.9-2.2-2.1-2.2-1.3c0,0.3,0,0.3,0.1,0.5l0.1,0.5C5.7,41,5.8,41,6,41.2C7.3,42,7.8,42,7.8,42.9
			c-0.3-0.1-0.1,0-0.3-0.2c-0.5-0.5-1.2-0.6-2-0.6c-0.3,0,0.3,0.8,0.3,0.9c0.4,0.7,1.5,0.7,2.1,1c0.3,0.1,0.5,0.6,0.6,1
			c-0.8-0.4-1.4-0.1-2.3-0.1c0,0.2,0.1,0.4,0.2,0.5C7,45.6,7.3,45.9,8,45.9c0.4,0,0.9-0.2,1.3,0l0.7,0.7c-0.2,0-0.3-0.1-0.5-0.1
			c-0.5,0-1.4,0.2-1.9,0.4c0,0.4,0.3,0.4,0.5,0.6c0.2,0.1,0.3,0.3,0.7,0.3c0.8,0,1.4-0.4,2.3-0.4H11c-0.2-0.1-0.1,0-0.2-0.2
			c0.3,0,0.3-0.1,0.5-0.1l1.4,0.1c0.4,0,0.5-0.1,1-0.1c0.4,0,0.5,0.1,1,0.1c0.3,0,0.6,0,1,0c0.1,0.2,0.1,0.3,0.1,0.6
			c0,0.4,0.1,0.6-0.3,0.5c-1.4-0.1-2.4,0.3-3.6,1l-1,0.7c-0.2,0.2-2.2,1.3-2.2,0.3C9,50,8.7,50,8.9,50C9,50,9,50,9.1,50h0.1
			c0.1,0,0,0.1,0.1-0.1c-0.4-0.1-0.4-0.6-1.1-0.4c-0.5,0.2-0.9,0.6-0.7,1.2c0.1,0.2,0,0.1,0.2,0.3c0.6,0.6,1.6,0.1,2.2-0.2l0.7-0.4
			c0.2-0.1,0.1,0,0.3-0.2c0.4-0.4,0.6-0.4,1.1-0.6c0.2-0.1,0.1-0.1,0.3-0.2c0.7-0.4,1.9-0.7,2.6-0.7c0.2,0,0.5,0.1,0.9,0.1
			c-0.2,0.2-0.1,0.1-0.6,0.1c-0.9,0-1.7,0.4-2.5,0.7c-1.4,0.6-1.3,0.7-2.5,1.5c-0.7,0.4-1.2,0.8-1.9,1.2c-0.2,0.1-0.9,0.6-0.9,0.2
			C7.4,52,8,51.7,7,50.6c-1.1-1.3-2-0.3-2.5,0.1c-0.4-0.3-0.5-0.6-1.1-0.3c-0.4,0.2-0.6,0.6-0.7,1c-0.6-0.1-0.9-0.5-1.9,0.5
			c-0.6,0.6-0.6,1.1-0.5,2c0.1,0.6,0.9,1.3,1.5,1.3c0.5,0,0.5-0.1,0.9-0.1c0.1,0.3,0.2,0.3,0.4,0.4c0.7,0.4,0.7,0.2,1.3-0.2
			C4.7,56,5.5,56.4,6.2,56s0.8-1.1,1-1.8c0.6,0.1,1.9,1.6,2.3,2.1c0.4,0.5,0.9,0.9,1.4,1.3c0.4,0.3,0.6,0.5,1,0.8
			c1.3,0.7,2.4,1.2,4,1.2v0.3c-1.1,0-2.2-0.3-3.1-0.7c-0.4-0.2-0.8-0.3-1.2-0.6l-2-1.5c-0.6-0.5-1.3-1.4-2.2-1.2
			c-0.6,0.2-0.7,1-0.5,1.5c0.1,0.3-0.1,0.1,0.2,0.3C7.3,57.8,7.8,58,8,57.6c0.1-0.2-0.1-0.3,0.1-0.8c0.6,0,1.4,0.7,1.8,1.2
			c0.3,0.3,0.4,0.4,0.8,0.7c0.3,0.3,0.5,0.4,0.9,0.6c1.4,0.7,2.8,1.3,4.4,1.4v1c-0.9,0-1.9-0.2-2.7-0.2c-2,0.2-1.4,0.3-2.4,0.5
			c0.1-0.3,0.3-0.3-0.1-0.3c-1.5,0-1.4-0.4-1.9-0.4c-0.3,0-0.7,0.4-0.7,0.7c0.3,0.4,1.4,0.4,2.1,0.4l0,0l0,0l0,0l-0.1,0.1l0,0
			l-0.1,0.1C9.7,62.9,9.4,63,9.2,63c-1.2,0-2.6-0.6-2.8,0.5c0.2,0.1,0.6,0.3,0.9,0.4c0.4,0,0.9,0,1.3,0c-0.2,0.3-0.2,0.4-0.6,0.5
			c-0.9,0.2-2.1-0.3-2.2,1c1,0.5,1.3-0.1,2.1-0.1c0,0.1-0.1,0.3-0.2,0.4c-0.3,0.5-1,0.6-1.5,0.8C5.4,67,4.8,68,5.8,67.8
			s1.1-0.7,1.5-0.8c0,0.1,0,0.5-0.1,0.6c-0.1,0.3-0.3,0.4-0.6,0.6C5.5,68.9,5,68.8,5,70c0.9,0,1.8-0.6,2-1.4h0.1
			c0,1.4-1.4,1.6-2.2,2.4c-0.3,0.3-0.2,0.7-0.1,1c0.3,0,0.3-0.1,0.5-0.1s0.3-0.1,0.5-0.1c1-0.4,0.8-1.8,1.3-2.2
			c0,0.8,0.3,1.7-0.3,2.3c-0.7,0.6-2.4,0.8-1.5,2.2C5.7,74,5.7,74,6,73.8c0.7-0.4,1-1.1,1.1-1.9l0.2,1.4c0,0.5-1.1,0.9-1.5,1
			s-0.5,0.1-0.6,0.6c0,0.4,0,0.6,0.2,0.9c0.2,0,0.6-0.2,0.8-0.2c0.7-0.3,0.7-1,1.1-1.6c0.1-0.2,0,0,0.1-0.1c0,0.4,0.1,0.4,0.1,0.8
			c0,0.7-0.7,1.1-1.1,1.6S5.8,77,5.8,77.6c0,0.3,0,0.4,0.2,0.4c0.5,0,0.9-0.5,1.1-1s0.2-1.4,0.5-1.4s0.2,0.3,0.2,0.5
			c0,0.3,0,0.4-0.1,0.6c-0.1,0.5,0.2,0.5,0.3,0.9c0.7-0.1,0.6-0.9,0.5-1.4c0-0.4,0.1-0.4-0.2-0.5v-0.2c0.3,0,0.6-0.2,0.9-0.3
			c0.7-0.2,0,0.4,0,1.4c0,0.2,0.1,0.6,0.1,0.9c0.4,0,0.6-0.1,1-0.3c0-2.5-0.1-2.2,0.6-2.3h0.8c-0.2,0.3-0.2,0.3-0.4,0.5
			s-0.3,0.3-0.4,0.4C10.7,76,10.6,77,11,77c0.2,0,0.1,0,0.3-0.1c0.1,0,0.2-0.1,0.3-0.1c0.5-0.2,0.4-0.6,0.5-1s0.2-0.5,0.1-0.9
			c0.7,0.1,0.2-0.2,1.2-0.4c-0.1,0.4-0.4,0.5-0.5,0.9c-0.1,0.2-0.4,1.1,0,1c0.3-0.1,0.1,0,0.3-0.2c0.5-0.3,0.5-0.3,0.7-0.9
			c0.1-0.3,0.2-0.5,0.3-0.8s0.2-0.5,0.6-0.5c0,0.2-0.1,0.2-0.1,0.4c0,0.1-0.1,0.4-0.1,0.4c0,0.4,0,0.6-0.1,0.9
			c0.3,0,0.4-0.1,0.6-0.2c0.1,0,0.1-0.1,0.1-0.1c0.8-0.5,0.1-1.9,0.9-2.1c0,0.4,0.2,1.1,0.3,1.5c0.4,0,0.4-0.2,0.6-0.4
			c0.5-0.5,0.4-0.5,0.2-1.2c-0.1-0.5-0.2-0.8,0.3-1.1c0,0.4,0.2,1.2,0.4,1.5c0.3-0.1,0.3-0.1,0.5-0.3c0.1-0.1,0.3-0.3,0.3-0.5
			c0-1-0.4-1.4,0.1-2.4c0.1-0.2,0.1-0.3,0.2-0.6c0.7-3,0.1-2.9,0.1-4.2c0.5,0,0.7,0.1,1.3,0.1c0.4,0,0.8,0,1.3,0
			c-1.8,1.6-1.1,4.5,0.1,6.2c0.4,0.6,0.6,0.7,1.2,1.1s1.5,1,1,1.8c-0.6-0.4,0-1-0.8-1c-0.5,0-0.9,0.6-0.9,1.1
			c0.1,0.5,0.8,1.3,1.8,0.7c0.2-0.1,0.3-0.2,0.4-0.4c0.3-0.3,0.5-0.5,0.5-1.1c-0.1-1.1-1.7-1.7-2.4-2.4c-0.1-0.1-0.3-0.3-0.4-0.4
			s-0.3-0.3-0.4-0.5c-0.1-0.1-0.2-0.4-0.3-0.5c-0.1-0.3-0.2-0.3-0.2-0.6c-0.4-1.2-0.4-2.3,0.5-3.3c0.2-0.2,0.2-0.2,0.2-0.5h0.3
			c-0.1,0.2-0.1,0.2-0.2,0.4c-0.1,0.1-0.1,0.2-0.2,0.4c-0.6,1.6,0.2,3.3,1.1,4.6c0.7,0.9,2.5,2.5,2.8,2.8c0.1,0.1,0.1,0.2,0.2,0.4
			c0.1,0.1,0.1,0.2,0.2,0.3c0.7,1.2-0.5,0.1-1.4,1.4c-0.8,1.2,0.3,2.1,0.3,2.2c0,0.3-0.1,0.4-0.1,0.7c0,1.2,0.8,1.3,0.9,1.9
			c0.2,1,0.8,1.2,1.6,1.2c0.2,0,0.4-0.1,0.6-0.2c0.4-0.2,0.1-0.1,0.4-0.3c0.2-0.2,0.2-0.1,0.4-0.3c0.4-0.6,0.2-1.1,0.6-2
			c0.5-1,0.1-0.7,0.1-1.3c0-0.6,0.6-0.8,0.1-2.1c-0.2-0.4-0.5-0.9-0.9-1.1c-0.2-0.1-0.3,0-0.5,0c0-0.4,0.9-1.2,1.2-1.6
			c1.5-1.5,3.5-4.2,2.7-6.5c-0.1-0.3-0.3-0.4-0.3-0.7c0.3,0,0.2,0.1,0.4,0.4c0.3,0.6,0.5,1,0.5,1.7c0,1.2-0.3,1.7-0.8,2.8
			c-0.4,0.8-1.4,1-2,2c-0.5,0.9-0.3,1.4,0.4,2l0.7,0.4c0.3,0.1-0.1,0,0.3,0c0.3,0,0.2,0.2,0.4-0.2c0.2-0.4-0.1-0.2,0.3-0.4
			c0.8-0.5,0.6-1.6-0.4-1.6c-0.6,0-0.4,0.5-0.5,0.8c-1.2-0.8,0.9-2,1.3-2.5c0.6-0.8,1-2.1,1-3.5c0-1.5-0.4-1.4-0.6-2.3l0.6-0.1
			c0.3,0,0.1,1.4,0.2,1.8c0.1,0.8-0.1,0.9-0.1,1.7c0,2.1,1.3,2.8,1.5,3.4c0.3,0.6-0.1,1.4,0.1,2.1c0.1,0.4,0.2,0.3,0.4,0.5
			c0.2,0.1,0,0.1,0.3,0.2c0.2-0.2,0.4-0.4,0.4-0.7c0.1-0.3,0-0.5,0-1c0.2,0.2,0.4,0.8,0.5,1.1c0.1,0.5,0,0.5,0.5,0.7l0.2,0.1
			c0.2,0.1,0.4,0.2,0.7,0.3c0.4-0.8-0.2-1.2-0.4-1.8c0.3,0.1,1,1,1.1,1.3s0.2,0.6,0.5,0.7c0.2,0.1,0.6,0.1,0.9,0.2
			c0.5-1.1-0.8-1.6-1.1-2c0.4,0.1,0.7,0.1,1,0.4c0.4,0.3,0.7,0.6,0.9,1.1c0.3,0.6,0.1,0.4,0.7,0.6c0.2,0.1,0.2,0.1,0.5,0.2
			c0.8-1.4-1.3-1.5-1.6-2.1c0.4,0,0.2,0.1,0.6,0c0.4-0.1,0.6-0.1,0.9,0.2c0.5,0.5,0.6,0.6,0.9,1.2c0.1,0.3,0.1,0.3,0.4,0.4
			c0.2,0.1,0.3,0.1,0.5,0.1c0.3,0,0.3-1.1-0.5-1.5c-0.2-0.1-0.3-0.1-0.5-0.2s-0.2-0.2-0.5-0.3v-0.1c0.5,0,1.7,0,2.1-0.1
			c0.1,0.3,0.2,0.6,0.3,0.9c0.1,0.5-0.3,0.7,0.1,1l0.9,0.3c0.2-0.1,0.3-0.2,0.3-0.4c0-1.3-0.6-1.4-0.8-1.8c-0.2-0.3,0.2-0.1,0.4-0.1
			c0.4,0,0.2-0.1,0.6-0.1c0.6,0.9,0.7,1.9,2.1,1.8c0.6,0,0.7,0,0.5-0.5c-0.5-1-0.6-0.6-1.6-1c-0.6-0.2-0.4-0.3-0.5-0.4
			c-0.2-0.4-0.5-0.4-0.5-1c0.6,0.6,1.6,1.1,2.4,0.7c0-0.5-0.4-0.6-0.6-1c-0.7,0-2-0.3-2.1-0.9c0-0.2-0.1-0.4-0.1-0.7L45.7,70h0.2
			c0-0.4,0.1-0.6-0.2-0.7c0-0.4,0-0.3,0.1-0.5l0.4,0.4l0,0c0.2,0.3,0.3,0.3,0.6,0.5c1.4,0.7,1.7-0.2,0.7-0.7
			c-0.3-0.1-0.4-0.3-0.8-0.3c-0.3-0.1-0.7-0.2-0.8-0.3c-0.2-0.2-0.1-0.1-0.2-0.4v-0.1c-0.1-0.2-0.1,0.2-0.1-0.2v-0.9
			c0.3,0.2,0.5,0.6,0.8,0.9l0.1,0.1c0.4,0.3,0.9,0.3,1.4,0.1c0-0.3-0.1-0.4-0.2-0.5c-0.9-0.8-0.7-0.1-2-0.8
			c-0.4-0.2-0.3-0.5-0.5-0.9c-0.1-0.2-0.1-0.3-0.2-0.5c0.3,0.1,0.2,0.1,0.4,0.3c0.3,0.3,0.9,0.4,1.1,0.8h0.2c0.1-0.3,0-0.1,0.4-0.1
			c0.3,0,0.3,0,0.5-0.2c-0.1-0.3-0.1-0.3-0.3-0.5c-1.1-0.9-2.2-0.1-3.3-1.8c0.6,0.2,1.4,1.1,2.7,0.4c0.2-0.1,0.3-0.2,0.1-0.4
			c-0.6-1-2.1,0.2-4.3-0.8c-1.3-0.6-3.6-0.6-5.1-0.5c-0.7,0-0.4,0.1-0.8-0.1c0-0.5,0.1-0.7,0.1-1.1c0-0.4,0-0.7,0-1.1
			c0.3,0.2,0.6,0.3,1,0.4c1.2,0.3,1.4,0.2,2.5-0.1c0.3-0.1,0.4-0.1,0.6-0.2c0.9-0.5,0.9-0.5,1.7-1.1c0.3-0.2,0.9-0.6,1.2-0.6
			c0,0.2-0.1,0.2-0.1,0.4c0,0.4,1.2,0.8,1.7,0.2c0.2-0.2,0.1,0,0.2-0.3c0.2-0.3,0.1-0.1,0.1-0.6c0-1.3-2.4-0.2-2.4-0.2
			c0.3-0.4,1.8-1.7,2.2-1.8c0,3.3,3.1,3,3.4,1.7c0.5,0.1,0.5,1.4,1.6,0.2c0.4-0.4,0.3-0.2,0.9-0.2c0.8,0,1.3-0.4,1.8-0.9
			c1-1.2,0.1-2.7-1.6-3c-0.8-0.1-0.3-0.1-0.8-0.5c-0.9-0.8-1.3-0.1-1.6-0.5c-0.2-0.2-0.1-0.3-0.4-0.5c-0.3-0.2-0.8-0.3-1.2-0.3
			c-1.2,0-1.4,1.5-1.8,1.7c-0.4-0.3-0.8-1.2-1.2-1.6c-1.3-1.7-2.7-3.3-5.1-3.3c-1.3,0-1.5,0.2-2.2,0.3c0-0.5,0.5-0.5,1.2-0.5
			c2.6-0.2,4.1-0.1,5.9,2c0.3,0.3,0.4,0.7,0.6,1c0.3,0.3,0.5,0.6,1,0.6c0.6,0,1.1-0.1,1.4-0.5c0.7-0.9,0.6-1.2,0-2.1
			c-0.5,0-0.9,0.2-1.1,0.5c-0.4,0.6,0,0.7,0.1,1.1c0,0,0.2,0.1-0.1,0.1s-0.5-0.2-0.7-0.4l-1.1-1.3l0,0l0,0l0,0l-0.7-0.7
			c-1.4-1-3.5-1.1-5.2-0.9c-0.4,0-0.7,0.2-1.1,0.2v-1c0.4,0,0.4,0.1,0.7,0.1h0.7c0.7,0.1,1.5,0,2.3,0c0.4,0,0.5-0.1,0.9-0.1
			c0.6,0,1.3,0.1,1.8,0.1c0.3,0,1-0.6,1-0.9c-1.4-0.7-1.2-0.4-2.1-0.2c0.3-0.5,0.5-0.4,1-0.5c0.6-0.1,1.4,0.1,1.8-0.3
			c0.3-0.3,0.4-0.3,0.5-0.8c-0.9-0.6-1.2-0.5-1.9-0.4c0.1-0.3,0.5-0.5,0.8-0.7c1.1-0.5,1.3,0.1,1.8-0.3c0.2-0.1,0.2-0.2,0.5-0.3
			v-0.7c-0.9-0.6-1.8-0.6-2.2,0.5c-0.1,0.3-0.2,0.6-0.4,0.7c0.1-0.2,0.1-0.3,0.2-0.6c0.1-0.3,0.1-0.3,0.1-0.5
			c0.1-0.3,0.2-0.8,0.2-1.1l0.7-0.2c0.3-0.1,0.4-0.1,0.7-0.1c0.3-0.1,0.8-0.4,0.8-0.8c0-0.6-0.1-0.7-0.8-0.7c-0.6,0-1,0.2-1.4,0.4
			c0-0.5,0.1-0.6,0.5-0.6c0.3,0,0.7-0.6,1-0.8c0.7-0.6,1.3-0.7,0.6-1.7c-0.9,0.2-0.9,0-1.4,0.6c-0.3,0.4-0.6,1-0.6,1.5h-0.1
			c0-0.7,0.3-2.7,0.5-3.3c0.3-1.1,0.2-0.9,1.1-1.4c0.5-0.2,1.1-1,1.2-1.7v-0.1c0-0.2,0-0.4-0.2-0.4c-0.7,0-0.9,0.1-1.2,0.8
			c-0.2,0.5-0.1,0.6-0.5,1.1c-0.2,0.3-0.2,0.2-0.4,0.4c-0.4,0.4-0.4,0.7-1.6,0.8c0.1-0.3,0.4-0.4,0.6-0.6c0.2-0.2,0.4-0.4,0.6-0.7
			c0.1-0.2,0.2-0.7,0.2-1c0-0.4-0.2-0.6-0.3-0.9c-0.4,0-0.7,0.1-0.9,0.4c-0.8,0.9-0.1,2.5-0.8,2.9l-4.5,0.4c0.2-0.3,0.7-0.6,1-0.7
			c1.1-0.7,0.4-1.9,0.3-2.1c-0.6,0-0.7,0.2-1,0.5c-0.3,0.4-0.2,0.7-0.2,1.3c-0.1,1-0.5,1.4-1.5,1.4c-0.1,0.3,0.2,0.2-0.2,0.2
			c-0.2,0-0.1,0-0.4,0.1c-0.3,0.1-0.6,0.3-0.8,0.3c0.3-0.4,0.7-0.7,1.1-1.1c0.2-0.2,0.8-0.9,0.8-1.2c0-0.4-0.2-1-0.4-1.3
			c-0.4,0-0.7,0.4-0.9,0.8c-0.3,0.7,0.1,1.7-0.6,2.6c-1.2,1.6-1.7,0.8-2.7,3.6l-0.1,0.5c0,0.2-0.1,0.3-0.3,0.4
			c0.1,0.2,0.1,0.3,0.2,0.5c0.2-0.1,0.1-0.1,0.4-0.2C33.8,41.4,33.9,41.1,33.9,41.6L33.9,41.6z"/>
	</g>
</g>
</svg>
