<?xml version="1.0" encoding="utf-8"?>
<!-- Generator: Adobe Illustrator 25.0.0, SVG Export Plug-In . SVG Version: 6.00 Build 0)  -->
<svg version="1.0" id="Layer_1" xmlns="http://www.w3.org/2000/svg" xmlns:xlink="http://www.w3.org/1999/xlink" x="0px" y="0px"
	 viewBox="0 0 306 110" style="enable-background:new 0 0 306 110;" xml:space="preserve">
<style type="text/css">
	.st0{fill:#F15A58;}
	.st1{fill:#FFFFFF;}
</style>
<g>
	<g>
		<path class="st0" d="M33.3,34.7l0,17.1c0,7.2,4.9,11.7,14.3,11.7c7.9,0,12.6-4.5,12.6-11.7l0-17.1c0.1-1.2,1.1-2.1,2.3-2.1h0.7v0
			c0.1,0,0.5,0,0.6,0c1.5,0,2.8,1.2,2.8,2.8h0v24.3c0,1.5-1.3,2.7-2.8,2.7c-0.1,0-0.5,0-0.6,0l0,0.4h13.3l0-0.4H76
			c-1.5,0-2.8-1.2-2.8-2.8h0V34c0.6,0,2.2,0,3.3,0c2.9,0.1,5,1.9,5.2,6.1c0,0.9-0.1,1.6-0.2,2.1c-0.8,3.8-3.2,5-5.5,5.1
			c-0.6,0-1.2,0-1.3,0v0.4c1.1,0.2,2.1,1.1,3,3c0.5,1.3,2.5,5.7,3.7,7.5c2.2,3.4,5.5,4.5,10.3,4.5h4.3h9.4v-0.4h-0.4
			c-1.1,0-2.4-1-1.7-2.8h0l2.3-5.4h10.3l2.2,5.4h0c0.7,1.8-0.5,2.8-1.7,2.8h-0.4v0.4h14h0h22.7l2-9h-0.4c-1.4,4.4-4.2,7.1-8.6,7.1
			h-5.8V35.2h0c0-1.5,1.3-2.8,2.8-2.8l0.6,0l0-0.4h-3.5h-6.3h-3.5l0,0.4l0.6,0c1.5,0,2.8,1.2,2.8,2.8v24.3c0,1.5-1.3,2.8-2.8,2.8
			l-0.5,0h-0.4c-1.3,0-2.8-0.7-3.7-2.5l-13-28.6h-0.4c-0.1,1.3-1.8,5.1-2.2,5.7L100,59.9c-0.9,1.7-2.4,2.5-3.7,2.5h-0.4v0
			c-2.3,0-3.5-0.9-5.4-3.3v0c-1.7-2.1-4.3-6.2-4.4-6.4c-1-1.5-2.6-3.3-4.5-3.9c5-0.5,7.2-4.6,7.2-8.3c0-6.1-5.1-8.3-10.4-8.3H66.7v0
			h-3.5v0h-3.1v0h-2.9v0h-3.1v0.4h0.7c1.2,0,2.3,0.9,2.3,2.1l0,17.3c0,5.9-3.3,9.6-8.7,9.6c-5.3,0-8.5-3.9-8.5-10.1l0-16.8
			c0.1-1.2,1.1-2.1,2.3-2.1h0.7V32H30.2v0.4H31C32.2,32.5,33.3,33.4,33.3,34.7z M110.7,41.5l4.3,10.8h-8.8L110.7,41.5z"/>
		<path class="st0" d="M183,31.5c-3,0.4-7.7,1.5-13,1.9l0.1,0.4c0.1,0,0.4-0.1,0.7-0.1c1.8-0.1,2.6,1,2.6,2.5v23.4h0
			c0,1.6-1.3,2.1-2.8,2.8c-102.3,50.6-148.1-11-148.1-11c-1.3-1.5-1.2-3.8,0.5-4.9c2.1-1.4,3.6-4,3.6-7.1c0-6.2-6-8.2-11.2-8.2H5.2
			l-1.4,0H0.3l0,0.4l0.5,0c1.5,0,2.8,1.2,2.8,2.8h0v24.3c0,1.6-1.3,2.7-2.8,2.7l-0.6,0l0,0.4h13.3l0-0.4H13c-1.6,0-2.8-1.3-2.8-2.8
			h0V36.4c0-1.8,1.5-3.3,3.3-3.3c3.2,0,5.8,2.2,6,6.1c0,1-0.1,1.7-0.2,2.1c-0.8,4-4.2,5-6.3,5.1c-0.5,0-1.2,0-1.3,0v0.4
			c0.8,0.2,1.6,1.3,2.4,2.6c0.9,1.3,2.5,3.6,4,6c1.6,2.3,3.4,4.5,5.4,6.5c13,12.5,62,49.8,142.9,3.7c3.7-2.1,7.6-3.7,11.2-3
			c0,0,2.1,0.5,4.4,2.1c-1.5-0.9-2-5.1-2-5.1V36.7c0-1.6,1.2-3,2.8-3.3l0.1,0c4.3-0.6,7.3,1.8,7.5,6.8c0.1,4.3-1.9,6.9-4.1,7.5
			c-1.6,0.4-3.6,0-4.3-1.6l-0.4,0.2c0.5,2.4,2.4,3.6,4.6,3.9c5.1,1.1,11.5-2.5,11.2-9.8C197.2,33,190.6,30.5,183,31.5z"/>
		<path class="st0" d="M289.5,53.8c-1.4,4.4-4.2,7.1-8.6,7.1h-5.8V48.5h5.9c2.1,0.1,3.7,1.6,3.7,3.8v0.4l0.4,0V42.5l-0.4,0v0.4
			c0,2.1-1.6,3.7-3.7,3.8v0h-5.8V33.9h7.4c2.6,0.1,4.3,1.8,4.3,4.5l0,0.5l0.4,0v-5.1h0v-1.3v-1.3c-0.8,0.3-3.3,0.8-5.2,0.8h-13.3v0
			h-3.5l0,0.4l0.6,0c1.5,0,2.7,1.2,2.8,2.6v24.5c0,1.5-1.3,2.8-2.8,2.8l-0.5,0v0c-2.3,0-3.5-0.9-5.4-3.3v0c-1.7-2.1-4.3-6.2-4.4-6.4
			c-1-1.5-2.6-3.3-4.5-3.9c5-0.5,7.2-4.6,7.2-8.3c0-6.1-5.1-8.3-10.4-8.3h-11.6v0h-3.5v0h-3.1v0h-2.9v0h-3.1v0.4h0.7
			c1.2,0,2.3,0.9,2.3,2.1l0,17.3c0,5.9-3.3,9.6-8.7,9.6c-5.2,0-8.5-3.9-8.5-10.1l0-16.8c0.1-1.2,1.1-2.1,2.3-2.1h0.7V32h-12.6v0.4
			h0.7c1.3,0,2.3,0.9,2.3,2.2l0,17.1c0,7.2,4.9,11.7,14.3,11.7c7.9,0,12.6-4.5,12.6-11.7l0-17.1c0.1-1.2,1.1-2.1,2.3-2.1h0.7v0
			c0.1,0,0.5,0,0.6,0c1.5,0,2.8,1.2,2.8,2.8h0v24.3c0,1.5-1.3,2.7-2.8,2.7c-0.1,0-0.5,0-0.6,0l0,0.4H246l0-0.4h-0.5
			c-1.5,0-2.8-1.2-2.8-2.8V34c0.6,0,2.2,0,3.3,0c2.9,0.1,5,1.9,5.2,6.1c0,0.9-0.1,1.6-0.2,2.1c-0.8,3.8-3.2,5-5.5,5.1
			c-0.6,0-1.2,0-1.3,0v0.4c1.1,0.2,2.1,1.1,3,3c0.5,1.3,2.5,5.7,3.7,7.5c2.2,3.4,5.5,4.5,10.3,4.5h4.3v0H288l2-9H289.5z"/>
	</g>
	<circle class="st0" cx="299" cy="28.8" r="6.8"/>
	<g>
		<path class="st1" d="M295.9,31.2c0,0,0-0.1,0-0.1v-4.1h-1.3c0,0-0.1,0-0.1,0c0,0,0-0.1,0-0.1v-0.3c0-0.1,0-0.1,0-0.1
			c0,0,0.1,0,0.1,0h3.4c0.1,0,0.1,0,0.1,0c0,0,0,0.1,0,0.1v0.3c0,0,0,0.1,0,0.1c0,0-0.1,0-0.1,0h-1.3v4.1c0,0,0,0.1,0,0.1
			c0,0-0.1,0-0.1,0h-0.3C296,31.2,296,31.2,295.9,31.2z"/>
		<path class="st1" d="M298.9,31.2c0,0,0-0.1,0-0.1v-4.6c0-0.1,0-0.1,0-0.1c0,0,0.1,0,0.1,0h0.3c0.1,0,0.1,0,0.2,0.1l1.5,2.9
			l1.5-2.9c0-0.1,0.1-0.1,0.2-0.1h0.3c0.1,0,0.1,0,0.1,0c0,0,0,0.1,0,0.1v4.6c0,0,0,0.1,0,0.1s-0.1,0-0.1,0h-0.3c0,0-0.1,0-0.1,0
			c0,0,0-0.1,0-0.1v-3.5l-1.2,2.3c0,0.1-0.1,0.1-0.2,0.1h-0.2c-0.1,0-0.2,0-0.2-0.1l-1.2-2.3v3.5c0,0,0,0.1,0,0.1s-0.1,0-0.1,0H299
			C299,31.2,298.9,31.2,298.9,31.2z"/>
	</g>
</g>
</svg>
